SplineFontDB: 3.2
FontName: font1
FullName: font1
FamilyName: Taarau
Weight: Regular
Copyright: 
Version: 
ItalicAngle: 0
UnderlinePosition: 0
UnderlineWidth: 0
Ascent: 800
Descent: 200
InvalidEm: 0
LayerCount: 3
Layer: 0 0 "Back" 1
Layer: 1 0 "Fore" 0
Layer: 2 0 "Back 2" 1
HasVMetrics: 1
XUID: [1021 845 -1735383543 7700570]
FSType: 0
OS2Version: 0
OS2_WeightWidthSlopeOnly: 0
OS2_UseTypoMetrics: 0
CreationTime: 1715245110
ModificationTime: 1777407046
PfmFamily: 17
TTFWeight: 400
TTFWidth: 5
LineGap: 90
VLineGap: 90
OS2TypoAscent: 0
OS2TypoAOffset: 1
OS2TypoDescent: 0
OS2TypoDOffset: 1
OS2TypoLinegap: 90
OS2WinAscent: 0
OS2WinAOffset: 1
OS2WinDescent: 0
OS2WinDOffset: 1
HheadAscent: 0
HheadAOffset: 1
HheadDescent: 0
HheadDOffset: 1
OS2Vendor: 'PfEd'
Lookup: 4 0 1 "'liga' Standard Ligatures in Latin lookup 2" { "'liga' Standard Ligatures in Latin lookup 2-1"  } ['liga' ('DFLT' <'dflt' > 'latn' <'dflt' > ) ]
Lookup: 4 0 1 "'liga' Standard Ligatures in Latin lookup 1" { "'liga' Standard Ligatures in Latin lookup 1-1"  } ['liga' ('DFLT' <'dflt' > 'latn' <'dflt' > ) ]
Lookup: 4 0 1 "composite-liga" { "composite-liga-1"  } ['liga' ('DFLT' <'dflt' > 'latn' <'dflt' > ) ]
Lookup: 261 0 0 "'mark' Mark Positioning in Latin lookup 3" { "'mark' Mark Positioning in Latin lookup 3-1"  } ['mark' ('DFLT' <'dflt' > 'latn' <'dflt' > ) ]
Lookup: 258 0 0 "kerning" { "kerning-1" [150,15,3] } ['kern' ('DFLT' <'dflt' > 'latn' <'dflt' > ) ]
Lookup: 260 0 0 "'mark' Mark Positioning in Latin lookup 2" { "'mark' Mark Positioning in Latin lookup 2-1"  } ['mark' ('DFLT' <'dflt' > 'latn' <'dflt' > ) ]
Lookup: 260 0 0 "gumpak sangau" { "gumpak sangau-1"  } ['mark' ('DFLT' <'dflt' > 'latn' <'dflt' > ) ]
MarkAttachClasses: 1
DEI: 91125
LangName: 1033
Encoding: Custom
UnicodeInterp: none
NameList: AGL For New Fonts
DisplaySize: -48
AntiAlias: 1
FitToEm: 0
WidthSeparation: 150
BeginPrivate: 0
EndPrivate
Grid
-1000 630.5 m 0
 2000 630.5 l 1024
-1000 1859.99994457 m 0
 2000 1859.99994457 l 1024

StartChar: .notdef
Encoding: 0 -1 0
Width: 1000
VWidth: 1024
Flags: H
LayerCount: 3
Fore
SplineSet
0 0 m 1
 0 1024 l 1
 1000 1024 l 1
 1000 0 l 1
 0 0 l 1
EndSplineSet
EndChar

StartChar: om
Encoding: 2 38 1
Width: 890
VWidth: 1024
Flags: HW
HStem: 212.449 65.1318<372.62 635.413> 357.92 65.002<425.775 537.615> 591.824 65.001<427.614 525.042>
VStem: 326.089 65.0615<455.753 557.594> 540.352 65<425.912 469.925> 762.267 65.0684<370.939 502.989>
LayerCount: 3
Fore
SplineSet
326.088867188 505.784179688 m 1
 326.087890625 505.784179688 l 1
 326.087890625 556.850585938 353.27734375 590.71484375 367.404296875 604.864257812 c 0
 417.517578125 655.055664062 491.249023438 656.825195312 524.609375 656.825195312 c 0
 526.303710938 656.825195312 540.194335938 656.580078125 540.3515625 656.578125 c 1
 540.3515625 771.32421875 l 5
 605.3515625 771.32421875 l 5
 605.3515625 650.640625 l 1
 611.508789062 649.526367188 l 2
 659.98046875 640.752929688 707.293945312 623.010742188 747.538085938 590.654296875 c 0
 800.522460938 548.0546875 827.334960938 490.336914062 827.334960938 434.4921875 c 0
 827.334960938 364.6796875 785.672851562 317.404296875 759.272460938 294.453125 c 0
 697.610351562 240.848632812 596.848632812 212.44921875 504.40234375 212.44921875 c 0
 447.880859375 212.44921875 391.338867188 222.518554688 338.217773438 242.334960938 c 0
 238.602539062 279.494140625 208.419921875 329.341796875 189.31640625 360.891601562 c 1
 183.318359375 348.375 l 2
 155.546875 290.421875 115.356445312 254.483398438 77.0966796875 232.209960938 c 1
 46 289.333007812 l 1
 73.23046875 305.5625 96.69921875 328.583007812 113.354492188 355.512695312 c 0
 148.045898438 411.606445312 161.872070312 503.580078125 165.20703125 529.599609375 c 1
 166.35546875 529.469726562 l 1
 166.35546875 531.88671875 l 1
 231.35546875 531.88671875 l 1
 231.35546875 496.947265625 l 2
 231.35546875 459.75390625 232.5625 425.901367188 243.84765625 398.873046875 c 0
 269.53515625 337.346679688 341.783203125 310.376953125 360.942382812 303.23046875 c 0
 406.62109375 286.190429688 455.569335938 277.581054688 504.453125 277.581054688 c 0
 549.19140625 277.581054688 593.83984375 284.79296875 635.8359375 299.411132812 c 0
 749.834960938 339.08984375 762.266601562 406.578125 762.266601562 434.131835938 c 0
 762.266601562 488.6640625 725.154296875 525.245117188 706.799804688 540.001953125 c 0
 670.639648438 569.075195312 629.958984375 578.533203125 605.3515625 584.25390625 c 1
 605.3515625 468.373046875 l 2
 605.3515625 457.408203125 605.239257812 444.40234375 601.288085938 429.546875 c 0
 597.145507812 413.970703125 589.252929688 399.233398438 577.155273438 387.1484375 c 0
 548.717773438 358.73828125 510.948242188 357.919921875 496.685546875 357.919921875 c 0
 394.985351562 357.919921875 326.088867188 426.142578125 326.088867188 505.784179688 c 1
496.360351562 422.921875 m 1
 539.135742188 422.921875 540.3515625 444.620117188 540.3515625 469.924804688 c 2
 540.3515625 591.537109375 l 1
 529.260742188 591.719726562 528.329101562 591.813476562 528.208007812 591.813476562 c 0
 527.149414062 591.821289062 526.094726562 591.82421875 525.041992188 591.82421875 c 0
 502.838867188 591.82421875 481.890625 590.301757812 462.985351562 585.3984375 c 0
 395.83984375 567.983398438 391.150390625 519.271484375 391.150390625 506.002929688 c 0
 391.150390625 459.086914062 435.244140625 422.921875 496.360351562 422.921875 c 1
EndSplineSet
EndChar

StartChar: sonsud
Encoding: 3 44 2
Width: 721
VWidth: 1024
Flags: H
VStem: 350 65.6914
LayerCount: 3
Fore
SplineSet
415.69140625 685.139648438 m 1
 415.69140625 -600 l 1
 350 -600 l 1
 350 685.139648438 l 1
 415.69140625 685.139648438 l 1
EndSplineSet
EndChar

StartChar: duosud
Encoding: 4 46 3
Width: 503
VWidth: 1024
Flags: HW
LayerCount: 3
Fore
SplineSet
377 685.139648438 m 1
 377 -600 l 1
 307.30859375 -600 l 1
 307.30859375 685.139648438 l 1
 377 685.139648438 l 1
197.69140625 685.139648438 m 1
 197.69140625 -600 l 1
 128 -600 l 1
 128 685.139648438 l 1
 197.69140625 685.139648438 l 1
EndSplineSet
EndChar

StartChar: a_bas
Encoding: 5 65 4
Width: 702
VWidth: 1024
Flags: HW
HStem: 166.649 65.0322<412.881 512.825> 667.999 65.0068<305.271 473.242>
VStem: 80 65.2705<272.527 491.578> 312 70.4844<265.142 429.812> 563.497 68.5029<298.849 556.278>
AnchorPoint: "pangnau" 848.484 329 basechar 0
AnchorPoint: "saau_maam" 322.484 32 basechar 0
AnchorPoint: "saau" 353.484 316.175 basechar 0
LayerCount: 3
Fore
SplineSet
463.2109375 231.681640625 m 4
 565.1640625 231.681640625 563.497070312 425 563.497070312 437.900390625 c 4
 563.497070312 530.909179688 525.672851562 667.999023438 396 667.999023438 c 4
 273.158203125 667.999023438 145.270507812 544.193359375 145.270507812 374.943359375 c 4
 145.270507812 240.944335938 239.948242188 177.965820312 271.47265625 161.075195312 c 5
 240.102539062 103.349609375 l 5
 176.94921875 137.134765625 128.39453125 191.915039062 102.322265625 256.993164062 c 4
 87.11328125 294.958007812 80 335.083007812 80 375.177734375 c 4
 80 428.715820312 92.69921875 482.271484375 115.677734375 530.448242188 c 4
 177.993164062 661.098632812 287.91015625 733.005859375 396.208984375 733.005859375 c 4
 508.212890625 733.005859375 563.095703125 662.650390625 581 634 c 4
 630.728515625 554.423828125 632 453.056640625 632 437 c 4
 632 386.721679688 626.418945312 341.498046875 612 293 c 4
 579 182 493.751953125 166.649414062 462.775390625 166.649414062 c 4
 402.077148438 166.649414062 366.11328125 196.903320312 350.090820312 222 c 4
 322 266 312 334.953125 312 429.811523438 c 5
 312 449.248046875 312 465 312 487 c 5
 382.484375 487 l 5
 382.484375 461 382.484375 448.361328125 382.484375 429.78125 c 5
 382.484375 363.684570312 382.216796875 292.354492188 410.509765625 256 c 4
 422.360351562 240.772460938 439.220703125 231.681640625 463.2109375 231.681640625 c 4
EndSplineSet
EndChar

StartChar: i_bas
Encoding: 10 73 5
Width: 764
VWidth: 1024
Flags: HW
HStem: 146.328 65.0596<197.515 290.093> 557.868 64.2578<525.859 611.499> 588.217 65.002<272.403 433.365> 642.893 21G<421.74 431.72> 786.792 72.542<515.895 614.912>
VStem: 83 65.1348<266.694 459.223> 308 69<227.541 365.822> 427.949 67.7217<644.418 767.204> 640.853 65.0137<650.832 762.584>
AnchorPoint: "pangnau" 760.396 333 basechar 0
AnchorPoint: "saau_maam" 284.948 32 basechar 0
AnchorPoint: "saau" 339.948 321.622 basechar 0
LayerCount: 3
Fore
SplineSet
546.188476562 557.12890625 m 1xcf80
 546.189453125 557.133789062 l 1
 546.064453125 557.133789062 546.064453125 557.133789062 525.334960938 557.868164062 c 1
 540.361328125 518.334960938 555.245117188 484.365234375 582.98046875 441.811523438 c 1
 526.1328125 406.564453125 l 1
 477.446289062 481.05859375 457.532226562 547.6171875 450.384765625 571.529296875 c 1
 403.20703125 582.91015625 381.208984375 588.216796875 355.184570312 588.216796875 c 0xaf80
 243.114257812 588.216796875 148.134765625 484.19921875 148.134765625 360.79296875 c 0
 148.134765625 273.666015625 194.119140625 211.387695312 250.805664062 211.387695312 c 0
 255.076171875 211.387695312 259.254882812 211.766601562 263.265625 212.555664062 c 0
 308.170238186 221.390075421 308 297 308 365.822265625 c 0
 308 415.2734375 308 413 308 476 c 1
 377 476 l 1
 377 415 377 434 377 365 c 0
 377 299 381 230 347.462890625 190.321289062 c 0
 314.286434463 151.069277229 268.1484375 146.328125 250.50390625 146.328125 c 0
 179.442382812 146.328125 137.517578125 197.459960938 124.553710938 216.064453125 c 0
 83.904296875 274.401367188 83 345.37890625 83 361.600585938 c 0
 83 518.024414062 203.987304688 653.21875 355.052734375 653.21875 c 0
 385.341796875 653.21875 409.411132812 648.1171875 434.068359375 642.892578125 c 1xdf80
 429.37109375 675.256835938 427.94921875 685.243164062 427.94921875 705.895507812 c 0
 427.94921875 812.018554688 498.92578125 859.333984375 565.368164062 859.333984375 c 0
 566.096679688 859.333984375 566.825195312 859.314453125 567.551757812 859.314453125 c 0
 643.44921875 858.106445312 705.866210938 793.567382812 705.866210938 710.4765625 c 0
 705.866210938 634.680664062 650.778320312 557.12890625 546.188476562 557.12890625 c 1xcf80
495.670898438 702.494140625 m 0
 495.670898438 685.268554688 497.646484375 664.927734375 506.077148438 625.893554688 c 1
 520.061523438 623.760742188 531.653320312 622.125976562 545.646484375 622.125976562 c 0
 594.942382812 622.125976562 618.409179688 644.623046875 629.841796875 664.625 c 0
 637.064453125 677.262695312 640.852539062 692.106445312 640.852539062 706.931640625 c 0
 640.852539062 750.750976562 607.975585938 786.791992188 564.958984375 786.791992188 c 0
 536.573242188 786.791992188 495.670898438 769.25 495.670898438 702.494140625 c 0
  Spiro
    495.671 702.494 o
    496.494 683.674 o
    499.637 659.245 o
    506.077 625.893 v
    519.429 623.97 o
    532.289 622.628 o
    545.647 622.126 o
    586.81 628.687 o
    613.908 644.736 o
    629.842 664.625 o
    635.902 677.902 o
    639.605 692.197 o
    640.853 706.931 o
    630.755 747.076 o
    603.72 775.846 o
    564.959 786.792 o
    534.41 779.787 o
    507.305 753.981 o
    0 0 z
  EndSpiro
EndSplineSet
EndChar

StartChar: naan_saau
Encoding: 14 78 6
Width: 0
Flags: HW
VStem: -0.826172 63.8262<716.537 778.838> 10.5703 34.7422<722.118 779.887>
AnchorPoint: "saau" 36 650 mark 0
LayerCount: 3
Fore
SplineSet
45.310546875 780 m 1x40
 45.3125 780 l 1
 45.3125 771.290039062 47.26953125 787.8671875 63 718.94921875 c 1x80
 63 -179 l 5
 -0.826171875 -179 l 1
 -0.826171875 716.537109375 l 1
 9.3359375 754.462890625 10.6787109375 757.2109375 10.5703125 779.88671875 c 1x40
 45.310546875 780 l 1x40
EndSplineSet
EndChar

StartChar: o_bas
Encoding: 15 79 7
Width: 633
VWidth: 1024
Flags: HW
HStem: 155.754 60.4941<136.892 249.685> 430.006 65.1543<183.949 285 356 439.331> 742.158 65.1914<260.932 449.829>
VStem: 50 65.0059<238.917 374.605> 285 69<254.408 386> 515.01 65.0371<561.845 684.68>
AnchorPoint: "pangnau" 686 356 basechar 0
AnchorPoint: "saau_maam" 248 32 basechar 0
AnchorPoint: "saau" 324 316 basechar 0
LayerCount: 3
Fore
SplineSet
580.046875 623.69140625 m 4
 580.046875 516.838867188 496.494140625 444.608398438 356 430.005859375 c 5
 356 351 l 21
 356 235 296 155.75390625 192.073242188 155.75390625 c 4
 108.8046875 155.75390625 50 216.26171875 50 301.943359375 c 4
 50 379.962890625 98.982421875 449.857421875 172.606445312 476.896484375 c 4
 203.309570312 487.608398438 229.881835938 491.263671875 285 492.233398438 c 5
 285 625 l 5
 354 625 l 5
 354 495.16015625 l 5
 377.513671875 498.010742188 386.395507812 499.474609375 399.235351562 502.579101562 c 4
 470.833984375 520.171875 515.009765625 566.504882812 515.009765625 624.006835938 c 4
 515.009765625 690.754882812 448.640625 742.158203125 362.459960938 742.158203125 c 4
 287.639648438 742.158203125 209.55078125 705.888671875 158.405273438 647.3828125 c 5
 107.640625 688.014648438 l 5
 169.399414062 761.680664062 266.80859375 807.349609375 362.174804688 807.349609375 c 4
 485.037109375 807.349609375 580.046875 727.259765625 580.046875 623.69140625 c 4
288 427 m 5
 168.029296875 422.790039062 115.005859375 384.508789062 115.005859375 302.100585938 c 4
 115.005859375 249.7890625 143.19140625 216.248046875 187.151367188 216.248046875 c 4
 261 216.248046875 288 268.239257812 288 386 c 14
 288 427 l 5
EndSplineSet
EndChar

StartChar: u_bas
Encoding: 20 85 8
Width: 929
VWidth: 1024
Flags: HW
HStem: 276 70<255.877 327>
VStem: 86.2178 64.7822<341.302 459.362> 462 70<460.119 695>
AnchorPoint: "pangnau" 862.687 250.438 basechar 0
AnchorPoint: "saau_maam" 293.687 -57.5625 basechar 0
AnchorPoint: "saau" 362.687 227.438 basechar 0
LayerCount: 3
Fore
SplineSet
462 695.076171875 m 1
 532 695 l 1
 532 585.713867188 531 502 543 453 c 1
 584 481 643 518 713 509.325195312 c 0
 767.837712579 502.529388939 827.718840573 459.880326193 834 361.953125 c 0
 839 284 786 202 683.26953125 196.234375 c 0
 621.057828338 192.742817393 545 212 501 355 c 1
 453 329 433.775390625 320 390.775390625 300 c 1
 390 20.953125 l 1
 327.224609375 21.736328125 l 1
 327 276 l 1
 288 266 256 251 202 258.953125 c 0
 135.356001872 268.768459215 84 334 86.2177734375 403.953125 c 0
 87.6253160364 448.349906789 105.897353795 505.112920179 171.380859375 535.99609375 c 0
 235 566 299.209267857 553.42657808 344 506.620117188 c 0
 380 469 389.591796875 395.793945312 391 370 c 1
 426 387 448 399 480 416 c 1
 470 458 462 545.046875 462 695.076171875 c 1
151 395.953125 m 0
 152.147397417 350.003444082 179.878567662 325.907930113 215.744140625 322.47265625 c 0
 252 319 292 331 327 346 c 1
 327.145507812 363.268554688 325.329629108 421.396717402 304.993591363 449.999999301 c 0
 273 495 231.128996708 485.846863667 214 481.953125 c 0
 165.601047122 470.951145288 150 436 151 395.953125 c 0
557 385 m 1
 591.625607456 280.918598634 629 256 696 268.389435281 c 0
 744.339248057 277.328181331 769.1825138 308.87205137 769.078125 369 c 0
 769 414 730 440 699 441 c 0
 645.269228165 442.733250704 591 416 557 385 c 1
EndSplineSet
EndChar

StartChar: a_saau
Encoding: 22 97 9
Width: 702
VWidth: 1024
Flags: HW
HStem: -434.351 65.0322<408.881 508.825> 66.999 65.0068<301.271 469.242> 213 52<330.383 374.265> 231 52<246.383 290.265 414.383 458.265> 278 52<172.383 216.265 488.383 532.265> 352 52<125.383 169.265 535.383 579.265> 436 52<107.383 151.265 553.383 597.265> 520 52<125.383 169.265 535.383 579.265> 594 52<172.383 216.265 488.383 532.265> 641 52<246.383 290.265 414.383 458.265> 659 52<330.383 374.265>
VStem: 76 65.2705<-328.473 -109.422> 107 52<436.383 480.265> 125 52<352.383 396.265 520.383 564.265> 172 52<278.383 322.265 594.383 638.265> 246 52<231.383 275.265 641.383 685.265> 308 70.4844<-335.858 -171.188> 330 52<213.383 257.265 659.383 703.265> 414 52<231.383 275.265 641.383 685.265> 488 52<278.383 322.265 594.383 638.265> 535 52<352.383 396.265 520.383 564.265> 553 52<436.383 480.265> 559.497 68.5029<-302.151 -44.7216>
LayerCount: 3
Fore
SplineSet
272 693 m 4xc74120
 279.333007812 693 285.5 690.5 290.5 685.5 c 4
 295.5 680.5 298 674.333007812 298 667 c 4
 298 660.333007812 295.5 654.333007812 290.5 649 c 4
 285.5 643.666992188 279.333007812 641 272 641 c 4
 265.333007812 641 259.333007812 643.666992188 254 649 c 4
 248.666992188 654.333007812 246 660.333007812 246 667 c 4
 246 674.333007812 248.666992188 680.5 254 685.5 c 4
 259.333007812 690.5 265.333007812 693 272 693 c 4xc74120
440 693 m 4
 447.333007812 693 453.5 690.5 458.5 685.5 c 4
 463.5 680.5 466 674.333007812 466 667 c 4
 466 660.333007812 463.5 654.333007812 458.5 649 c 4
 453.5 643.666992188 447.333007812 641 440 641 c 4
 433.333007812 641 427.333007812 643.666992188 422 649 c 4
 416.666992188 654.333007812 414 660.333007812 414 667 c 4
 414 674.333007812 416.666992188 680.5 422 685.5 c 4
 427.333007812 690.5 433.333007812 693 440 693 c 4
272 283 m 4xd70120
 279.333007812 283 285.5 280.5 290.5 275.5 c 4
 295.5 270.5 298 264.333007812 298 257 c 4
 298 250.333007812 295.5 244.333007812 290.5 239 c 4
 285.5 233.666992188 279.333007812 231 272 231 c 4
 265.333007812 231 259.333007812 233.666992188 254 239 c 4
 248.666992188 244.333007812 246 250.333007812 246 257 c 4
 246 264.333007812 248.666992188 270.5 254 275.5 c 4
 259.333007812 280.5 265.333007812 283 272 283 c 4xd70120
440 283 m 4
 447.333007812 283 453.5 280.5 458.5 275.5 c 4
 463.5 270.5 466 264.333007812 466 257 c 4
 466 250.333007812 463.5 244.333007812 458.5 239 c 4
 453.5 233.666992188 447.333007812 231 440 231 c 4
 433.333007812 231 427.333007812 233.666992188 422 239 c 4
 416.666992188 244.333007812 414 250.333007812 414 257 c 4
 414 264.333007812 416.666992188 270.5 422 275.5 c 4
 427.333007812 280.5 433.333007812 283 440 283 c 4
356 711 m 4xc72160
 363.333007812 711 369.5 708.5 374.5 703.5 c 4
 379.5 698.5 382 692.333007812 382 685 c 4
 382 678.333007812 379.5 672.333007812 374.5 667 c 4
 369.5 661.666992188 363.333007812 659 356 659 c 4
 349.333007812 659 343.333007812 661.666992188 338 667 c 4
 332.666992188 672.333007812 330 678.333007812 330 685 c 4
 330 692.333007812 332.666992188 698.5 338 703.5 c 4
 343.333007812 708.5 349.333007812 711 356 711 c 4xc72160
356 265 m 4xe70160
 363.333007812 265 369.5 262.5 374.5 257.5 c 4
 379.5 252.5 382 246.333007812 382 239 c 4
 382 232.333007812 379.5 226.333007812 374.5 221 c 4
 369.5 215.666992188 363.333007812 213 356 213 c 4
 349.333007812 213 343.333007812 215.666992188 338 221 c 4
 332.666992188 226.333007812 330 232.333007812 330 239 c 4
 330 246.333007812 332.666992188 252.5 338 257.5 c 4
 343.333007812 262.5 349.333007812 265 356 265 c 4xe70160
107 462 m 4xc70920
 107 469.333007812 109.666992188 475.5 115 480.5 c 4
 120.333007812 485.5 126.333007812 488 133 488 c 4
 140.333007812 488 146.5 485.5 151.5 480.5 c 4
 156.5 475.5 159 469.333007812 159 462 c 4
 159 455.333007812 156.5 449.333007812 151.5 444 c 4
 146.5 438.666992188 140.333007812 436 133 436 c 4
 126.333007812 436 120.333007812 438.666992188 115 444 c 4
 109.666992188 449.333007812 107 455.333007812 107 462 c 4xc70920
553 462 m 4xc70124
 553 469.333007812 555.666992188 475.5 561 480.5 c 4
 566.333007812 485.5 572.333007812 488 579 488 c 4
 586.333007812 488 592.5 485.5 597.5 480.5 c 4
 602.5 475.5 605 469.333007812 605 462 c 4
 605 455.333007812 602.5 449.333007812 597.5 444 c 4
 592.5 438.666992188 586.333007812 436 579 436 c 4
 572.333007812 436 566.333007812 438.666992188 561 444 c 4
 555.666992188 449.333007812 553 455.333007812 553 462 c 4xc70124
172 304 m 4xcf0320
 172 311.333007812 174.666992188 317.5 180 322.5 c 4
 185.333007812 327.5 191.333007812 330 198 330 c 4
 205.333007812 330 211.5 327.5 216.5 322.5 c 4
 221.5 317.5 224 311.333007812 224 304 c 4
 224 297.333007812 221.5 291.333007812 216.5 286 c 4
 211.5 280.666992188 205.333007812 278 198 278 c 4
 191.333007812 278 185.333007812 280.666992188 180 286 c 4
 174.666992188 291.333007812 172 297.333007812 172 304 c 4xcf0320
172 620 m 4
 172 627.333007812 174.666992188 633.5 180 638.5 c 4
 185.333007812 643.5 191.333007812 646 198 646 c 4
 205.333007812 646 211.5 643.5 216.5 638.5 c 4
 221.5 633.5 224 627.333007812 224 620 c 4
 224 613.333007812 221.5 607.333007812 216.5 602 c 4
 211.5 596.666992188 205.333007812 594 198 594 c 4xc78320
 191.333007812 594 185.333007812 596.666992188 180 602 c 4
 174.666992188 607.333007812 172 613.333007812 172 620 c 4
488 304 m 4xcf0130
 488 311.333007812 490.666992188 317.5 496 322.5 c 4
 501.333007812 327.5 507.333007812 330 514 330 c 4
 521.333007812 330 527.5 327.5 532.5 322.5 c 4
 537.5 317.5 540 311.333007812 540 304 c 4
 540 297.333007812 537.5 291.333007812 532.5 286 c 4
 527.5 280.666992188 521.333007812 278 514 278 c 4
 507.333007812 278 501.333007812 280.666992188 496 286 c 4
 490.666992188 291.333007812 488 297.333007812 488 304 c 4xcf0130
488 620 m 4
 488 627.333007812 490.666992188 633.5 496 638.5 c 4
 501.333007812 643.5 507.333007812 646 514 646 c 4
 521.333007812 646 527.5 643.5 532.5 638.5 c 4
 537.5 633.5 540 627.333007812 540 620 c 4
 540 613.333007812 537.5 607.333007812 532.5 602 c 4
 527.5 596.666992188 521.333007812 594 514 594 c 4xc78130
 507.333007812 594 501.333007812 596.666992188 496 602 c 4
 490.666992188 607.333007812 488 613.333007812 488 620 c 4
125 378 m 4xc70520
 125 385.333007812 127.666992188 391.5 133 396.5 c 4
 138.333007812 401.5 144.333007812 404 151 404 c 4
 158.333007812 404 164.5 401.5 169.5 396.5 c 4
 174.5 391.5 177 385.333007812 177 378 c 4
 177 371.333007812 174.5 365.333007812 169.5 360 c 4
 164.5 354.666992188 158.333007812 352 151 352 c 4
 144.333007812 352 138.333007812 354.666992188 133 360 c 4
 127.666992188 365.333007812 125 371.333007812 125 378 c 4xc70520
125 546 m 4
 125 553.333007812 127.666992188 559.5 133 564.5 c 4
 138.333007812 569.5 144.333007812 572 151 572 c 4
 158.333007812 572 164.5 569.5 169.5 564.5 c 4
 174.5 559.5 177 553.333007812 177 546 c 4
 177 539.333007812 174.5 533.333007812 169.5 528 c 4
 164.5 522.666992188 158.333007812 520 151 520 c 4
 144.333007812 520 138.333007812 522.666992188 133 528 c 4
 127.666992188 533.333007812 125 539.333007812 125 546 c 4
535 378 m 4xc70128
 535 385.333007812 537.666992188 391.5 543 396.5 c 4
 548.333007812 401.5 554.333007812 404 561 404 c 4
 568.333007812 404 574.5 401.5 579.5 396.5 c 4
 584.5 391.5 587 385.333007812 587 378 c 4
 587 371.333007812 584.5 365.333007812 579.5 360 c 4
 574.5 354.666992188 568.333007812 352 561 352 c 4
 554.333007812 352 548.333007812 354.666992188 543 360 c 4
 537.666992188 365.333007812 535 371.333007812 535 378 c 4xc70128
535 546 m 4
 535 553.333007812 537.666992188 559.5 543 564.5 c 4
 548.333007812 569.5 554.333007812 572 561 572 c 4
 568.333007812 572 574.5 569.5 579.5 564.5 c 4
 584.5 559.5 587 553.333007812 587 546 c 4
 587 539.333007812 584.5 533.333007812 579.5 528 c 4
 574.5 522.666992188 568.333007812 520 561 520 c 4
 554.333007812 520 548.333007812 522.666992188 543 528 c 4
 537.666992188 533.333007812 535 539.333007812 535 546 c 4
459.2109375 -369.318359375 m 0
 561.1640625 -369.318359375 559.497070312 -176 559.497070312 -163.099609375 c 0xc711a2
 559.497070312 -70.0908203125 521.672851562 66.9990234375 392 66.9990234375 c 0
 269.158203125 66.9990234375 141.270507812 -56.806640625 141.270507812 -226.056640625 c 0
 141.270507812 -360.055664062 235.948242188 -423.034179688 267.47265625 -439.924804688 c 1
 236.102539062 -497.650390625 l 1
 172.94921875 -463.865234375 124.39453125 -409.084960938 98.322265625 -344.006835938 c 0
 83.11328125 -306.041992188 76 -265.916992188 76 -225.822265625 c 0
 76 -172.284179688 88.69921875 -118.728515625 111.677734375 -70.5517578125 c 0
 173.993164062 60.0986328125 283.91015625 132.005859375 392.208984375 132.005859375 c 0
 504.212890625 132.005859375 559.095703125 61.650390625 577 33 c 0
 626.728515625 -46.576171875 628 -147.943359375 628 -164 c 0
 628 -214.278320312 622.418945312 -259.501953125 608 -308 c 0
 575 -419 489.751953125 -434.350585938 458.775390625 -434.350585938 c 0
 398.077148438 -434.350585938 362.11328125 -404.096679688 346.090820312 -379 c 0
 318 -335 308 -266.046875 308 -171.188476562 c 1
 308 -151.751953125 308 -136 308 -114 c 1
 378.484375 -114 l 1
 378.484375 -140 378.484375 -152.638671875 378.484375 -171.21875 c 1
 378.484375 -237.315429688 378.216796875 -308.645507812 406.509765625 -345 c 0
 418.360351562 -360.227539062 435.220703125 -369.318359375 459.2109375 -369.318359375 c 0
EndSplineSet
EndChar

StartChar: baab
Encoding: 23 98 10
Width: 568
VWidth: 1024
Flags: HW
HStem: 411.594 59.7354<196.125 327.553>
VStem: 53 66.0215<201.155 272.867 306.771 345.574>
LayerCount: 3
Fore
SplineSet
492.795898438 180.899414062 m 1
 427.795898438 180.899414062 l 1
 427.795898438 675.26171875 l 1
 492.795898438 675.26171875 l 1
 492.795898438 180.899414062 l 1
63.6533203125 181.79296875 m 1
 54.0712890625 220.466796875 53 249.337890625 53 261.03125 c 0
 53 278.810546875 54.4990234375 297.206054688 56.0478515625 306.770507812 c 0
 58.2431640625 320.326171875 69.208984375 357.079101562 82.568359375 376.084960938 c 0
 94.5166015625 393.083984375 113.579101562 411.16796875 132.920898438 423.75390625 c 0
 193.377929688 462.096679688 264.3828125 467.21484375 327.552734375 471.329101562 c 1
 327.737304688 411.59375 l 1
 267.11328125 408.362304688 199.729492188 400.991210938 163.984375 372.009765625 c 4
 145.141601562 355.825195312 132.14453125 335.001953125 124.73046875 312.592773438 c 0
 120.450195312 299.654296875 119.021484375 286.166015625 119.021484375 272.8671875 c 0
 119.021484375 259.9375 121.712890625 222.762695312 128.068359375 200.081054688 c 1
 63.6533203125 181.79296875 l 1
EndSplineSet
EndChar

StartChar: daad
Encoding: 25 100 11
Width: 572
VWidth: 1024
Flags: HW
HStem: 416.013 61.6533<243.734 377.214>
VStem: 451.775 66.3086<535.868 686.121>
LayerCount: 3
Fore
SplineSet
140 696.12890625 m 1
 140 216.766601562 l 1
 75 216.766601562 l 1
 75 696.12890625 l 1
 140 696.12890625 l 1
441.775390625 682.78515625 m 1
 507.357421875 698.552734375 l 1
 514.22909635 673.459752046 518.083984375 647.497165426 518.083984375 626.309570312 c 0
 518.083984375 486.471949221 443.128087872 429.016096328 243.734375 416.012695312 c 1
 243.548828125 477.666015625 l 1
 401.722823434 483.987780295 451.775390625 517.018286849 451.775390625 615.078125 c 0
 451.775390625 635.141375429 447.354443758 665.074294194 441.775390625 682.78515625 c 1
EndSplineSet
EndChar

StartChar: gaag
Encoding: 28 103 12
Width: 560
VWidth: 1024
Flags: HW
VStem: 71.8799 69.6865<468.498 567.763> 424 65<202 426.16>
LayerCount: 3
Fore
SplineSet
466 598 m 0
 489.327148438 549.3984375 489 540.882891062 489 202 c 1
 463.2109375 202.000976562 443.729492187 202 424 202 c 1
 424 477.885742188 l 2
 424 625.9175305 310.759352567 642.357421904 247.4609375 624.529296875 c 0
 212.142578125 614.580078125 176.8671875 592.479492188 157.217773438 561.491210938 c 0
 140.624023438 535.322265625 136.556640625 496.818359375 141.56640625 469.857421875 c 1
 132.592773438 467.453125 79.7470703125 458.603515625 71.8798828125 456.705078125 c 1
 70.583984375 472.65234375 68.771484375 494.053710938 71.18359375 512.494140625 c 0
 86.9237600131 632.830087387 179.810616336 673.775086621 219.543945312 685.905273438 c 0
 338.847363428 722.327410393 434.844726562 662.909179688 466 598 c 0
EndSplineSet
EndChar

StartChar: haah
Encoding: 29 104 13
Width: 568
VWidth: 1024
Flags: HW
HStem: 337.585 65.015<288.268 390.744> 607.137 63.4946<301.582 410.198>
VStem: 68 64.8613<470.877 568.022> 210.185 64.0291<411.229 578.776> 442.355 63.6653<450.776 574.905>
LayerCount: 3
Fore
SplineSet
506.020715382 516.369645415 m 0
 506.020715382 411.124182864 419.989921078 337.584541018 296.86788087 337.584541018 c 0
 238.294088654 337.584541018 159.615159566 365.472351351 132.861328125 395.716796875 c 1
 132.861328125 130.614257812 l 1
 68 130.614257812 l 1
 68 568.022460938 l 5
 132.861328125 568.022460938 l 5
 132.861328125 487.348557128 167.683796771 428.496965804 226.313476562 410.083984375 c 1
 215.572411959 447.982868409 210.185062895 482.388679709 210.185062895 513.086620845 c 0
 210.185062895 609.761813768 266.740437975 670.631305999 356.563789481 670.631305999 c 0
 444.353985402 670.631305999 506.020715382 606.982116695 506.020715382 516.369645415 c 0
274.214175411 512.428668976 m 0
 274.214175411 483.041341861 281.859097191 441.356355082 294.200195312 403.452148438 c 1
 298.572603873 402.884560768 303.352635804 402.599535486 308.498986985 402.599535486 c 0
 387.172762917 402.599535486 442.355456704 447.82858555 442.355456704 512.311486006 c 0
 442.355456704 565.36263831 403.281275984 607.136722466 353.658876009 607.136722466 c 0
 306.978031918 607.136722466 274.214175411 568.078093618 274.214175411 512.428668976 c 0
EndSplineSet
EndChar

StartChar: i_saau
Encoding: 30 105 14
Width: 764
VWidth: 1024
Flags: HW
HStem: -506.801 65.0596<219.327 311.904> -95.2607 64.2578<547.67 633.31> -64.9121 65.002<294.214 455.176> 133.663 72.542<537.707 636.724> 213 52<330.383 374.265> 231 52<246.383 290.265 414.383 458.265> 278 52<172.383 216.265 488.383 532.265> 352 52<125.383 169.265 535.383 579.265> 436 52<107.383 151.265 553.383 597.265> 520 52<125.383 169.265 535.383 579.265> 594 52<172.383 216.265 488.383 532.265> 641 52<246.383 290.265 414.383 458.265> 659 52<330.383 374.265>
VStem: 104.812 65.1348<-386.435 -193.906> 107 52<436.383 480.265> 125 52<352.383 396.265 520.383 564.265> 172 52<278.383 322.265 594.383 638.265> 246 52<231.383 275.265 641.383 685.265> 329.812 69<-425.588 -287.307> 330 52<213.383 257.265 659.383 703.265> 414 52<231.383 275.265 641.383 685.265> 449.761 67.7217<-8.71072 114.075> 488 52<278.383 322.265 594.383 638.265> 535 52<352.383 396.265 520.383 564.265> 553 52<436.383 480.265> 662.664 65.0137<-2.29735 109.455>
LayerCount: 3
Fore
SplineSet
272 693 m 4x91d04040
 279.333007812 693 285.5 690.5 290.5 685.5 c 4
 295.5 680.5 298 674.333007812 298 667 c 4
 298 660.333007812 295.5 654.333007812 290.5 649 c 4
 285.5 643.666992188 279.333007812 641 272 641 c 4
 265.333007812 641 259.333007812 643.666992188 254 649 c 4
 248.666992188 654.333007812 246 660.333007812 246 667 c 4
 246 674.333007812 248.666992188 680.5 254 685.5 c 4
 259.333007812 690.5 265.333007812 693 272 693 c 4x91d04040
440 693 m 4
 447.333007812 693 453.5 690.5 458.5 685.5 c 4
 463.5 680.5 466 674.333007812 466 667 c 4
 466 660.333007812 463.5 654.333007812 458.5 649 c 4
 453.5 643.666992188 447.333007812 641 440 641 c 4
 433.333007812 641 427.333007812 643.666992188 422 649 c 4
 416.666992188 654.333007812 414 660.333007812 414 667 c 4x91d04840
 414 674.333007812 416.666992188 680.5 422 685.5 c 4
 427.333007812 690.5 433.333007812 693 440 693 c 4
272 283 m 4x95c04040
 279.333007812 283 285.5 280.5 290.5 275.5 c 4
 295.5 270.5 298 264.333007812 298 257 c 4
 298 250.333007812 295.5 244.333007812 290.5 239 c 4
 285.5 233.666992188 279.333007812 231 272 231 c 4
 265.333007812 231 259.333007812 233.666992188 254 239 c 4
 248.666992188 244.333007812 246 250.333007812 246 257 c 4
 246 264.333007812 248.666992188 270.5 254 275.5 c 4
 259.333007812 280.5 265.333007812 283 272 283 c 4x95c04040
440 283 m 4
 447.333007812 283 453.5 280.5 458.5 275.5 c 4
 463.5 270.5 466 264.333007812 466 257 c 4
 466 250.333007812 463.5 244.333007812 458.5 239 c 4
 453.5 233.666992188 447.333007812 231 440 231 c 4
 433.333007812 231 427.333007812 233.666992188 422 239 c 4
 416.666992188 244.333007812 414 250.333007812 414 257 c 4x95c04840
 414 264.333007812 416.666992188 270.5 422 275.5 c 4
 427.333007812 280.5 433.333007812 283 440 283 c 4
356 711 m 4x91c85040
 363.333007812 711 369.5 708.5 374.5 703.5 c 4
 379.5 698.5 382 692.333007812 382 685 c 4
 382 678.333007812 379.5 672.333007812 374.5 667 c 4
 369.5 661.666992188 363.333007812 659 356 659 c 4
 349.333007812 659 343.333007812 661.666992188 338 667 c 4
 332.666992188 672.333007812 330 678.333007812 330 685 c 4
 330 692.333007812 332.666992188 698.5 338 703.5 c 4
 343.333007812 708.5 349.333007812 711 356 711 c 4x91c85040
356 265 m 4x99c05040
 363.333007812 265 369.5 262.5 374.5 257.5 c 4
 379.5 252.5 382 246.333007812 382 239 c 4
 382 232.333007812 379.5 226.333007812 374.5 221 c 4
 369.5 215.666992188 363.333007812 213 356 213 c 4
 349.333007812 213 343.333007812 215.666992188 338 221 c 4
 332.666992188 226.333007812 330 232.333007812 330 239 c 4
 330 246.333007812 332.666992188 252.5 338 257.5 c 4
 343.333007812 262.5 349.333007812 265 356 265 c 4x99c05040
107 462 m 4x91c24040
 107 469.333007812 109.666992188 475.5 115 480.5 c 4
 120.333007812 485.5 126.333007812 488 133 488 c 4
 140.333007812 488 146.5 485.5 151.5 480.5 c 4
 156.5 475.5 159 469.333007812 159 462 c 4
 159 455.333007812 156.5 449.333007812 151.5 444 c 4
 146.5 438.666992188 140.333007812 436 133 436 c 4
 126.333007812 436 120.333007812 438.666992188 115 444 c 4
 109.666992188 449.333007812 107 455.333007812 107 462 c 4x91c24040
553 462 m 4x91c040c0
 553 469.333007812 555.666992188 475.5 561 480.5 c 4
 566.333007812 485.5 572.333007812 488 579 488 c 4
 586.333007812 488 592.5 485.5 597.5 480.5 c 4
 602.5 475.5 605 469.333007812 605 462 c 4
 605 455.333007812 602.5 449.333007812 597.5 444 c 4
 592.5 438.666992188 586.333007812 436 579 436 c 4
 572.333007812 436 566.333007812 438.666992188 561 444 c 4
 555.666992188 449.333007812 553 455.333007812 553 462 c 4x91c040c0
172 304 m 4x93c0c040
 172 311.333007812 174.666992188 317.5 180 322.5 c 4
 185.333007812 327.5 191.333007812 330 198 330 c 4
 205.333007812 330 211.5 327.5 216.5 322.5 c 4
 221.5 317.5 224 311.333007812 224 304 c 4
 224 297.333007812 221.5 291.333007812 216.5 286 c 4
 211.5 280.666992188 205.333007812 278 198 278 c 4
 191.333007812 278 185.333007812 280.666992188 180 286 c 4
 174.666992188 291.333007812 172 297.333007812 172 304 c 4x93c0c040
172 620 m 4
 172 627.333007812 174.666992188 633.5 180 638.5 c 4
 185.333007812 643.5 191.333007812 646 198 646 c 4
 205.333007812 646 211.5 643.5 216.5 638.5 c 4
 221.5 633.5 224 627.333007812 224 620 c 4
 224 613.333007812 221.5 607.333007812 216.5 602 c 4
 211.5 596.666992188 205.333007812 594 198 594 c 4x91e0c040
 191.333007812 594 185.333007812 596.666992188 180 602 c 4
 174.666992188 607.333007812 172 613.333007812 172 620 c 4
488 304 m 4x93c04240
 488 311.333007812 490.666992188 317.5 496 322.5 c 4
 501.333007812 327.5 507.333007812 330 514 330 c 4
 521.333007812 330 527.5 327.5 532.5 322.5 c 4
 537.5 317.5 540 311.333007812 540 304 c 4
 540 297.333007812 537.5 291.333007812 532.5 286 c 4
 527.5 280.666992188 521.333007812 278 514 278 c 4
 507.333007812 278 501.333007812 280.666992188 496 286 c 4
 490.666992188 291.333007812 488 297.333007812 488 304 c 4x93c04240
488 620 m 4
 488 627.333007812 490.666992188 633.5 496 638.5 c 4
 501.333007812 643.5 507.333007812 646 514 646 c 4
 521.333007812 646 527.5 643.5 532.5 638.5 c 4
 537.5 633.5 540 627.333007812 540 620 c 4
 540 613.333007812 537.5 607.333007812 532.5 602 c 4
 527.5 596.666992188 521.333007812 594 514 594 c 4x91e04240
 507.333007812 594 501.333007812 596.666992188 496 602 c 4
 490.666992188 607.333007812 488 613.333007812 488 620 c 4
125 378 m 4x91c14040
 125 385.333007812 127.666992188 391.5 133 396.5 c 4
 138.333007812 401.5 144.333007812 404 151 404 c 4
 158.333007812 404 164.5 401.5 169.5 396.5 c 4
 174.5 391.5 177 385.333007812 177 378 c 4
 177 371.333007812 174.5 365.333007812 169.5 360 c 4
 164.5 354.666992188 158.333007812 352 151 352 c 4
 144.333007812 352 138.333007812 354.666992188 133 360 c 4
 127.666992188 365.333007812 125 371.333007812 125 378 c 4x91c14040
125 546 m 4
 125 553.333007812 127.666992188 559.5 133 564.5 c 4
 138.333007812 569.5 144.333007812 572 151 572 c 4
 158.333007812 572 164.5 569.5 169.5 564.5 c 4
 174.5 559.5 177 553.333007812 177 546 c 4
 177 539.333007812 174.5 533.333007812 169.5 528 c 4
 164.5 522.666992188 158.333007812 520 151 520 c 4
 144.333007812 520 138.333007812 522.666992188 133 528 c 4
 127.666992188 533.333007812 125 539.333007812 125 546 c 4
535 378 m 4x91c04140
 535 385.333007812 537.666992188 391.5 543 396.5 c 4
 548.333007812 401.5 554.333007812 404 561 404 c 4
 568.333007812 404 574.5 401.5 579.5 396.5 c 4
 584.5 391.5 587 385.333007812 587 378 c 4
 587 371.333007812 584.5 365.333007812 579.5 360 c 4
 574.5 354.666992188 568.333007812 352 561 352 c 4
 554.333007812 352 548.333007812 354.666992188 543 360 c 4
 537.666992188 365.333007812 535 371.333007812 535 378 c 4x91c04140
535 546 m 4
 535 553.333007812 537.666992188 559.5 543 564.5 c 4
 548.333007812 569.5 554.333007812 572 561 572 c 4
 568.333007812 572 574.5 569.5 579.5 564.5 c 4
 584.5 559.5 587 553.333007812 587 546 c 4
 587 539.333007812 584.5 533.333007812 579.5 528 c 4
 574.5 522.666992188 568.333007812 520 561 520 c 4
 554.333007812 520 548.333007812 522.666992188 543 528 c 4
 537.666992188 533.333007812 535 539.333007812 535 546 c 4
568 -96 m 1
 568.000976562 -95.9951171875 l 1
 567.875976562 -95.9951171875 567.875976562 -95.9951171875 547.146484375 -95.2607421875 c 1xd1c46440
 562.172851562 -134.793945312 577.056640625 -168.763671875 604.791992188 -211.317382812 c 1
 547.944335938 -246.564453125 l 1
 499.2578125 -172.0703125 479.34375 -105.51171875 472.196289062 -81.599609375 c 1
 425.018554688 -70.21875 403.020507812 -64.912109375 376.99609375 -64.912109375 c 0xb1c46440
 264.92578125 -64.912109375 169.946289062 -168.9296875 169.946289062 -292.3359375 c 0
 169.946289062 -379.462890625 215.930664062 -441.741210938 272.6171875 -441.741210938 c 0
 276.887695312 -441.741210938 281.06640625 -441.362304688 285.077148438 -440.573242188 c 0
 329.981445312 -431.739257812 329.811523438 -356.12890625 329.811523438 -287.306640625 c 0
 329.811523438 -237.85546875 329.811523438 -240.12890625 329.811523438 -177.12890625 c 1
 398.811523438 -177.12890625 l 1
 398.811523438 -238.12890625 398.811523438 -219.12890625 398.811523438 -288.12890625 c 0
 398.811523438 -354.12890625 402.811523438 -423.12890625 369.274414062 -462.807617188 c 0
 336.09765625 -502.059570312 289.959960938 -506.80078125 272.315429688 -506.80078125 c 0
 201.25390625 -506.80078125 159.329101562 -455.668945312 146.365234375 -437.064453125 c 0
 105.715820312 -378.727539062 104.811523438 -307.75 104.811523438 -291.528320312 c 0
 104.811523438 -135.104492188 225.798828125 0.08984375 376.864257812 0.08984375 c 0
 407.153320312 0.08984375 431.22265625 -5.01171875 455.879882812 -10.236328125 c 1
 451.182617188 22.1279296875 449.760742188 32.1142578125 449.760742188 52.7666015625 c 0
 449.760742188 158.889648438 520.737304688 206.205078125 587.1796875 206.205078125 c 0
 587.908203125 206.205078125 588.63671875 206.185546875 589.36328125 206.185546875 c 0
 665.260742188 204.977539062 727.677734375 140.438476562 727.677734375 57.34765625 c 0
 727.677734375 -18.4482421875 672.58984375 -96 568 -96 c 1
517.482421875 49.365234375 m 0
 517.482421875 32.1396484375 519.458007812 11.798828125 527.888671875 -27.2353515625 c 1
 541.873046875 -29.3681640625 553.46484375 -31.0029296875 567.458007812 -31.0029296875 c 0xd1c04440
 616.75390625 -31.0029296875 640.220703125 -8.505859375 651.653320312 11.49609375 c 0
 658.875976562 24.1337890625 662.6640625 38.9775390625 662.6640625 53.802734375 c 0
 662.6640625 97.6220703125 629.787109375 133.663085938 586.770507812 133.663085938 c 0
 558.384765625 133.663085938 517.482421875 116.12109375 517.482421875 49.365234375 c 0
  Spiro
    517.483 49.3651 o
    518.306 30.5451 o
    521.449 6.11609 o
    527.889 -27.2359 v
    541.241 -29.1589 o
    554.101 -30.5009 o
    567.459 -31.0029 o
    608.622 -24.4419 o
    635.72 -8.39291 o
    651.654 11.4961 o
    657.714 24.7731 o
    661.417 39.0681 o
    662.665 53.8021 o
    652.567 93.9471 o
    625.532 122.717 o
    586.771 133.663 o
    556.222 126.658 o
    529.117 100.852 o
    0 0 z
  EndSpiro
EndSplineSet
EndChar

StartChar: kaak
Encoding: 32 107 15
Width: 740
VWidth: 1024
Flags: HW
HStem: 460.492 64.998<392.12 551.137>
VStem: 253.229 65<599.72 649.598>
LayerCount: 3
Fore
SplineSet
693.40234375 600.875976562 m 5
 693.40234375 600.876953125 l 5
 647.607543667 513.838408388 563.493934227 460.4921875 472.05078125 460.4921875 c 0
 412.646098281 460.4921875 369.921139808 476.951411846 318.03125 519.826171875 c 1
 318.229492188 156.778320312 l 1
 253.229492188 156.952148438 l 1
 253 649.59765625 l 1
 318.934570312 649.711914062 l 1
 333.871903495 577.221425222 397.65593353 525.490234375 472.098632812 525.490234375 c 0
 536.60363621 525.490234375 601.386133204 566.879105817 635.064453125 629.607421875 c 5
 693.40234375 600.875976562 l 5
EndSplineSet
EndChar

StartChar: laal
Encoding: 33 108 16
Width: 685
VWidth: 1024
Flags: HW
HStem: 454.168 64.8691<157.73 309.582> 474.389 69.9941<374.572 541.007>
VStem: 60 64.9883<551.049 626.434>
LayerCount: 3
Fore
SplineSet
309.58203125 730.7578125 m 5x60
 374.572265625 730.7578125 l 5
 374.572265625 544.3828125 l 1
 395.12890625 551.478515625 416.48046875 556.243164062 438.158203125 558.44921875 c 0
 446.647460938 559.313476562 455.404296875 559.806640625 464.30078125 559.75390625 c 0
 490.990234375 559.595703125 518.930664062 554.520507812 544.63671875 539.79296875 c 0
 567.797851562 526.5234375 585.770507812 506.966796875 598.185546875 484.8828125 c 0
 610.624023438 462.756835938 616.44140625 440.227539062 621.3984375 420.287109375 c 2
 631.11328125 381.208984375 l 1
 568.04296875 365.53125 l 1
 558.328125 404.609375 l 2
 553.611328125 423.58203125 548.744140625 440.208007812 541.533203125 453.03515625 c 0
 534.298828125 465.903320312 523.9609375 476.73828125 512.330078125 483.40234375 c 0
 494.721679688 493.491210938 470.267578125 496.391601562 444.73828125 493.79296875 c 0
 420.528320312 491.329101562 396.641601562 484.702148438 374.572265625 474.388671875 c 1
 374.572265625 178.439453125 l 1
 309.58203125 178.439453125 l 1
 309.58203125 455.921875 l 1
 283.395507812 453.181640625 256.995117188 452.553710938 230.703125 454.16796875 c 0xa0
 200.909179688 455.997070312 168.09375 460.702148438 137.267578125 477.0546875 c 0
 110.23046875 491.397460938 87.48828125 514.046875 74.26953125 542.865234375 c 0
 60.9306640625 571.947265625 60 601.340820312 60 626.43359375 c 2
 60 657.603515625 l 1
 60 696.41015625 l 1
 124.98828125 696.41015625 l 1
 124.98828125 657.603515625 l 1
 124.98828125 626.43359375 l 2
 124.98828125 603.827148438 126.793945312 584.235351562 133.341796875 569.9609375 c 0
 140.009765625 555.422851562 152.624023438 542.477539062 167.724609375 534.466796875 c 0
 185.8359375 524.859375 209.1875 520.602539062 234.685546875 519.037109375 c 0
 259.638671875 517.504882812 284.752929688 518.258789062 309.58203125 521.26953125 c 1
 309.58203125 730.7578125 l 5x60
EndSplineSet
EndChar

StartChar: maam
Encoding: 34 109 17
Width: 627
VWidth: 1024
Flags: HW
HStem: 425.905 56.9199<278.435 285.772 354.38 426.531>
VStem: 511.303 65.0029<554.663 724.238>
LayerCount: 3
Fore
SplineSet
310.162109375 482.825195312 m 1
 310.163085938 482.825195312 l 1
 383.951171875 482.825195312 429.30859375 503.581054688 447.94140625 514.397460938 c 0
 506.55078125 550.819335938 511.302734375 604.36328125 511.302734375 633.970703125 c 0
 511.302734375 665.390625 502.045898438 697.0859375 484.98046875 724.155273438 c 5
 484.98046875 717.856445312 539.609375 753.15625 539.609375 759.456054688 c 5
 563.54296875 721.763671875 576.305664062 678.173828125 576.305664062 634.14453125 c 0
 576.305664062 541.194335938 530.09765625 488.3515625 481.526367188 458.482421875 c 1
 432.4765625 435.048828125 380.129882812 429.985351562 354.379882812 427.494140625 c 1
 354.379882812 146.795898438 l 1
 285.772460938 146.795898438 l 1
 285.772460938 425.905273438 l 1
 278.434570312 426.409179688 l 2
 160.05859375 433.9296875 79.734375 480.87890625 51 499.064453125 c 1
 51 492.883789062 88.6689453125 545.845703125 88.6689453125 552.038085938 c 1
 188.498046875 483.201171875 288.283203125 482.825195312 310.162109375 482.825195312 c 1
EndSplineSet
EndChar

StartChar: naan
Encoding: 35 110 18
Width: 559
VWidth: 1024
Flags: HW
HStem: 377.089 65.0029<167.376 278.518> 483.585 77.2051<366.763 421.152>
VStem: 66.6729 65.0049<478.122 573.712> 428.256 63.9795<410.288 474.923>
LayerCount: 3
Fore
SplineSet
66.6728515625 573.452148438 m 0
 67 673.689453125 l 1
 131.807617188 673.744140625 l 1
 131.885742188 581.198242188 l 2
 131.688476562 577.764648438 131.677734375 575.948242188 131.677734375 573.711914062 c 0
 131.677734375 552.921875 134.208984375 510.770507812 141.885742188 495.234375 c 0
 158.130859375 462.358398438 191.61328125 442.091796875 224.487304688 442.091796875 c 0
 282.652297485 442.091796875 324.509924752 518.419839552 364.936523438 544.7265625 c 0
 376.69140625 552.586914062 396.684570312 560.790039062 411.02734375 560.790039062 c 0
 427.711914062 560.790039062 442.798828125 549.166015625 451.34765625 540.98828125 c 0
 492.6328125 501.49609375 493 441.831054688 493 410.288085938 c 0
 492.209960938 191.669921875 l 0
 492.209960938 187.634765625 492.217773438 183.8359375 492.235351562 180.341796875 c 1
 428.255859375 180.220703125 l 1
 427.656194453 247.249268553 427.787165099 309.331226472 427.983398438 402.348632812 c 0
 427.983398438 402.525390625 428.1328125 419.341796875 428.1328125 420.02734375 c 0
 428.1328125 463.362304688 422.05859375 470.591796875 417.891601562 475.137695312 c 0
 413.5859375 479.833984375 407.200195312 483.584960938 399.826171875 483.584960938 c 0
 386.635752235 483.584960938 377.190672842 474.576335702 346.385742188 438.485351562 c 0
 328.709960938 417.763671875 294.014648438 377.088867188 224.704101562 377.088867188 c 0
 164.81640625 377.088867188 110.19921875 412.638671875 83.6220703125 466.42578125 c 0
 73.1337890625 487.650390625 66.6728515625 541.822265625 66.6728515625 573.452148438 c 0
EndSplineSet
EndChar

StartChar: o_saau
Encoding: 36 111 19
Width: 633
VWidth: 1024
Flags: HW
HStem: -493.406 60.4941<98.2251 211.018> -219.154 65.1543<145.282 246.333 317.333 400.664> 92.998 65.1914<222.265 411.162> 213 52<254.383 298.265> 231 52<170.383 214.265 338.383 382.265> 278 52<96.3828 140.265 412.383 456.265> 352 52<49.3828 93.2648 459.383 503.265> 436 52<31.3828 75.2648 477.383 521.265> 520 52<49.3828 93.2648 459.383 503.265> 594 52<96.3828 140.265 412.383 456.265> 641 52<170.383 214.265 338.383 382.265> 659 52<254.383 298.265>
VStem: 11.333 65.0059<-410.243 -274.556> 31 52<436.383 480.265> 49 52<352.383 396.265 520.383 564.265> 96 52<278.383 322.265 594.383 638.265> 170 52<231.383 275.265 641.383 685.265> 246.333 69<-394.752 -263.16> 254 52<213.383 257.265 659.383 703.265> 338 52<231.383 275.265 641.383 685.265> 412 52<278.383 322.265 594.383 638.265> 459 52<352.383 396.265 520.383 564.265> 476.343 65.0371<-87.3147 35.5195> 477 52<436.383 480.265>
LayerCount: 3
Fore
SplineSet
196 693 m 0xe3a090
 203.333007812 693 209.5 690.5 214.5 685.5 c 0
 219.5 680.5 222 674.333007812 222 667 c 0
 222 660.333007812 219.5 654.333007812 214.5 649 c 0
 209.5 643.666992188 203.333007812 641 196 641 c 0
 189.333007812 641 183.333007812 643.666992188 178 649 c 0
 172.666992188 654.333007812 170 660.333007812 170 667 c 0
 170 674.333007812 172.666992188 680.5 178 685.5 c 0
 183.333007812 690.5 189.333007812 693 196 693 c 0xe3a090
364 693 m 0
 371.333007812 693 377.5 690.5 382.5 685.5 c 0
 387.5 680.5 390 674.333007812 390 667 c 0
 390 660.333007812 387.5 654.333007812 382.5 649 c 0
 377.5 643.666992188 371.333007812 641 364 641 c 0
 357.333007812 641 351.333007812 643.666992188 346 649 c 0
 340.666992188 654.333007812 338 660.333007812 338 667 c 0
 338 674.333007812 340.666992188 680.5 346 685.5 c 0
 351.333007812 690.5 357.333007812 693 364 693 c 0
196 283 m 0xeb8090
 203.333007812 283 209.5 280.5 214.5 275.5 c 0
 219.5 270.5 222 264.333007812 222 257 c 0
 222 250.333007812 219.5 244.333007812 214.5 239 c 0
 209.5 233.666992188 203.333007812 231 196 231 c 0
 189.333007812 231 183.333007812 233.666992188 178 239 c 0
 172.666992188 244.333007812 170 250.333007812 170 257 c 0
 170 264.333007812 172.666992188 270.5 178 275.5 c 0
 183.333007812 280.5 189.333007812 283 196 283 c 0xeb8090
364 283 m 0
 371.333007812 283 377.5 280.5 382.5 275.5 c 0
 387.5 270.5 390 264.333007812 390 257 c 0
 390 250.333007812 387.5 244.333007812 382.5 239 c 0
 377.5 233.666992188 371.333007812 231 364 231 c 0
 357.333007812 231 351.333007812 233.666992188 346 239 c 0
 340.666992188 244.333007812 338 250.333007812 338 257 c 0
 338 264.333007812 340.666992188 270.5 346 275.5 c 0
 351.333007812 280.5 357.333007812 283 364 283 c 0
280 711 m 0xe390b0
 287.333007812 711 293.5 708.5 298.5 703.5 c 0
 303.5 698.5 306 692.333007812 306 685 c 0
 306 678.333007812 303.5 672.333007812 298.5 667 c 0
 293.5 661.666992188 287.333007812 659 280 659 c 0
 273.333007812 659 267.333007812 661.666992188 262 667 c 0
 256.666992188 672.333007812 254 678.333007812 254 685 c 0
 254 692.333007812 256.666992188 698.5 262 703.5 c 0
 267.333007812 708.5 273.333007812 711 280 711 c 0xe390b0
280 265 m 0xf380b0
 287.333007812 265 293.5 262.5 298.5 257.5 c 0
 303.5 252.5 306 246.333007812 306 239 c 0
 306 232.333007812 303.5 226.333007812 298.5 221 c 0
 293.5 215.666992188 287.333007812 213 280 213 c 0
 273.333007812 213 267.333007812 215.666992188 262 221 c 0
 256.666992188 226.333007812 254 232.333007812 254 239 c 0
 254 246.333007812 256.666992188 252.5 262 257.5 c 0
 267.333007812 262.5 273.333007812 265 280 265 c 0xf380b0
31 462 m 0xe38490
 31 469.333007812 33.6669921875 475.5 39 480.5 c 0
 44.3330078125 485.5 50.3330078125 488 57 488 c 0
 64.3330078125 488 70.5 485.5 75.5 480.5 c 0
 80.5 475.5 83 469.333007812 83 462 c 0
 83 455.333007812 80.5 449.333007812 75.5 444 c 0
 70.5 438.666992188 64.3330078125 436 57 436 c 0
 50.3330078125 436 44.3330078125 438.666992188 39 444 c 0
 33.6669921875 449.333007812 31 455.333007812 31 462 c 0xe38490
477 462 m 0xe38091
 477 469.333007812 479.666992188 475.5 485 480.5 c 0
 490.333007812 485.5 496.333007812 488 503 488 c 0
 510.333007812 488 516.5 485.5 521.5 480.5 c 0
 526.5 475.5 529 469.333007812 529 462 c 0
 529 455.333007812 526.5 449.333007812 521.5 444 c 0
 516.5 438.666992188 510.333007812 436 503 436 c 0
 496.333007812 436 490.333007812 438.666992188 485 444 c 0
 479.666992188 449.333007812 477 455.333007812 477 462 c 0xe38091
96 304 m 0xe78190
 96 311.333007812 98.6669921875 317.5 104 322.5 c 0
 109.333007812 327.5 115.333007812 330 122 330 c 0
 129.333007812 330 135.5 327.5 140.5 322.5 c 0
 145.5 317.5 148 311.333007812 148 304 c 0
 148 297.333007812 145.5 291.333007812 140.5 286 c 0
 135.5 280.666992188 129.333007812 278 122 278 c 0
 115.333007812 278 109.333007812 280.666992188 104 286 c 0
 98.6669921875 291.333007812 96 297.333007812 96 304 c 0xe78190
96 620 m 0
 96 627.333007812 98.6669921875 633.5 104 638.5 c 0
 109.333007812 643.5 115.333007812 646 122 646 c 0
 129.333007812 646 135.5 643.5 140.5 638.5 c 0
 145.5 633.5 148 627.333007812 148 620 c 0
 148 613.333007812 145.5 607.333007812 140.5 602 c 0
 135.5 596.666992188 129.333007812 594 122 594 c 0xe3c190
 115.333007812 594 109.333007812 596.666992188 104 602 c 0
 98.6669921875 607.333007812 96 613.333007812 96 620 c 0
412 304 m 0xe78098
 412 311.333007812 414.666992188 317.5 420 322.5 c 0
 425.333007812 327.5 431.333007812 330 438 330 c 0
 445.333007812 330 451.5 327.5 456.5 322.5 c 0
 461.5 317.5 464 311.333007812 464 304 c 0
 464 297.333007812 461.5 291.333007812 456.5 286 c 0
 451.5 280.666992188 445.333007812 278 438 278 c 0
 431.333007812 278 425.333007812 280.666992188 420 286 c 0
 414.666992188 291.333007812 412 297.333007812 412 304 c 0xe78098
412 620 m 0
 412 627.333007812 414.666992188 633.5 420 638.5 c 0
 425.333007812 643.5 431.333007812 646 438 646 c 0
 445.333007812 646 451.5 643.5 456.5 638.5 c 0
 461.5 633.5 464 627.333007812 464 620 c 0
 464 613.333007812 461.5 607.333007812 456.5 602 c 0
 451.5 596.666992188 445.333007812 594 438 594 c 0xe3c098
 431.333007812 594 425.333007812 596.666992188 420 602 c 0
 414.666992188 607.333007812 412 613.333007812 412 620 c 0
49 378 m 0xe38290
 49 385.333007812 51.6669921875 391.5 57 396.5 c 0
 62.3330078125 401.5 68.3330078125 404 75 404 c 0
 82.3330078125 404 88.5 401.5 93.5 396.5 c 0
 98.5 391.5 101 385.333007812 101 378 c 0
 101 371.333007812 98.5 365.333007812 93.5 360 c 0
 88.5 354.666992188 82.3330078125 352 75 352 c 0
 68.3330078125 352 62.3330078125 354.666992188 57 360 c 0
 51.6669921875 365.333007812 49 371.333007812 49 378 c 0xe38290
49 546 m 0
 49 553.333007812 51.6669921875 559.5 57 564.5 c 0
 62.3330078125 569.5 68.3330078125 572 75 572 c 0
 82.3330078125 572 88.5 569.5 93.5 564.5 c 0
 98.5 559.5 101 553.333007812 101 546 c 0
 101 539.333007812 98.5 533.333007812 93.5 528 c 0
 88.5 522.666992188 82.3330078125 520 75 520 c 0
 68.3330078125 520 62.3330078125 522.666992188 57 528 c 0
 51.6669921875 533.333007812 49 539.333007812 49 546 c 0
459 378 m 0xe38094
 459 385.333007812 461.666992188 391.5 467 396.5 c 0
 472.333007812 401.5 478.333007812 404 485 404 c 0
 492.333007812 404 498.5 401.5 503.5 396.5 c 0
 508.5 391.5 511 385.333007812 511 378 c 0
 511 371.333007812 508.5 365.333007812 503.5 360 c 0
 498.5 354.666992188 492.333007812 352 485 352 c 0
 478.333007812 352 472.333007812 354.666992188 467 360 c 0
 461.666992188 365.333007812 459 371.333007812 459 378 c 0xe38094
459 546 m 0
 459 553.333007812 461.666992188 559.5 467 564.5 c 0
 472.333007812 569.5 478.333007812 572 485 572 c 0
 492.333007812 572 498.5 569.5 503.5 564.5 c 0
 508.5 559.5 511 553.333007812 511 546 c 0
 511 539.333007812 508.5 533.333007812 503.5 528 c 0
 498.5 522.666992188 492.333007812 520 485 520 c 0
 478.333007812 520 472.333007812 522.666992188 467 528 c 0
 461.666992188 533.333007812 459 539.333007812 459 546 c 0
541.379882812 -25.46875 m 0xe388d2
 541.379882812 -132.321289062 457.827148438 -204.551757812 317.333007812 -219.154296875 c 1
 317.333007812 -298.16015625 l 17
 317.333007812 -414.16015625 257.333007812 -493.40625 153.40625 -493.40625 c 0
 70.1376953125 -493.40625 11.3330078125 -432.8984375 11.3330078125 -347.216796875 c 0
 11.3330078125 -269.197265625 60.3154296875 -199.302734375 133.939453125 -172.263671875 c 0
 164.642578125 -161.551757812 191.21484375 -157.896484375 246.333007812 -156.926757812 c 1
 246.333007812 -24.16015625 l 1
 315.333007812 -24.16015625 l 1
 315.333007812 -154 l 1
 338.846679688 -151.149414062 347.728515625 -149.685546875 360.568359375 -146.581054688 c 0
 432.166992188 -128.98828125 476.342773438 -82.6552734375 476.342773438 -25.1533203125 c 0
 476.342773438 41.5947265625 409.973632812 92.998046875 323.79296875 92.998046875 c 0
 248.97265625 92.998046875 170.883789062 56.728515625 119.73828125 -1.77734375 c 1
 68.9736328125 38.8544921875 l 1
 130.732421875 112.520507812 228.141601562 158.189453125 323.5078125 158.189453125 c 0
 446.370117188 158.189453125 541.379882812 78.099609375 541.379882812 -25.46875 c 0xe388d2
249.333007812 -222.16015625 m 1
 129.362304688 -226.370117188 76.3388671875 -264.651367188 76.3388671875 -347.059570312 c 0
 76.3388671875 -399.37109375 104.524414062 -432.912109375 148.484375 -432.912109375 c 0
 222.333007812 -432.912109375 249.333007812 -380.920898438 249.333007812 -263.16015625 c 10
 249.333007812 -222.16015625 l 1
EndSplineSet
EndChar

StartChar: paap
Encoding: 37 112 20
Width: 683
VWidth: 1024
Flags: HW
HStem: 370.293 71.4629<154.079 318.54 387.147 465.609>
VStem: 318.595 68.5586<448.883 572.255>
LayerCount: 3
Fore
SplineSet
537.768554688 736.084960938 m 1
 552.25 720.130859375 562.306640625 712.014648438 572.276367188 698.119140625 c 0
 662.359375 571.899414062 654.03125 406.178710938 387.090820312 376.953125 c 1
 387.090820312 376.029296875 l 1
 386.883789062 124.53515625 l 1
 318.793945312 124.53515625 l 1
 318.793945312 370.29296875 l 1
 206.145507812 359.66796875 50.06640625 379.059570312 67.3154296875 508.163085938 c 0
 72.8251953125 549.399414062 98.3251953125 589.064453125 129.915039062 616.137695312 c 0
 221.061523438 694.25390625 345.0546875 684.232421875 375.907226562 572.263671875 c 0
 383.462890625 544.841796875 387.153320312 504.936523438 387.153320312 448.8828125 c 2
 387.147460938 442.375 l 1
 453.215820312 450.427734375 499.03125 464.282226562 525.138671875 485.365234375 c 0
 574.973632812 532.170898438 561.467773438 587.16796875 520.432617188 640.137695312 c 0
 507.067382812 657.390625 486.956054688 673.813476562 474.64453125 686.935546875 c 1
 474.64453125 686.935546875 524.973632812 726.080078125 537.768554688 736.084960938 c 1
318.594726562 485.16796875 m 0
 318.594726562 648.791992188 195.987304688 594.064453125 166.034179688 559.575195312 c 0
 89.9482421875 471.958984375 163.084960938 419.981445312 318.540039062 441.755859375 c 1
 318.594726562 454.384765625 318.594726562 480.5390625 318.594726562 485.16796875 c 0
EndSplineSet
EndChar

StartChar: raar
Encoding: 39 114 21
Width: 660
VWidth: 1024
Flags: HW
VStem: 523.31 65<388.588 553.639>
LayerCount: 3
Fore
SplineSet
452.8203125 345.13671875 m 1
 448.904985357 343.634377096 18.6039182618 183.850698792 70.3583984375 517.157226562 c 0
 74.2880859375 542.463867188 83.7275390625 575.88671875 88.8486328125 591.728515625 c 1
 97.8388671875 587.53125 140.885742188 571.119140625 155.939453125 564.501953125 c 1
 147.497070312 546.4765625 141.705078125 531.994140625 137.471679688 514.8515625 c 0
 122.412216542 453.863238329 110.13630042 345.32041428 303.734375 373.276367188 c 1
 282.840684371 408.631355151 244.480085061 473.542746392 253.314453125 540.96484375 c 0
 256.06640625 561.962890625 263.124023438 582.994140625 274.483398438 600.868164062 c 0
 294.960680628 633.09186477 367.841331423 703.758552553 473.666015625 661.569335938 c 0
 588.309570312 615.862159436 588.309570312 515.513026563 588.309570312 391.84765625 c 2
 588.309570312 171.484375 l 1
 523.309570312 171.484375 l 1
 523.310546875 388.587890625 l 2
 523.311792854 495.85663056 523.313217291 618.489192497 396.528320312 605.3359375 c 0
 376.043945312 603.2109375 354.168945312 595.701171875 339.733398438 581.01171875 c 0
 326.698242188 567.748046875 320.703125 547.836914062 318.666015625 529.3515625 c 0
 313.237759522 480.06503738 369.553959635 389.739777975 370.375976562 388.484375 c 1
 383.525390625 391.860351562 409.986328125 399.41796875 433.122070312 406.868164062 c 1
 435.095703125 399.296875 448.456054688 356.78515625 452.8203125 345.13671875 c 1
EndSplineSet
EndChar

StartChar: saas
Encoding: 40 115 22
Width: 648
VWidth: 1024
Flags: HW
HStem: 525.16 65.7324<340.748 497.178>
VStem: 272.079 68.6689<157.66 354.937 406.087 518.794>
LayerCount: 3
Fore
SplineSet
340.62109375 725.612304688 m 1
 340.748046875 590.892578125 l 1
 439.371482414 593.861608252 516.469971965 589.859858194 558.673828125 536.821289062 c 0
 588.918222167 498.810601913 630.84100087 364.591348821 477.564453125 318.926757812 c 0
 450.698242188 310.923828125 420.254882812 310.672851562 393.466796875 318.931640625 c 0
 373.09765625 325.211914062 352.052734375 337.229492188 340.622070312 354.936523438 c 1
 340.622070312 157.407226562 l 1
 272.069335938 157.407226562 l 1
 272.069335938 157.407226562 271.536132812 506.6484375 271.536132812 518.793945312 c 1
 233.159179688 516.737304688 140.6640625 504.489257812 65.8671875 494.264648438 c 0
 65.8671875 490.946289062 56 557.028320312 56 561.327148438 c 1
 211.3515625 580.108398438 221.578125 582.157226562 272.079101562 584.755859375 c 1
 272.079101562 725.612304688 l 1
 340.62109375 725.612304688 l 1
503.375976562 498.75390625 m 0
 486.249068755 518.303214667 461.696885293 533.464160486 340.620117188 525.16015625 c 1
 340.620117188 457.079101562 l 2
 340.625 431.286132812 348.211914062 418.252929688 360.98046875 406.083007812 c 0
 407.399213233 361.841326984 523.815429688 377.198144369 523.815429688 448.1640625 c 0
 523.815429688 469.022460938 515.361328125 485.073242188 503.375976562 498.75390625 c 0
EndSplineSet
EndChar

StartChar: taat
Encoding: 41 116 23
Width: 752
VWidth: 1024
Flags: HW
HStem: 390.077 72.6094<437.67 585.372> 461.104 65.0098<184.967 314.854> 619.839 69.9883<463.632 525.781 526.952 533.636>
VStem: 370.113 67.5566<545.554 594.789> 630.166 66.2393<500.204 591.893>
LayerCount: 3
Fore
SplineSet
526.951171875 689.837890625 m 6xb8
 526.952148438 689.837890625 l 5
 616.256835938 689.837890625 696.405273438 622.596679688 696.405273438 539.345703125 c 0
 696.405273438 481.362304688 656.946289062 445.719726562 637.98046875 431.9375 c 0
 585.56640625 393.84765625 512.125 390.077148438 485.029296875 390.077148438 c 0
 465.442382812 390.077148438 453.564453125 391.525390625 437.669921875 393.462890625 c 1
 437.669921875 138.172851562 l 1
 370.11328125 138.172851562 l 1
 370.11328125 412.611328125 l 1
 351.796875 420.650390625 344.315429688 424.528320312 327.462890625 433.266601562 c 0
 302.287109375 446.319335938 273.770507812 461.104492188 246.219726562 461.104492188 c 0x78
 190.7578125 461.104492188 141.689453125 410.5078125 122.228515625 354.8203125 c 1
 99 362 77 368 60 373.735351562 c 1
 87.626953125 455.6875 159.733398438 526.114257812 245.9296875 526.114257812 c 0
 290.431640625 526.114257812 322.668945312 509.474609375 370.11328125 484.985351562 c 1
 370.10546875 519.578125 l 2
 369.999023438 521.76953125 369.946289062 543.369140625 369.946289062 545.553710938 c 0
 369.946289062 624.56640625 436.897460938 688.904296875 525.065429688 689.827148438 c 4
 525.6953125 689.827148438 526.323242188 689.837890625 526.951171875 689.837890625 c 6xb8
533.635742188 619.89453125 m 1
 525.78125 619.838867188 l 2
 479.28125 619.505859375 440.259765625 594.311523438 437.682617188 549.356445312 c 2
 437.669921875 540.067382812 l 1
 437.669921875 467.209960938 l 1
 452.37109375 464.721679688 465.337890625 462.686523438 485.763671875 462.686523438 c 0xb8
 502.262695312 462.686523438 518.90234375 464.239257812 535.301757812 467.28515625 c 0
 626.318359375 484.55859375 630.166015625 536.279296875 630.166015625 547.515625 c 0
 630.166015625 591.16015625 586.380859375 616.357421875 533.635742188 619.624023438 c 1
 533.635742188 619.89453125 l 1
EndSplineSet
EndChar

StartChar: u_saau
Encoding: 42 117 24
Width: 929
VWidth: 1024
Flags: HW
HStem: -274.953 70<181.916 252.333> 213 52<330.383 374.265> 231 52<246.383 290.265 414.383 458.265> 278 52<172.383 216.265 488.383 532.265> 352 52<125.383 169.265 535.383 579.265> 436 52<107.383 151.265 553.383 597.265> 520 52<125.383 169.265 535.383 579.265> 594 52<172.383 216.265 488.383 532.265> 641 52<246.383 290.265 414.383 458.265> 659 52<330.383 374.265>
VStem: 12.5508 64.7822<-209.651 -91.5914> 107 52<436.383 480.265> 125 52<352.383 396.265 520.383 564.265> 172 52<278.383 322.265 594.383 638.265> 246 52<231.383 275.265 641.383 685.265> 330 52<213.383 257.265 659.383 703.265> 388.333 70<-90.8346 144.047> 414 52<231.383 275.265 641.383 685.265> 488 52<278.383 322.265 594.383 638.265> 535 52<352.383 396.265 520.383 564.265> 553 52<436.383 480.265>
LayerCount: 3
Fore
SplineSet
272 693 m 4x8ea3
 279.333007812 693 285.5 690.5 290.5 685.5 c 4
 295.5 680.5 298 674.333007812 298 667 c 4
 298 660.333007812 295.5 654.333007812 290.5 649 c 4
 285.5 643.666992188 279.333007812 641 272 641 c 4
 265.333007812 641 259.333007812 643.666992188 254 649 c 4
 248.666992188 654.333007812 246 660.333007812 246 667 c 4
 246 674.333007812 248.666992188 680.5 254 685.5 c 4
 259.333007812 690.5 265.333007812 693 272 693 c 4x8ea3
440 693 m 4
 447.333007812 693 453.5 690.5 458.5 685.5 c 4
 463.5 680.5 466 674.333007812 466 667 c 4
 466 660.333007812 463.5 654.333007812 458.5 649 c 4
 453.5 643.666992188 447.333007812 641 440 641 c 4
 433.333007812 641 427.333007812 643.666992188 422 649 c 4
 416.666992188 654.333007812 414 660.333007812 414 667 c 4x8ea340
 414 674.333007812 416.666992188 680.5 422 685.5 c 4
 427.333007812 690.5 433.333007812 693 440 693 c 4
272 283 m 4xae23
 279.333007812 283 285.5 280.5 290.5 275.5 c 4
 295.5 270.5 298 264.333007812 298 257 c 4
 298 250.333007812 295.5 244.333007812 290.5 239 c 4
 285.5 233.666992188 279.333007812 231 272 231 c 4
 265.333007812 231 259.333007812 233.666992188 254 239 c 4
 248.666992188 244.333007812 246 250.333007812 246 257 c 4
 246 264.333007812 248.666992188 270.5 254 275.5 c 4
 259.333007812 280.5 265.333007812 283 272 283 c 4xae23
440 283 m 4
 447.333007812 283 453.5 280.5 458.5 275.5 c 4
 463.5 270.5 466 264.333007812 466 257 c 4
 466 250.333007812 463.5 244.333007812 458.5 239 c 4
 453.5 233.666992188 447.333007812 231 440 231 c 4
 433.333007812 231 427.333007812 233.666992188 422 239 c 4
 416.666992188 244.333007812 414 250.333007812 414 257 c 4xae2340
 414 264.333007812 416.666992188 270.5 422 275.5 c 4
 427.333007812 280.5 433.333007812 283 440 283 c 4
356 711 m 4x8e63
 363.333007812 711 369.5 708.5 374.5 703.5 c 4
 379.5 698.5 382 692.333007812 382 685 c 4
 382 678.333007812 379.5 672.333007812 374.5 667 c 4
 369.5 661.666992188 363.333007812 659 356 659 c 4
 349.333007812 659 343.333007812 661.666992188 338 667 c 4
 332.666992188 672.333007812 330 678.333007812 330 685 c 4
 330 692.333007812 332.666992188 698.5 338 703.5 c 4
 343.333007812 708.5 349.333007812 711 356 711 c 4x8e63
356 265 m 4xce23
 363.333007812 265 369.5 262.5 374.5 257.5 c 4
 379.5 252.5 382 246.333007812 382 239 c 4
 382 232.333007812 379.5 226.333007812 374.5 221 c 4
 369.5 215.666992188 363.333007812 213 356 213 c 4
 349.333007812 213 343.333007812 215.666992188 338 221 c 4
 332.666992188 226.333007812 330 232.333007812 330 239 c 4
 330 246.333007812 332.666992188 252.5 338 257.5 c 4
 343.333007812 262.5 349.333007812 265 356 265 c 4xce23
107 462 m 4x8e33
 107 469.333007812 109.666992188 475.5 115 480.5 c 4
 120.333007812 485.5 126.333007812 488 133 488 c 4
 140.333007812 488 146.5 485.5 151.5 480.5 c 4
 156.5 475.5 159 469.333007812 159 462 c 4
 159 455.333007812 156.5 449.333007812 151.5 444 c 4
 146.5 438.666992188 140.333007812 436 133 436 c 4
 126.333007812 436 120.333007812 438.666992188 115 444 c 4
 109.666992188 449.333007812 107 455.333007812 107 462 c 4x8e33
553 462 m 4x8e2308
 553 469.333007812 555.666992188 475.5 561 480.5 c 4
 566.333007812 485.5 572.333007812 488 579 488 c 4
 586.333007812 488 592.5 485.5 597.5 480.5 c 4
 602.5 475.5 605 469.333007812 605 462 c 4
 605 455.333007812 602.5 449.333007812 597.5 444 c 4
 592.5 438.666992188 586.333007812 436 579 436 c 4
 572.333007812 436 566.333007812 438.666992188 561 444 c 4
 555.666992188 449.333007812 553 455.333007812 553 462 c 4x8e2308
172 304 m 4x9e27
 172 311.333007812 174.666992188 317.5 180 322.5 c 4
 185.333007812 327.5 191.333007812 330 198 330 c 4
 205.333007812 330 211.5 327.5 216.5 322.5 c 4
 221.5 317.5 224 311.333007812 224 304 c 4
 224 297.333007812 221.5 291.333007812 216.5 286 c 4
 211.5 280.666992188 205.333007812 278 198 278 c 4
 191.333007812 278 185.333007812 280.666992188 180 286 c 4
 174.666992188 291.333007812 172 297.333007812 172 304 c 4x9e27
172 620 m 4
 172 627.333007812 174.666992188 633.5 180 638.5 c 4
 185.333007812 643.5 191.333007812 646 198 646 c 4
 205.333007812 646 211.5 643.5 216.5 638.5 c 4
 221.5 633.5 224 627.333007812 224 620 c 4
 224 613.333007812 221.5 607.333007812 216.5 602 c 4
 211.5 596.666992188 205.333007812 594 198 594 c 4x8f27
 191.333007812 594 185.333007812 596.666992188 180 602 c 4
 174.666992188 607.333007812 172 613.333007812 172 620 c 4
488 304 m 4x9e2320
 488 311.333007812 490.666992188 317.5 496 322.5 c 4
 501.333007812 327.5 507.333007812 330 514 330 c 4
 521.333007812 330 527.5 327.5 532.5 322.5 c 4
 537.5 317.5 540 311.333007812 540 304 c 4
 540 297.333007812 537.5 291.333007812 532.5 286 c 4
 527.5 280.666992188 521.333007812 278 514 278 c 4
 507.333007812 278 501.333007812 280.666992188 496 286 c 4
 490.666992188 291.333007812 488 297.333007812 488 304 c 4x9e2320
488 620 m 4
 488 627.333007812 490.666992188 633.5 496 638.5 c 4
 501.333007812 643.5 507.333007812 646 514 646 c 4
 521.333007812 646 527.5 643.5 532.5 638.5 c 4
 537.5 633.5 540 627.333007812 540 620 c 4
 540 613.333007812 537.5 607.333007812 532.5 602 c 4
 527.5 596.666992188 521.333007812 594 514 594 c 4x8f2320
 507.333007812 594 501.333007812 596.666992188 496 602 c 4
 490.666992188 607.333007812 488 613.333007812 488 620 c 4
125 378 m 4x8e2b
 125 385.333007812 127.666992188 391.5 133 396.5 c 4
 138.333007812 401.5 144.333007812 404 151 404 c 4
 158.333007812 404 164.5 401.5 169.5 396.5 c 4
 174.5 391.5 177 385.333007812 177 378 c 4
 177 371.333007812 174.5 365.333007812 169.5 360 c 4
 164.5 354.666992188 158.333007812 352 151 352 c 4
 144.333007812 352 138.333007812 354.666992188 133 360 c 4
 127.666992188 365.333007812 125 371.333007812 125 378 c 4x8e2b
125 546 m 4
 125 553.333007812 127.666992188 559.5 133 564.5 c 4
 138.333007812 569.5 144.333007812 572 151 572 c 4
 158.333007812 572 164.5 569.5 169.5 564.5 c 4
 174.5 559.5 177 553.333007812 177 546 c 4
 177 539.333007812 174.5 533.333007812 169.5 528 c 4
 164.5 522.666992188 158.333007812 520 151 520 c 4
 144.333007812 520 138.333007812 522.666992188 133 528 c 4
 127.666992188 533.333007812 125 539.333007812 125 546 c 4
535 378 m 4x8e2310
 535 385.333007812 537.666992188 391.5 543 396.5 c 4
 548.333007812 401.5 554.333007812 404 561 404 c 4
 568.333007812 404 574.5 401.5 579.5 396.5 c 4
 584.5 391.5 587 385.333007812 587 378 c 4
 587 371.333007812 584.5 365.333007812 579.5 360 c 4
 574.5 354.666992188 568.333007812 352 561 352 c 4
 554.333007812 352 548.333007812 354.666992188 543 360 c 4
 537.666992188 365.333007812 535 371.333007812 535 378 c 4x8e2310
535 546 m 4
 535 553.333007812 537.666992188 559.5 543 564.5 c 4
 548.333007812 569.5 554.333007812 572 561 572 c 4
 568.333007812 572 574.5 569.5 579.5 564.5 c 4
 584.5 559.5 587 553.333007812 587 546 c 4
 587 539.333007812 584.5 533.333007812 579.5 528 c 4
 574.5 522.666992188 568.333007812 520 561 520 c 4
 554.333007812 520 548.333007812 522.666992188 543 528 c 4
 537.666992188 533.333007812 535 539.333007812 535 546 c 4
388.333007812 144.123046875 m 1x8e2380
 458.333007812 144.046875 l 1
 458.333007812 34.7607421875 457.333007812 -48.953125 469.333007812 -97.953125 c 1
 510.333007812 -69.953125 569.333007812 -32.953125 639.333007812 -41.6279296875 c 0
 694.170898438 -48.423828125 754.051757812 -91.0732421875 760.333007812 -189 c 0
 765.333007812 -266.953125 712.333007812 -348.953125 609.602539062 -354.71875 c 0
 547.390625 -358.209960938 471.333007812 -338.953125 427.333007812 -195.953125 c 1
 379.333007812 -221.953125 359.108398438 -230.953125 316.108398438 -250.953125 c 1
 315.333007812 -530 l 1
 252.557617188 -529.216796875 l 1
 252.333007812 -274.953125 l 1
 213.333007812 -284.953125 182.333007812 -299.953125 128.333007812 -292 c 0
 61.689453125 -282.184570312 10.3330078125 -216.953125 12.55078125 -147 c 0
 13.9580078125 -102.603515625 32.23046875 -45.83984375 97.7138671875 -14.95703125 c 0
 161.333007812 15.046875 225.541992188 2.4736328125 270.333007812 -44.3330078125 c 0
 306.333007812 -81.953125 314.924804688 -155.159179688 316.333007812 -180.953125 c 1
 351.333007812 -163.953125 374.333007812 -151.953125 406.333007812 -134.953125 c 1
 396.333007812 -92.953125 388.333007812 -5.90625 388.333007812 144.123046875 c 1x8e2380
77.3330078125 -155 m 0
 78.48046875 -200.94921875 106.211914062 -225.044921875 142.077148438 -228.48046875 c 0
 178.333007812 -231.953125 217.333007812 -219.953125 252.333007812 -204.953125 c 1
 252.478515625 -187.684570312 251.663085938 -129.556640625 231.326171875 -100.953125 c 0
 199.333007812 -55.953125 157.461914062 -65.1064453125 140.333007812 -69 c 0
 91.93359375 -80.001953125 76.3330078125 -114.953125 77.3330078125 -155 c 0
483.333007812 -165.953125 m 1
 517.958984375 -270.034179688 555.333007812 -294.953125 622.333007812 -282.563476562 c 0
 670.671875 -273.625 695.515625 -242.081054688 695.411132812 -181.953125 c 0
 695.333007812 -136.953125 656.333007812 -110.953125 625.333007812 -109.953125 c 0
 571.602539062 -108.219726562 517.333007812 -134.953125 483.333007812 -165.953125 c 1
EndSplineSet
EndChar

StartChar: waau
Encoding: 44 119 25
Width: 645
VWidth: 1024
Flags: HW
VStem: 296.64 64.9883<447.233 527.82 580.268 582.652> 507.226 64.9902<439.673 579.532>
LayerCount: 3
Fore
SplineSet
316.737304688 642.8984375 m 5
 388.649790082 693.392384079 510.568903368 690.416105193 557.274414062 585.84765625 c 4
 572.082212505 552.695635427 572.132382266 511.462362666 572.215820312 442.88671875 c 6
 572.215820312 183.388671875 l 5
 507.225585938 183.388671875 l 5
 507.225585938 439.672851562 l 6
 507.10481269 500.720176432 505.840772102 541.643970174 497.934570312 559.34375 c 4
 469.040441891 624.041472334 397.160154854 615.237482659 361.633789062 594.5078125 c 5
 361.82421875 572.075195312 361.838867188 549.641601562 361.627929688 527.208984375 c 4
 361.404296875 503.487304688 361.391601562 475.383789062 350.180664062 446.501953125 c 4
 337.3125 413.350585938 312.181640625 387.7578125 282.639648438 371.724609375 c 4
 133.241876705 290.643627697 -3.66092226026 474.675097582 97.0478515625 590.482421875 c 4
 114.342773438 610.370117188 136.2578125 624.03125 158.932617188 632.87109375 c 4
 222.262118908 657.559702043 295.720188491 646.780189437 316.737304688 642.8984375 c 5
296.618164062 580.267578125 m 5
 226.555475963 591.011928124 138.595530361 578.637424887 128.766601562 509.48046875 c 4
 126.756835938 495.3359375 128.810546875 480.07421875 134.489257812 466.564453125 c 4
 165.267051517 393.342570348 266.093095528 409.466107202 289.594726562 470.017578125 c 4
 295.336914062 484.809570312 296.421875 504.6953125 296.639648438 527.8203125 c 4
 296.8046875 545.301757812 296.702148438 562.78515625 296.618164062 580.267578125 c 5
EndSplineSet
EndChar

StartChar: ngaang
Encoding: 45 120 26
Width: 828
VWidth: 1024
Flags: HW
HStem: 355.504 65.002<445.998 552.845>
VStem: 342.656 67.0908<456.56 552.127 628.756 652.104> 699 64<388.704 453.339>
LayerCount: 3
Fore
SplineSet
763 158.756835938 m 1
 699 158.63671875 l 1
 698.623046875 398.458007812 l 0
 698.623046875 441.764648438 692.548828125 449.0078125 688.380859375 453.553710938 c 0
 684.075195312 458.250976562 677.688476562 462 670.31640625 462 c 0
 656.297560525 462 645.853053141 451.101466251 618.215820312 416.900390625 c 0
 601.430664062 396.178710938 568.482421875 355.50390625 502.662109375 355.50390625 c 0
 443.971679688 355.50390625 387.563476562 391.0546875 360.115234375 444.840820312 c 0
 349.6171875 465.412109375 343.0078125 516.970703125 342.65625 548.915039062 c 2
 342.506835938 562.53125 l 1
 330.708984375 555.133789062 l 2
 245.648706275 501.797010203 176.475453599 506.787624963 123.170898438 534.024414062 c 0
 95.8984375 547.959960938 70.6328125 566.872070312 51 590.013671875 c 1
 102.146484375 630.099609375 l 1
 115.2734375 614.4921875 131.493164062 599.966796875 151.427734375 592.434570312 c 0
 172.747070312 584.401367188 190.989257812 580.838867188 208.168945312 580.838867188 c 0
 271.8125 580.838867188 330.907226562 630.063476562 340.999023438 652.103515625 c 1
 409.880859375 652.159179688 l 1
 409.9609375 559.61328125 l 2
 409.756835938 556.1796875 409.747070312 554.36328125 409.747070312 552.126953125 c 0
 409.747070312 531.337890625 412.361328125 489.184570312 420.290039062 473.6484375 c 0
 437.06640625 440.7734375 471.235351562 420.505859375 502.455078125 420.505859375 c 0
 583.941778256 420.505859375 638.617783007 599.011512811 721.837890625 519.404296875 c 0
 763.123046875 479.912109375 763.490234375 420.247070312 763.490234375 388.704101562 c 0
 763 158.756835938 l 1
EndSplineSet
EndChar

StartChar: yaai
Encoding: 46 121 27
Width: 679
VWidth: 1024
Flags: HW
HStem: 309.176 66.376<379.797 492.72> 493.314 67.6445<62.168 243.338>
VStem: 290 63.4922<402.651 517.742> 541.69 65<418.696 551.756>
LayerCount: 3
Fore
SplineSet
562.139648438 622.158203125 m 1
 583.655273438 594.631835938 606.690429688 544.521484375 606.690429688 494.271484375 c 2
 606.690429688 123.692382812 l 1
 541.690429688 123.692382812 l 1
 541.690429688 375.486328125 l 1
 528.525390625 360.32421875 l 2
 511.0625 340.211914062 480.18359375 320.041015625 455.982421875 313.694335938 c 0
 444.620117188 310.713867188 433.147589375 309.505923244 421.6875 309.17578125 c 0
 364.973556406 307.541967251 288.37962693 360.755488099 290 448 c 0
 290.817905018 492.037836361 311.333353271 519.214384409 320 532 c 2
 324.02734375 537.94140625 l 1
 298.701171875 529.372070312 l 2
 222.760742188 503.673828125 141.829101562 498.3984375 62.16796875 493.314453125 c 1
 62 560.958984375 l 1
 178.846679688 561.880859375 307.555664062 585.543945312 425.49609375 616.376953125 c 1
 431.138671875 553.109375 l 1
 420.3046875 549.301757812 402.62109375 540.71484375 386.322265625 527.702148438 c 0
 353.4921875 501.493164062 353.4921875 477.858398438 353.4921875 468.665039062 c 0
 353.4921875 452.353515625 356.756835938 431.40234375 363.573242188 418.12890625 c 0
 370.86328125 403.934570312 384.501953125 389.805664062 400.8515625 382.466796875 c 0
 411.4375 377.713867188 422.921875 375.551757812 434.625 375.551757812 c 0
 468.630859375 375.551757812 499.186523438 393.431640625 514.8359375 412.151367188 c 0
 530.928710938 431.401367188 541.418945312 457.250976562 541.418945312 482.763671875 c 0
 541.418945312 516.103515625 524.186523438 547.212890625 507.91796875 571.686523438 c 1
 562.139648438 622.158203125 l 1
EndSplineSet
EndChar

StartChar: ka
Encoding: 48 57344 28
Width: 680
VWidth: 1024
GlyphClass: 1
Flags: HW
HStem: 502 64.999<210.386 365.329>
VStem: 78.376 68<319.693 497.496 630.232 684.77> 545.376 65<349.957 501>
AnchorPoint: "u_sait" 726.702 331 basechar 0
AnchorPoint: "saau_maam" 260.209 -24.3877 basechar 0
AnchorPoint: "pangnau" 839.746 364.612 basechar 0
AnchorPoint: "saau" 127.076 370 basechar 0
LayerCount: 3
Fore
SplineSet
451.375976562 747 m 1
 526.375976562 727 l 1
 514.375976562 680 482.452148438 600.85546875 455.375976562 570.666992188 c 0
 397.375976562 506 344.754882812 502.641601562 314.375976562 502 c 0
 278.337890625 501.239257812 243.228515625 505.25390625 210.375976562 517.416992188 c 0
 187.857421875 525.75390625 167.9296875 537.918945312 146.375976562 555 c 1
 146.375976562 497.49609375 l 17
 146.375976562 425 137.375976562 348.508789062 182.375976562 296.508789062 c 1
 225.375976562 244.508789062 286.904296875 220.100585938 379.375976562 234.896484375 c 0
 429.375976562 242.896484375 473.0546875 264.01171875 510.375976562 323.188476562 c 0
 537.375976562 366 548.375976562 431 545.375976562 501 c 1
 610.375976562 505 l 1
 612.375976562 455 605.788085938 357.158203125 573.375976562 302 c 0
 516.376953125 205 447.375976562 184.896484375 386.375976562 174 c 0
 297.489257812 158.122070312 222.375976562 175.508789062 158.375976562 223.860351562 c 1
 84.3759765625 281.508789062 78.3759765625 379.612304688 78.3759765625 481.612304688 c 1
 78.3759765625 605.383789062 78.0107421875 682.380859375 78 684.76953125 c 1
 143.375976562 684.883789062 l 1
 168.375976562 599 224.4296875 566.999023438 297.418945312 566.999023438 c 0
 391.375976562 566.999023438 435.375976562 667 451.375976562 747 c 1
EndSplineSet
Ligature2: "'liga' Standard Ligatures in Latin lookup 1-1" kaak a_saau
LCarets2: 1 0
EndChar

StartChar: ki
Encoding: 49 57345 29
Width: 843
VWidth: 1024
Flags: HW
HStem: 168.908 67.0477<187.36 333.197> 473 65<504.115 654.034> 742 73.0449<299.37 394.485>
VStem: 363 66<266.994 375 608.786 655.925>
AnchorPoint: "u_sait" 583 375 basechar 0
AnchorPoint: "pangnau" 887 362 basechar 0
AnchorPoint: "saau_maam" 484 46 basechar 0
AnchorPoint: "saau" 400.6 370 basechar 0
LayerCount: 3
Fore
SplineSet
363 375 m 9
 363.282226562 655.924804688 l 1
 430.217773438 656.038085938 l 1
 444.23828125 587.993164062 511.057363265 537.2698302 584.04296875 538 c 0
 684 539 719 634 737 712 c 1
 812 688 l 1
 802 650 766 569 735.319335938 534.052734375 c 0
 705.673331018 500.284012597 659 474 594 473 c 0
 536.667818464 472.117966438 476 487 429 526.153320312 c 1
 429 349.16796875 l 2
 429 206 348 172 274.99999802 168.908389341 c 0
 152.283554232 163.711246116 101 230 74 289 c 0
 33.8302398177 376.778364843 50.2462652086 484.794764991 72 555 c 0
 94 626 130.099539034 666.627127888 147.182617188 688.3203125 c 0
 227.151430521 789.869823377 336 810 393.688476562 815.044921875 c 1
 402 742 l 1
 293 741 220.923495455 678.017013176 196.779296875 646.286132812 c 0
 171.456378421 613.006150738 153.203865029 576.738086831 141.391937469 539.999995966 c 0
 115.477197233 459.398580433 111.029850526 371.768017504 140 313 c 0
 175 242 227.392174983 235.956054688 275.299804688 235.956054688 c 0
 350.621272648 235.956054688 363 296 363 375 c 9
EndSplineSet
LCarets2: 1 0
Ligature2: "'liga' Standard Ligatures in Latin lookup 1-1" kaak i_saau
EndChar

StartChar: ku
Encoding: 50 57346 30
Width: 871
VWidth: 1024
Flags: W
HStem: 151.256 65.0117<518.769 664.305> 368.883 64.916<465.175 679.029> 503.596 65<531.764 689.771> 687.111 30.0781G<397.684 472.354 769.087 848.084>
VStem: 398.115 64.9785<415.225 557.227 635.703 687> 705.195 65.2129<255.173 342.679> 775.088 72.9961<670.013 720.011>
AnchorPoint: "u_sait" 907 360 basechar 0
AnchorPoint: "pangnau" 1023.63 335.404 basechar 0
AnchorPoint: "saau_maam" 520.63 21.4043 basechar 0
AnchorPoint: "saau" 434.63 345.404 basechar 0
LayerCount: 3
Fore
SplineSet
775.087890625 737.189453125 m 1
 848.083984375 718.189453125 l 1
 839.083984375 676.189453125 799.084960938 594.59375 767.71875 565.126953125 c 0
 741.815429688 540.791992188 697.083984375 505.595703125 617.083984375 503.595703125 c 0
 542.31640625 501.7265625 489.084960938 536.594726562 462.712890625 557.2265625 c 1
 463.048828125 460.0078125 463.048828125 460.0078125 463.08203125 424.8984375 c 2
 463.09375 415.224609375 l 1
 507.135742188 426.591796875 544.624023438 433.798828125 589.138671875 433.798828125 c 0
 724.831054688 433.798828125 770.408203125 361.793945312 770.408203125 303.19140625 c 0
 770.408203125 221.119140625 688.306640625 151.255859375 591.220703125 151.255859375 c 0
 510.958007812 151.255859375 421.422851562 200.422851562 397.76953125 308.802734375 c 2
 395.759765625 318.265625 l 1
 395.399414062 317.950195312 395.048828125 317.623046875 394.671875 317.330078125 c 0
 378.809570312 307.396484375 354.1796875 290.30078125 326.486328125 263.556640625 c 0
 300.252929688 238.221679688 252.596679688 190.373046875 224.30078125 156.978515625 c 1
 201.9140625 175.751953125 149.787109375 222.629882812 116.212890625 257.955078125 c 0
 86.5283203125 289.186523438 44.8671875 339.163085938 24 358.40625 c 1
 78.8125 408.634765625 l 1
 92.5439453125 385.327148438 120.158203125 350.100585938 148.0078125 321.62890625 c 0
 168.1640625 301.022460938 205.614257812 261.850585938 221.888671875 251.9453125 c 1
 247.419921875 281.555664062 276.11328125 307.22265625 301.923828125 328.689453125 c 0
 326.662109375 349.263671875 371.823242188 378.489257812 394.998046875 388.044921875 c 2
 397.98828125 389.18359375 l 2
 398.028320312 390.249023438 398.077148438 391.069335938 398.115234375 392.15625 c 0
 397.877929688 646.342773438 397.877929688 646.34375 397.68359375 687 c 1
 463.619140625 687.111328125 l 1
 481.087890625 621.594726562 523.087890625 568.595703125 620.087890625 568.595703125 c 0
 716.086914062 568.595703125 763.086914062 670.189453125 775.087890625 737.189453125 c 1
583.857421875 368.8828125 m 1
 549.3828125 368.107421875 508.63671875 361.389648438 463.041015625 347.265625 c 1
 462.725585938 242.670898438 547.7578125 216.267578125 590.884765625 216.267578125 c 0
 650.96484375 216.267578125 705.197265625 256.693359375 705.197265625 303.291015625 c 1
 705.1953125 303.291015625 l 1
 705.1953125 343.534179688 659.703125 370.58984375 583.857421875 368.8828125 c 1
EndSplineSet
Validated: 33
LCarets2: 1 0
Ligature2: "'liga' Standard Ligatures in Latin lookup 1-1" kaak u_saau
EndChar

StartChar: ko
Encoding: 51 57347 31
Width: 869
VWidth: 1024
Flags: HW
HStem: 155.806 58.9443<226.048 360.889> 407.617 65.0449<224.954 391.956> 507.363 61.3789<528.246 680.046>
VStem: 115.97 65.1367<257.516 368.091> 393.526 64.2949<246.937 351.742 637.252 687> 761.001 73<667.622 723.572>
AnchorPoint: "u_sait" 716 359 basechar 0
AnchorPoint: "pangnau" 872.822 369.742 basechar 0
AnchorPoint: "saau_maam" 391.822 23.7422 basechar 0
AnchorPoint: "saau" 431.971 347.742 basechar 0
LayerCount: 3
Fore
SplineSet
761.000976562 740.75 m 1
 834.000976562 721.75 l 1
 823.000976562 666.75 795.545898438 605.768554688 760.000976562 568.75 c 0
 719.782226562 526.86328125 676.782226562 506.36328125 605.782226562 507.36328125 c 0
 530.762695312 508.419921875 484.229492188 535.708007812 458.18359375 557.228515625 c 1
 457.821289062 428.680664062 l 1
 490.000976562 410.75 551.000976562 393.75 626.000976562 331.75 c 1
 560.000976562 268.75 l 1
 524.000976562 312.75 485.000976562 334.75 456.969726562 351.7421875 c 1
 456.969726562 297.25390625 456.958984375 237.54296875 413.177734375 196.7421875 c 0
 369.250976562 155.805664062 311.23828125 155.805664062 291.969726562 155.805664062 c 0
 194.65234375 155.805664062 115.969726562 228.901367188 115.969726562 316.3203125 c 0
 115.969726562 415.215820312 209.609375 472.662109375 310.879882812 472.662109375 c 0
 347.872070312 472.662109375 372.131835938 465.49609375 393.526367188 459.17578125 c 1
 393.151367188 687 l 1
 459.0859375 687.11328125 l 1
 473.10546875 619.069335938 527.969726562 568.7421875 614.969726562 568.7421875 c 0
 703.975585938 568.7421875 750.000976562 665.75 761.000976562 740.75 c 1
288.981445312 214.75 m 0
 365.901367188 214.75 383.584960938 261.806640625 386.290039062 269.7421875 c 0
 394.470703125 293.7421875 393.969726562 324.219726562 393.969726562 389.0234375 c 1
 350.721679688 407.6171875 326.17578125 407.6171875 310.921875 407.6171875 c 0
 273.897460938 408.124023438 181.106445312 391.670898438 181.106445312 315.619140625 c 0
 181.106445312 264.086914062 230.033203125 214.75 288.981445312 214.75 c 0
EndSplineSet
LCarets2: 1 0
Ligature2: "'liga' Standard Ligatures in Latin lookup 1-1" kaak o_saau
EndChar

StartChar: ga
Encoding: 52 57348 32
Width: 850
VWidth: 1024
Flags: W
HStem: 787.568 4.43164G<58 138.144 430.159 440.222>
VStem: 70.5078 70.9141<598.4 786.61> 422.375 65<263.461 523.304>
AnchorPoint: "u_sait" 894 349 basechar 0
AnchorPoint: "pangnau" 1025.38 459 basechar 0
AnchorPoint: "saau_maam" 410.375 46 basechar 0
AnchorPoint: "saau" 458.375 370 basechar 0
LayerCount: 3
Fore
SplineSet
436.375 807.568359375 m 1
 444.068359375 805.64453125 494.393554688 790.51953125 552.375 764.564453125 c 0
 614.971679688 736.54296875 687.663085938 690.455078125 734.95703125 621.568359375 c 0
 795.374023438 533.568359375 808.809570312 395.483398438 771.375 301.568359375 c 0
 725.536132812 186.568359375 579.337890625 152.474609375 492.375 194.431640625 c 0
 451.456054688 214.173828125 422.375 251.971679688 422.375 309.568359375 c 2
 422.375 333.345703125 l 1
 422.552734375 410.568359375 l 2
 422.552734375 444.770507812 419.228515625 488.934570312 406.3046875 513.486328125 c 0
 393.567382812 537.68359375 373.905273438 560.846679688 349.04296875 572.23046875 c 0
 281.073242188 603.352539062 191.401367188 571.928710938 155.591796875 515.455078125 c 0
 138.998046875 489.286132812 137.375 381.568359375 147.375 336.568359375 c 5
 143.5078125 336.391601562 113.033203125 332.983398438 91.673828125 330.158203125 c 6
 65.748046875 325.474609375 l 5
 68.3203125 372.942382812 71.8623046875 522.567382812 70.5078125 586.123046875 c 0
 69.1513671875 649.780273438 63.724609375 750.266601562 58 788.4453125 c 1
 136.375 792 l 1
 139.913085938 759.709960938 141.708007812 661.708984375 141.421875 598.400390625 c 1
 142.500976562 599.303710938 143.427734375 600.232421875 144.5390625 601.130859375 c 0
 219.892578125 662.03125 325.1640625 662.990234375 393.12890625 619.4296875 c 0
 425.40625 598.7421875 450.321289062 572.049804688 464.048828125 543.44921875 c 0
 487.421875 494.752929688 487.375 457.568359375 487.375 329.578125 c 2
 487.375 321.927734375 l 2
 487.375 285.9921875 500.629882812 264.938476562 520.375 254 c 0
 557.059570312 233.676757812 678.374023438 232.568359375 716.0078125 343.568359375 c 0
 743.004882812 423.194335938 711.91796875 534.563476562 673.57421875 589.568359375 c 0
 648.22265625 625.936523438 612.403320312 653.78515625 575.375 674.84765625 c 0
 502.654296875 716.211914062 425.274414062 731.405273438 413.375 733.568359375 c 1
 436.375 807.568359375 l 1
EndSplineSet
Validated: 33
LCarets2: 1 0
Ligature2: "'liga' Standard Ligatures in Latin lookup 1-1" gaag a_saau
EndChar

StartChar: gi
Encoding: 53 57349 33
Width: 799
VWidth: 1024
Flags: W
HStem: 711 87G<139.604 210.101 301.726 381.971>
VStem: 144.101 66<600.003 697.591> 305.284 80.0273<368.869 557.749 628.322 814.447> 314.187 70.7871<391.985 557.749 625.545 812.624> 633.101 65.3066<317.153 545.364>
AnchorPoint: "u_sait" 812 399 basechar 0
AnchorPoint: "pangnau" 947.793 414 basechar 0
AnchorPoint: "saau_maam" 419.793 46 basechar 0
AnchorPoint: "saau" 670.793 370 basechar 0
LayerCount: 3
Fore
SplineSet
380.100585938 818 m 1xd8
 383.840820312 783.86328125 385.662109375 693.517578125 385.057617188 629.666015625 c 0
 385.045898438 628.427734375 384.991210938 626.830078125 384.973632812 625.544921875 c 1xd8
 479.051757812 705.40625 626.7421875 658.587890625 674.631835938 561.595703125 c 0
 695.827148438 518.66796875 698.407226562 491.421875 698.407226562 419.94921875 c 0
 698.407226562 372.639648438 698.40625 297.65234375 627.639648438 231.2578125 c 0
 562.623046875 170.256835938 459.203125 143.74609375 366.100585938 149.046875 c 0
 232.310546875 156.666015625 156.787109375 225.766601562 123.298828125 333 c 0
 101.717773438 402.106445312 104.576171875 469.2734375 114.629882812 549.046875 c 0
 121.759765625 605.620117188 135.106445312 666.356445312 144.100585938 711 c 1
 210.100585938 696 l 1
 199.849609375 656.168945312 187.421875 592.44140625 180.100585938 540 c 0
 170.548828125 471.584960938 165.088867188 421.16796875 183.305664062 365 c 0
 215.661132812 265.240234375 275.310546875 215.291992188 402.100585938 216.999023438 c 0
 468.170898438 217.887695312 538.458007812 236.702148438 582.125976562 277.671875 c 0
 611.583007812 305.30859375 630.02734375 344.17578125 632.391601562 387.296875 c 0
 633.0859375 399.948242188 633.100585938 410.881835938 633.100585938 450 c 0
 633.100585938 484.201171875 629.786132812 507.6640625 617.999023438 533.30859375 c 0
 577.361328125 621.719726562 433.067382812 654.575195312 385.311523438 519.2265625 c 0
 378.3984375 495.734375 376.564453125 396.0546875 379.717773438 369.078125 c 1
 367.459960938 367 323.91796875 360 305.284179688 356.880859375 c 1xe8
 313.93359375 409.872070312 314.973632812 561.1015625 314.186523438 628.302734375 c 0
 313.44140625 691.969726562 307.450195312 776.268554688 301.725585938 814.447265625 c 1
 380.100585938 818 l 1xd8
EndSplineSet
Validated: 33
LCarets2: 1 0
Ligature2: "'liga' Standard Ligatures in Latin lookup 1-1" gaag i_saau
EndChar

StartChar: gu
Encoding: 54 57350 34
Width: 914
VWidth: 1024
Flags: W
HStem: 179.879 65.1836<611.937 749.258> 813 20G<160.625 240.87>
VStem: 164.977 77.2617<397.705 577.306 655.971 829.447> 172.316 70.5684<430.554 579.701 652.752 827.641> 514.67 64.5684<491.223 593.079> 798.691 65.002<292.429 404.64>
AnchorPoint: "u_sait" 976 375 basechar 0
AnchorPoint: "saau_maam" 491.746 46.1211 basechar 0
AnchorPoint: "kaas" 320.746 746.121 basechar 0
AnchorPoint: "pangnau" 1048.75 358.121 basechar 0
AnchorPoint: "saau" 542.746 350.121 basechar 0
LayerCount: 3
Fore
SplineSet
239 833 m 1xdc
 242.740234375 798.86328125 243.807417007 731.329967333 243.1875 667.478515625 c 0
 243.14453125 663.052734375 242.993164062 657.73046875 242.884765625 652.751953125 c 1xdc
 320.010742188 716.23046875 432.958007812 716.393554688 494.14453125 678.078125 c 0
 579.239257812 624.791992188 579.23828125 560.4609375 579.23828125 491.22265625 c 1
 579.9921875 491.111328125 l 1
 658.051757812 505.663085938 721.29296875 503.223632812 770.0078125 483.513671875 c 0
 856.09765625 448.681640625 863.693359375 375.76171875 863.693359375 351.107421875 c 0
 863.693359375 258.676757812 778.452148438 179.87890625 679.396484375 179.87890625 c 0
 605.444335938 179.87890625 560.056640625 211.288085938 532.21484375 248.826171875 c 0
 504.887695312 285.671875 499.052734375 332.982421875 505.751953125 391.013671875 c 1
 441 348 366 290 295 131 c 1
 194 202 44.6803840967 309.731663269 42 311.49609375 c 1
 93.6875 373.833984375 l 1
 124.750659485 343.364739644 193.952148438 296.625 270 225 c 1
 301.3671875 310.427734375 387 402 513.28125 469.59765625 c 0
 514.088609625 470.029831402 513.077148438 471.2109375 512.91015625 472.150390625 c 2
 514.669921875 500.751953125 l 2
 514.719726562 535.469726562 514.81640625 602.936523438 444.134765625 630.611328125 c 0
 377.538085938 656.689453125 291.754882812 623.340820312 257.888671875 569.931640625 c 0
 241.293945312 543.76171875 237.227539062 425.256835938 242.23828125 398.296875 c 5
 215 395 203 394 164.9765625 391.373046875 c 5xec
 173.625 444.365234375 173.400467228 597.833009028 172.31640625 666.115234375 c 0
 171.305664062 729.779296875 166.348632812 791.268554688 160.625 829.447265625 c 1
 239 833 l 1xdc
667.005859375 434.51953125 m 0
 619.040039062 433.654296875 576.122070312 423.498046875 575.123046875 423.2578125 c 0
 570.263671875 383.802734375 562.938476562 324.330078125 589.08203125 288.931640625 c 0
 619.640625 247.556640625 667.56640625 245.0625 678.669921875 245.0625 c 0
 745.840820312 245.0625 798.690429688 297.326171875 798.69140625 350.9609375 c 0
 798.69140625 421.38671875 728.67578125 435.631835938 667.005859375 434.51953125 c 0
EndSplineSet
Validated: 33
LCarets2: 1 0
Ligature2: "'liga' Standard Ligatures in Latin lookup 1-1" gaag u_saau
EndChar

StartChar: go
Encoding: 55 57351 35
Width: 860
VWidth: 1024
Flags: HW
HStem: 171.209 65<366.413 511.675>
VStem: 119.289 70.5508<618.672 813.625> 273.525 65.25<262.662 363.378> 541.002 64.998<267.607 358.209 478 569.252>
AnchorPoint: "u_sait" 938 417 basechar 0
AnchorPoint: "pangnau" 999.67 392 basechar 0
AnchorPoint: "saau_maam" 407.665 46 basechar 0
AnchorPoint: "saau" 577.665 354 basechar 0
LayerCount: 3
Fore
SplineSet
187 819 m 1
 190.741210938 784.862304688 190.759765625 698.083984375 190.16015625 634.232421875 c 0
 190.116210938 629.555664062 189.958984375 623.9609375 189.83984375 618.671875 c 1
 240.87109375 678.170898438 290.247070312 705.3828125 354.333984375 711.208984375 c 0
 453.333984375 720.208984375 508.076171875 688.125 551.294921875 639.208984375 c 0
 581.334960938 605.208984375 606.234375 536.208984375 606.234375 472.5234375 c 1
 702 456.208984375 802.759765625 402 846 356 c 1
 776 292 l 1
 739.231445312 351 650 396.208984375 606 401.208984375 c 1
 606 335.208984375 l 2
 606 276.208984375 577.000976562 171.208984375 441.146484375 171.208984375 c 0
 343.2578125 171.208984375 273.525390625 231.5859375 273.525390625 312.322265625 c 0
 273.525390625 488.376953125 534.8203125 478.256835938 538 478 c 1
 538 511.208984375 526.716796875 574.639648438 496 606.451171875 c 0
 465.334960938 638.208984375 421.335972068 653.208673255 358.3359375 646.208984375 c 0
 293.223632812 638.974609375 248.020507812 598.931640625 210 537 c 0
 181.145507812 490 182.28515625 378 183 352 c 1
 163 356 130 363 108.3359375 367.208984375 c 1
 110 375 110.66796875 378.115234375 111.984375 384.330078125 c 0
 118.506835938 436.026367188 119.813476562 574.275390625 119.2890625 632.8671875 c 0
 118.719726562 696.536132812 114.349609375 777.266601562 108.625 815.4453125 c 1
 187 819 l 1
534.01953125 413.259765625 m 2
 449.272460938 413.259765625 338.775390625 389.646484375 338.775390625 312.208984375 c 0
 338.775390625 263.984375 383.596679688 236.208984375 441.0546875 236.208984375 c 0
 539.284179688 236.208984375 541.001953125 308.208984375 541.001953125 358.208984375 c 0
 541.174804688 373.80859375 541.001953125 391.956054688 541.001953125 413.259765625 c 1
 534.01953125 413.259765625 l 2
EndSplineSet
LCarets2: 1 0
Ligature2: "'liga' Standard Ligatures in Latin lookup 1-1" gaag o_saau
EndChar

StartChar: ba
Encoding: 56 57352 36
Width: 891
VWidth: 1024
Flags: HW
HStem: 446.968 59.7363<197.515 317.949>
VStem: 414.795 65<282.974 371.864> 775.46 65.0312<339.548 506.045>
AnchorPoint: "u_sait" 976 383 basechar 0
AnchorPoint: "pangnau" 1066.52 408 basechar 0
AnchorPoint: "saau_maam" 388.52 46 basechar 0
AnchorPoint: "saau" 450.799 370 basechar 0
LayerCount: 3
Fore
SplineSet
775.459960938 437.49609375 m 0
 775.373046875 454.142578125 774.381835938 473.891601562 765.569335938 501.586914062 c 1
 826.7734375 523.568359375 l 1
 835.87890625 495.838867188 840.491210938 466.779296875 840.491210938 437.69140625 c 0
 840.491210938 343.561678639 793.855188831 280.969242665 770.8984375 255.861328125 c 0
 681.170776243 157.730739953 544.323194989 160.439225397 469.052734375 223.830078125 c 0
 426.679915029 259.518902089 414.794921875 330.039131329 414.794921875 371.864257812 c 2
 414.794921875 717 l 1
 479.794921875 717 l 1
 479.794921875 369.608398438 l 2
 479.794921875 351.027581234 481.381713361 296.719353631 514.705078125 267.786132812 c 0
 540.566948898 245.333437446 641.797716453 202.80948526 725.712890625 299.002929688 c 0
 767.115510312 346.464101743 775.459960938 388.231152466 775.459960938 437.49609375 c 0
139 236 m 5
 65.654296875 217.16796875 l 5
 50.9426470135 276.540787406 54.6845045145 321.371811726 58.0478515625 342.143554688 c 4
 67.9395721096 403.204806956 104.191058655 439.131657089 134.920898438 459.127929688 c 4
 193.8515625 497.47265625 259.5234375 502.58984375 317.94921875 506.704101562 c 5
 318.120117188 446.967773438 l 5
 262.004882812 443.733398438 199.717773438 436.360351562 165.984375 407.384765625 c 4
 147.142578125 391.200195312 134.145507812 370.375976562 126.731445312 347.966796875 c 4
 112.44094532 304.773421836 131 258 139 236 c 5
EndSplineSet
LCarets2: 1 0
Ligature2: "'liga' Standard Ligatures in Latin lookup 1-1" baab a_saau
EndChar

StartChar: bi
Encoding: 57 57353 37
Width: 726
VWidth: 1024
Flags: HW
HStem: 150.431 65.0273<222.902 468.87> 521.264 59.7363<387.565 508>
VStem: 68 63.9189<299.957 548.491> 586.273 64.8604<313.169 408.768>
AnchorPoint: "u_sait" 788 395 basechar 0
AnchorPoint: "pangnau" 890 394 basechar 0
AnchorPoint: "saau_maam" 360 -28 basechar 0
AnchorPoint: "saau" 622.94 370 basechar 0
LayerCount: 3
Fore
SplineSet
329.05078125 310.295898438 m 1
 255.705078125 291.463867188 l 1
 240.993164062 350.836914062 244.735351562 395.66796875 248.098632812 416.439453125 c 0
 257.990234375 477.500976562 294.2421875 513.427734375 324.971679688 533.423828125 c 0
 383.90234375 571.768554688 449.57421875 576.885742188 508 581 c 1
 508.170898438 521.263671875 l 1
 452.055664062 518.029296875 389.768554688 510.65625 356.03515625 481.680664062 c 0
 337.193359375 465.49609375 324.196289062 444.671875 316.782226562 422.262695312 c 0
 302.4921875 379.069335938 321.05078125 332.295898438 329.05078125 310.295898438 c 1
144 691 m 1
 206.609375 651.838867188 l 1
 177.5 617 133 530 131.918945312 420.627929688 c 0
 131.689453125 397.377929688 134.340820312 351.044921875 139.526367188 332.008789062 c 0
 169.013671875 223.759765625 281.979492188 215.458007812 333.553710938 215.458007812 c 0
 426.213867188 215.458007812 472.37109375 237.385742188 492.461914062 247.735351562 c 0
 584.740234375 295.274414062 585.973632812 368.640625 586.059570312 408.767578125 c 0
 586.219726562 437.22265625 586.2734375 463.806640625 586.2734375 489.5234375 c 0
 586.111328125 730 l 1
 651.133789062 730 l 1
 651.133789062 391.657226562 l 2
 651.133789062 355.92759655 643.987304688 308.1015625 624.125 274.654296875 c 0
 602.123046875 237.6015625 572.958984375 213.75 526.684570312 188.080078125 c 0
 475.9296875 159.923828125 418.233398438 154.0234375 364.58203125 151.286132812 c 0
 354.147460938 150.752929688 343.580078125 150.430664062 332.921875 150.430664062 c 0
 147.477539062 150.430664062 92.8544921875 256.0390625 76.8125 314.9296875 c 0
 69.6169756762 341.344668861 63.6378424799 394.106806658 68 441 c 0
 80 570 126 653 144 691 c 1
EndSplineSet
LCarets2: 1 0
Ligature2: "'liga' Standard Ligatures in Latin lookup 1-1" baab i_saau
EndChar

StartChar: bu
Encoding: 58 57354 38
Width: 914
VWidth: 1024
Flags: HW
HStem: 177.233 65.0352<601.164 750.529> 435.771 65.2188<573.606 749.754> 545.206 59.7344<305.049 416.767>
VStem: 167.803 64.0361<354.053 478.518> 493.072 64.7939<283.748 416.418> 493.072 10.4873<372.987 375.911> 792.515 65.2344<283.198 395.854>
AnchorPoint: "u_sait" 984 377 basechar 0
AnchorPoint: "pangnau" 1075.94 378 basechar 0
AnchorPoint: "saau_maam" 419.939 46 basechar 0
AnchorPoint: "saau" 525.939 370 basechar 0
LayerCount: 3
Fore
SplineSet
857.749023438 338.67578125 m 1xfa
 857.749023438 338.674804688 l 1
 857.749023438 249.59375 781.913085938 177.233398438 675.938476562 177.233398438 c 0
 629.072265625 177.233398438 580.072265625 189.911132812 539.250976562 230.310546875 c 0
 488.840820312 280.200195312 493.072265625 350.694335938 493.072265625 375.911132812 c 2
 493.072265625 449.275390625 l 1xf6
 493.072265625 746.912109375 l 1
 557.866210938 746.912109375 l 1xfa
 557.866210938 477.737304688 l 1
 567.782226562 481.115234375 l 2
 605.708984375 494.032226562 639.72265625 500.989257812 674.290039062 500.989257812 c 0
 785.220703125 500.989257812 857.749023438 423.465820312 857.749023438 338.67578125 c 1xfa
240 353 m 1
 167.802734375 340.548828125 l 1
 166 413 166.732421875 468.93359375 195.38671875 509.698242188 c 0
 207.3359375 526.696289062 226.396484375 544.780273438 245.737304688 557.366210938 c 0
 304.662109375 595.706054688 358.3359375 600.825195312 416.766601562 604.940429688 c 1
 416.936523438 545.206054688 l 1
 360.875976562 541.974609375 310.540039062 534.604492188 276.80078125 505.623046875 c 0
 259.641601562 490.883789062 231.838867188 458.913085938 231.838867188 406.477539062 c 0
 231.838867188 384.145507812 233.643554688 375.684570312 240 353 c 1
674.653320312 435.770507812 m 1
 674.65234375 435.770507812 l 1
 674.653320312 435.770507812 l 1
 625.5078125 435.770507812 578.771484375 416.475585938 557.866210938 407.844726562 c 1
 557.866210938 344.045898438 557.866210938 303.063476562 584.734375 276.748046875 c 0
 607.68359375 254.271484375 642.26953125 242.268554688 676.734375 242.268554688 c 0
 714.229492188 242.268554688 750.836914062 256.92578125 771.659179688 281.567382812 c 0
 785.126953125 297.505859375 792.514648438 319.172851562 792.514648438 340.014648438 c 0
 792.514648438 385.147460938 751.916015625 435.770507812 674.653320312 435.770507812 c 1
503.760742188 444.290039062 m 1
 503.559570312 372.987304688 l 1xf6
 487.62890625 363.092773438 426.34375 314.38671875 391.953125 283.294921875 c 0
 364.901367188 258.837890625 260.849609375 156.333007812 224.299804688 105.971679688 c 1
 201.913085938 124.745117188 146.1171875 173.916992188 112.54296875 209.241210938 c 0
 82.8583984375 240.473632812 44.8671875 288.157226562 24 307.400390625 c 1
 78.810546875 357.627929688 l 1
 98.044921875 329.735351562 117.864257812 302.762695312 145.254882812 270.623046875 c 0
 163.951171875 248.68359375 205.61328125 210.844726562 221.88671875 200.938476562 c 1
 247.418945312 230.548828125 333.994140625 318.264648438 359.752929688 339.793945312 c 0
 404.915039062 377.541992188 469.798828125 424.494140625 503.760742188 444.290039062 c 1
EndSplineSet
LCarets2: 1 0
Ligature2: "'liga' Standard Ligatures in Latin lookup 1-1" baab u_saau
EndChar

StartChar: bo
Encoding: 59 57355 39
Width: 811
VWidth: 1024
Flags: HW
HStem: 433 61.2227<338.2 486> 540.5 69.7344<188.558 321.83>
VStem: 35 74.7588<326.374 474.011> 486.896 65<283.546 389>
AnchorPoint: "u_sait" 856 420 basechar 0
AnchorPoint: "pangnau" 968 386 basechar 0
AnchorPoint: "saau_maam" 350 46 basechar 0
AnchorPoint: "saau" 523.638 370 basechar 0
LayerCount: 3
Fore
SplineSet
486.896484375 761 m 1
 551.896484375 761 l 1
 551.896484375 485.458984375 l 1
 600.414971993 473.618446868 656 446 694 404 c 0
 718.66918277 376.734061149 744 353 768 308 c 1
 696 264 l 1
 676.229492188 306.141601562 660.924804688 342.209960938 636 367 c 0
 607.83203125 395.016601562 569.429827483 414.278887153 551.896484375 418.224609375 c 1
 551.896484375 389 l 17
 551.896484375 334 548.069569472 308.187837575 538 281 c 0
 518 227 481.633684493 207.197575568 469.595703125 200.03515625 c 0
 438.961664173 181.808360106 402.957131982 175.372325145 367.999997653 179.168723504 c 0
 316.104595651 184.80464369 282.351039447 204.336864168 260.476551777 228.000001087 c 0
 223.680278561 267.805059123 220.497547287 319.299142495 221.118164062 336 c 0
 222.903860532 384.053264889 246 414 259.999998364 428.728526476 c 0
 277.687635597 447.336588171 298.067555022 462.889774533 323.999997647 473.534392543 c 0
 365.580818881 490.602277931 423 502 486.896484375 494.22265625 c 1
 486.896484375 761 l 1
321.830078125 610.234375 m 1
 322 540.5 l 1
 265.930664062 537.268554688 187.380859375 533.966796875 152.865234375 505.916015625 c 0
 124.543945312 482.899414062 113.1875 450.594726562 109.758789062 420.109375 c 0
 105.145507812 379.090820312 115.932617188 333.377929688 118 326 c 1
 35 317 l 1
 35 344 38.880859375 384.109375 41.7333984375 410.109375 c 0
 47.9931640625 467.163085938 68.880859375 521.109375 121.80078125 557.66015625 c 0
 179.647460938 597.61328125 263.40234375 606.120117188 321.830078125 610.234375 c 1
486 433 m 1
 452 440.83203125 381 433 350.999998596 418.495112169 c 0
 321.115507939 404.04607335 301.38803613 387.048551707 293.294989847 363.99999873 c 0
 283.639623883 336.502044787 288.561127633 305.135644264 303.470703125 280.93359375 c 0
 317.516171903 258.134209218 344.678777631 243.868213282 374.000001385 241.487101023 c 0
 406.323934134 238.862145353 441.271239639 250.680912325 464.16015625 281.43359375 c 0
 476.078671245 297.446859075 486 318 486 354 c 1
 486 433 l 1
EndSplineSet
LCarets2: 1 0
Ligature2: "'liga' Standard Ligatures in Latin lookup 1-1" baab o_saau
EndChar

StartChar: da
Encoding: 60 57356 40
Width: 686
VWidth: 1024
Flags: HW
HStem: 435 71.6523<214 338.108> 783 20G<527.933 563.912>
VStem: 59 67.999<302.75 444> 362.639 66.3105<531.715 642.056> 529.219 64.7812<338.256 473.521>
AnchorPoint: "u_sait" 718 390 basechar 0
AnchorPoint: "pangnau" 817 314 basechar 0
AnchorPoint: "saau_maam" 269 -6 basechar 0
AnchorPoint: "saau" 96 370 basechar 0
LayerCount: 3
Fore
SplineSet
543.865234375 803 m 5
 602 745 l 5
 548 686 472.865234375 659 427.931640625 637.408203125 c 5
 428.7734375 627.543945312 428.94921875 620.0078125 428.94921875 615.30078125 c 4
 428.94921875 549.846679688 408.721679688 513.532226562 399.380859375 500.244140625 c 4
 351.736328125 432.46484375 294 428 214 435 c 5
 213.828125 506.65234375 l 5
 258 494 315.333333333 493 339.25390625 528.833984375 c 4
 361.95291692 562.838019165 362.638671875 593.119140625 362.638671875 604.060546875 c 4
 362.638671875 641.877929688 356.20703125 671.272460938 356 672 c 5
 374.37890625 676.419921875 l 5
 374.380859375 676.419921875 l 5
 421.2265625 691.935546875 512 741 543.865234375 803 c 5
59 694 m 1
 64 694 116.3359375 693.99609375 126.999023438 694.000976562 c 1
 126.999023438 567 126.999023438 506 126.999023438 444 c 1
 126.999023438 385.059570312 129 329 149 300.14453125 c 0
 172.344726562 266.463867188 219.57421875 252.306640625 227.114257812 249.698242188 c 0
 303.946289062 223.12109375 370.022460938 242.634765625 382.134765625 245.806640625 c 0
 404.890625 251.765625 446.704101562 262.715820312 480.069335938 298 c 0
 510.9140625 330.618164062 534.5390625 384.03125 529.21875 473.521484375 c 1
 594 479 l 1
 594.719726562 413.525390625 588 367 570.020507812 324 c 0
 526.192382812 219.18359375 444.581054688 195.919921875 403.750976562 185.112304688 c 0
 331.608398438 166.017578125 237.748046875 172.188476562 184 195 c 0
 145.845703125 211.193359375 120.319335938 231.904296875 104 250.766601562 c 0
 64 297 59 364.34375 59 443 c 1
 59 840.234375 59 611 59 694 c 1
EndSplineSet
LCarets2: 1 0
Ligature2: "'liga' Standard Ligatures in Latin lookup 1-1" daad a_saau
EndChar

StartChar: di
Encoding: 61 57357 41
Width: 914
VWidth: 1024
Flags: HW
HStem: 176.845 65.3945<230.803 391.566> 436 71.6523<602 725.923> 784 20G<896.933 952.946>
VStem: 435.895 73.0186<290.407 477> 750.639 66.3105<532.744 643.06>
AnchorPoint: "u_sait" 847 425 basechar 0
AnchorPoint: "pangnau" 996.895 326 basechar 0
AnchorPoint: "saau_maam" 434.895 46 basechar 0
AnchorPoint: "saau" 468.895 428 basechar 0
LayerCount: 3
Fore
SplineSet
931.865234375 804 m 5
 993 746 l 5
 931 684 860.865234375 660 815.931640625 638.408203125 c 5
 816.7734375 628.543945312 816.94921875 621.0078125 816.94921875 616.30078125 c 4
 816.94921875 550.846679688 796.721679688 514.532226562 787.380859375 501.244140625 c 4
 739.736328125 433.46484375 681 426 602 436 c 5
 601.828125 507.65234375 l 5
 656 497 708 499 727.25390625 529.833984375 c 4
 748.908478819 564.512492911 750.638671875 594.119140625 750.638671875 605.060546875 c 4
 750.638671875 642.877929688 740.845703125 679.336914062 740.638671875 680.064453125 c 5
 759.017578125 684.484375 l 5
 759.01953125 684.484375 l 5
 805.865234375 700 862 704 931.865234375 804 c 5
435.9140625 708 m 1
 508.913085938 708 l 1
 508.913085938 543.427734375 508.913085938 497 508.913085938 432 c 1
 508.913085938 286.4375 479 247 439.39453125 216 c 0
 396.269970689 182.245535792 341.705078125 175.3984375 292.913085938 176.844726562 c 0
 248.819335938 178.151367188 201.287059421 198.769723715 169.279296875 233.595703125 c 0
 77 334 99.271320594 533.004780993 121.5234375 608.16015625 c 0
 165 755 263.333007812 840 315.333007812 884 c 1
 356 830 l 1
 305 797 222 715 186 600 c 0
 167.292236746 540.239089606 149 367 218.119140625 276.470703125 c 0
 241.43265208 245.935662026 291.676757812 241.353515625 311.913085938 242.239257812 c 0
 345.439453125 243.705078125 375.8203125 247.89453125 395.53125 267 c 0
 426.381835938 296.90234375 435.89453125 317.543945312 435.89453125 477 c 9
 435.9140625 708 l 1
EndSplineSet
LCarets2: 1 0
Ligature2: "'liga' Standard Ligatures in Latin lookup 1-1" daad i_saau
EndChar

StartChar: du
Encoding: 62 57358 42
Width: 929
VWidth: 1024
Flags: W
HStem: 173.908 65.0586<487.06 648.651> 350.6 69.5352<440.227 507.638> 383.092 64.9766<469.122 669.135> 519 71.6523<528.135 651.967> 685.928 20G<375.227 440.227>
VStem: 375.227 65<420.135 705.928> 676.773 66.3105<615.696 724.907> 691.229 65.1621<278.328 363.081>
AnchorPoint: "u_sait" 880.135 390 basechar 0
AnchorPoint: "pangnau" 1003.21 427 basechar 0
AnchorPoint: "saau_maam" 483.214 46 basechar 0
AnchorPoint: "saau" 413.214 370 basechar 0
LayerCount: 3
Fore
SplineSet
872 889 m 5x9e
 924 824 l 5
 850 761 776 733 742.06640625 721.408203125 c 5
 742.908203125 711.543945312 743.083984375 704.0078125 743.083984375 699.30078125 c 4
 743.083984375 633.846679688 722.69383775 597.645057112 713.515625 584.244140625 c 4
 665.87109375 514.679356969 606.806640622 511.99097462 528.134765625 519 c 5
 527.962890625 590.65234375 l 5
 584 578 628 578 653.388671875 612.833984375 c 4
 677.469636762 645.873757339 676.7734375 677.119140625 676.7734375 688.060546875 c 4
 676.7734375 725.877929688 669.828125 759.852539062 669.62109375 760.580078125 c 5
 688 765 l 5
 688.001953125 765 l 5
 734.84765625 775.515625 836 830 872 889 c 5x9e
375.2265625 705.927734375 m 1
 440.2265625 705.927734375 l 1
 440.2265625 420.134765625 l 1xdd
 450.041015625 423.3203125 l 2
 508.852539062 442.409179688 559.038085938 449.592773438 600.734375 448.068359375 c 0
 705.217773438 444.25 756.390625 385.75 756.390625 322.849609375 c 0xbd
 756.390625 241.834960938 673.493164062 173.908203125 563.541015625 173.908203125 c 1
 563.541015625 173.90625 l 1
 522.333007812 173.90625 480.182617188 184.294921875 444.826171875 210.02734375 c 0
 394.041992188 246.989257812 382.224609375 295.086914062 376.6640625 318.97265625 c 1
 363.611328125 309.732421875 348.099609375 297.479492188 330.619140625 280.59765625 c 0
 304.385742188 255.263671875 256.731445312 207.413085938 228.435546875 174.017578125 c 1
 206.048828125 192.791992188 153.919921875 239.669921875 120.345703125 274.994140625 c 0
 90.6611328125 306.2265625 49.001953125 356.205078125 28.134765625 375.447265625 c 1
 82.9453125 425.673828125 l 1
 96.6767578125 402.3671875 124.291015625 367.141601562 152.140625 338.669921875 c 0
 172.296875 318.064453125 209.747070312 278.890625 226.021484375 268.984375 c 1
 251.552734375 298.594726562 280.24609375 324.263671875 306.056640625 345.73046875 c 0
 323.801757812 360.490234375 352.095703125 379.734375 375.2265625 392.9609375 c 0
 375.2265625 393.06640625 375.2265625 393.170898438 375.2265625 393.275390625 c 2
 375.2265625 705.927734375 l 1
591.71484375 383.091796875 m 1xbd
 524.25 383.091796875 461.563476562 358.919921875 439.986328125 350.599609375 c 1xdd
 441.018554688 327.85546875 442.647460938 292.006835938 483.087890625 262.57421875 c 0
 505.106445312 246.548828125 534.408203125 238.966796875 564.4609375 238.966796875 c 0
 632.30859375 238.966796875 691.228515625 276.166992188 691.228515625 323.435546875 c 0
 691.228515625 343.8125 674.405273438 383.091796875 591.716796875 383.091796875 c 2
 591.71484375 383.091796875 l 1xbd
EndSplineSet
Validated: 33
LCarets2: 1 0
Ligature2: "'liga' Standard Ligatures in Latin lookup 1-1" daad u_saau
EndChar

StartChar: do
Encoding: 63 57359 43
Width: 992
VWidth: 1024
Flags: HW
HStem: 177.669 65.0059<157.229 289.066> 421.095 65.0771<162.726 333.819> 476 71.6523<479 601.529> 818 20G<802 837.929>
VStem: 60 65.082<274.798 387.891> 627.639 66.3105<572.747 681.863>
AnchorPoint: "u_sait" 704 390 basechar 0
AnchorPoint: "pangnau" 864 378 basechar 0
AnchorPoint: "saau_maam" 350 46 basechar 0
AnchorPoint: "saau" 372 370 basechar 0
LayerCount: 3
Fore
SplineSet
819 838 m 1xbc
 872 782 l 1
 804 720 736 692 692.931640625 678.408203125 c 1
 693.7734375 668.543945312 693.94921875 661.0078125 693.94921875 656.30078125 c 0
 693.94921875 590.846679688 673.721679688 554.532226562 664.380859375 541.244140625 c 0
 616.736328125 473.46484375 553 464 479 476 c 1
 478.828125 547.65234375 l 1
 539 534 582 534 604.25390625 569.833984375 c 0
 625.823207133 604.565594283 627.638671875 634.119140625 627.638671875 645.060546875 c 0
 627.638671875 682.877929688 617.845703125 709.336914062 617.638671875 710.064453125 c 1
 636.017578125 714.484375 l 1
 636.01953125 714.484375 l 1
 682 726 785 778 819 838 c 1xbc
60 334.772460938 m 1
 60 334.771484375 l 1
 60 441 159.078125 486.171875 255.004882812 486.171875 c 0xdc
 291.89453125 486.171875 314.119140625 478.581054688 335.793945312 471.177734375 c 1
 335.793945312 721 l 1
 400.793945312 721 l 5
 400.793945312 387.9765625 l 1
 405.984375 386.295898438 l 2
 463.804744584 367.573630138 552 318 603 266 c 1
 544 203 l 1
 492 271 420.3984375 311.91015625 394.590820312 321.647460938 c 1
 392.278320312 313.951171875 l 2
 368.456054688 234.684570312 315.333333333 177.668945312 224.072265625 177.668945312 c 0
 120 177.668945312 60 250.796875 60 334.772460938 c 1
125.081054688 335.188476562 m 1
 125.08203125 335.188476562 l 1
 125.08203125 285.37890625 157.5 242.674804688 223.684570312 242.674804688 c 0
 292 242.674804688 336 302 336 360 c 1
 335.942772636 372.770897636 335.861398304 385.517648304 335.794921875 398.279296875 c 1
 322.743164062 406.03125 297.383789062 421.094726562 255.037109375 421.094726562 c 0
 193.088867188 421.094726562 125.081054688 401 125.081054688 335.188476562 c 1
EndSplineSet
LCarets2: 1 0
Ligature2: "'liga' Standard Ligatures in Latin lookup 1-1" daad o_saau
EndChar

StartChar: ta
Encoding: 64 57360 44
Width: 1053
VWidth: 1024
Flags: HW
HStem: 406.225 77.1328<468.67 621.724> 477.252 65.0098<215.708 345.854> 636.041 69.9336<493.769 631.428>
VStem: 111.152 66.2539<507.91 544.637> 402.639 65.2734<287.507 383.879 535.725 610.894> 661.166 66.2402<517.456 609.182> 897 65<385.036 523.879>
AnchorPoint: "u_sait" 1032 338 basechar 0
AnchorPoint: "saau_maam" 567.436 -25 basechar 0
AnchorPoint: "pangnau" 1166.44 329 basechar 0
AnchorPoint: "saau" 438.936 350 basechar 0
LayerCount: 3
Fore
SplineSet
556.064453125 705.974609375 m 0xbe
 653.170898438 705.974609375 727.40625 634.43359375 727.40625 555.4921875 c 0
 727.40625 470.474609375 643.91796875 406.224609375 516.029296875 406.224609375 c 0
 496.442382812 406.224609375 483.806640625 407.943359375 467.912109375 409.880859375 c 1
 467.912109375 383.87890625 l 2
 467.912109375 340.87890625 468.318359375 247.637695312 588.3984375 233.935546875 c 0
 668.586914062 224.786132812 731.494140625 236.444335938 779 263.892578125 c 0
 861.59375 311.61328125 897.634765625 407.067382812 897 523.87890625 c 1
 962 523.87890625 l 1
 961 401.87890625 931 281.877929688 804 205.306640625 c 0
 753.038085938 174.581054688 684.606445312 160.842773438 599 165.87890625 c 0
 404.58203125 177.315429688 402.638671875 326.877929688 402.638671875 361.919921875 c 2
 402.638671875 428.765625 l 1
 384.321289062 436.8046875 375.315429688 440.67578125 358.462890625 449.4140625 c 0
 333.288085938 462.465820312 304.772460938 477.251953125 277.220703125 477.251953125 c 0x7e
 230.680664062 477.251953125 188.715820312 441.586914062 164.896484375 397.220703125 c 0
 164.854492188 396.772460938 164.801757812 396.258789062 164.759765625 395.8125 c 0
 160.366210938 348.663085938 148.619140625 256.587890625 148.619140625 256.587890625 c 1
 77 268 l 1
 89.20703125 311.0390625 96.685546875 356.237304688 102.2734375 401.025390625 c 0
 108.333007812 449.592773438 112.985351562 518.546875 111.15234375 547.58984375 c 1
 177.40625 544.63671875 l 1
 177.037109375 533.362304688 176.236328125 520.672851562 175.208984375 507.283203125 c 1
 204.81640625 528.979492188 239.5390625 542.26171875 276.9296875 542.26171875 c 0
 321.431640625 542.26171875 353.669921875 525.622070312 401.11328125 501.1328125 c 1
 401.103515625 535.724609375 l 2
 401.103515625 695.87890625 541.282226562 705.8203125 556.064453125 705.974609375 c 0xbe
564.63671875 636.041015625 m 0
 497.1171875 638.06640625 468.68359375 604.943359375 468.68359375 553.87890625 c 2
 468.669921875 483.357421875 l 1xbe
 576.543945312 465.09765625 661.166015625 505.403320312 661.166015625 563.662109375 c 0
 661.166015625 607.306640625 617.440429688 634.45703125 564.63671875 636.041015625 c 0
EndSplineSet
LCarets2: 1 0
Ligature2: "'liga' Standard Ligatures in Latin lookup 1-1" taat a_saau
EndChar

StartChar: ti
Encoding: 65 57361 45
Width: 935
VWidth: 1024
Flags: W
HStem: 418.246 72.6074<631.268 778.968> 489.271 65.0098<378.063 508.45> 648.062 69.9316<652.937 794.044> 763.064 20G<424.591 442.417>
VStem: 273.172 64.6934<518.087 559.512> 565.105 65.1504<275.841 423.406 513.152 621.293> 823.764 66.2363<528.372 620.894>
AnchorPoint: "u_sait" 882.02 416 basechar 0
AnchorPoint: "pangnau" 1027.33 384 basechar 0
AnchorPoint: "saau_maam" 535.331 46 basechar 0
AnchorPoint: "saau" 602.331 370 basechar 0
LayerCount: 3
Fore
SplineSet
438.638671875 783.064453125 m 1xbe
 452.19140625 711.333984375 l 1
 421.55859375 706.885742188 303.336914062 679.868164062 223.66796875 593.365234375 c 0
 177.825195312 543.58984375 161.0390625 488.22265625 157.033203125 424.34375 c 0
 151.909179688 342.642578125 187.255859375 257.107421875 264.55078125 218.103515625 c 0
 347.819335938 176.0859375 497.654296875 213.450195312 537.779296875 267.259765625 c 0
 553.772460938 288.708984375 565.10546875 321.4453125 565.10546875 369.708984375 c 2
 565.10546875 440.888671875 l 1
 546.788085938 448.927734375 537.911132812 452.6953125 521.05859375 461.43359375 c 0
 495.8828125 474.486328125 467.3671875 489.271484375 439.81640625 489.271484375 c 0
 391.31640625 489.271484375 347.709960938 450.579101562 324.51171875 403.626953125 c 1
 319.719726562 354.998046875 309.078125 271.462890625 309.078125 271.462890625 c 1
 239.01953125 284 l 1
 251.2265625 327.0390625 258.705078125 372.237304688 264.29296875 417.025390625 c 0
 270.352539062 465.592773438 275.004882812 534.546875 273.171875 563.58984375 c 1
 337.865234375 559.51171875 l 1
 337.453125 546.9140625 336.49609375 532.532226562 335.28515625 517.376953125 c 1
 365.438476562 540.194335938 401.059570312 554.28125 439.52734375 554.28125 c 0x7e
 484.028320312 554.28125 516.264648438 537.641601562 563.708984375 513.15234375 c 1
 563.701171875 547.74609375 l 2
 563.701171875 717.986328125 703.873046875 717.83984375 718.66015625 717.994140625 c 2
 718.662109375 717.994140625 l 2
 815.811523438 717.993164062 890 646.418945312 890 567.513671875 c 0
 890 509.530273438 850.541992188 473.887695312 831.576171875 460.10546875 c 0
 779.162109375 422.015625 705.72265625 418.24609375 678.626953125 418.24609375 c 0
 659.040039062 418.24609375 646.150390625 421.46875 630.255859375 423.40625 c 1
 630.255859375 376.861328125 l 2
 630.255859375 326.3984375 622.806640625 288.810546875 605.875 253.49609375 c 0
 548.94140625 139.913085938 340.27734375 83.97265625 200.037109375 182.822265625 c 0
 128.038085938 233.571289062 93.2724609375 315.501953125 94.0078125 427.013671875 c 0
 94.5341796875 506.834960938 131.366210938 583.198242188 183.6328125 645.220703125 c 0
 268.952148438 746.465820312 410.543945312 773.291992188 438.638671875 783.064453125 c 1xbe
727.232421875 648.0625 m 0
 693.353515625 647.818359375 631.279296875 647.370117188 631.279296875 560.990234375 c 2
 631.267578125 495.376953125 l 1
 645.96875 492.888671875 658.936523438 490.853515625 679.361328125 490.853515625 c 0xbe
 695.861328125 490.853515625 712.499023438 492.407226562 728.8984375 495.453125 c 0
 819.915039062 512.7265625 823.763671875 564.447265625 823.763671875 575.68359375 c 0
 823.763671875 619.328125 779.978515625 644.524414062 727.232421875 648.0625 c 0
EndSplineSet
Validated: 33
LCarets2: 1 0
Ligature2: "'liga' Standard Ligatures in Latin lookup 1-1" taat i_saau
EndChar

StartChar: tu
Encoding: 66 57362 46
Width: 891
VWidth: 1024
Flags: W
HStem: 232.225 65.0293<565.895 721.361> 462.568 63.4316<537.431 693.568> 533.643 64.7695<284.448 429.692> 688.217 64.6426<556.226 694.848>
VStem: 185.175 61.6348<564.375 607.521> 470 65.7236<326.783 430 557.654 665.366> 727.396 64.9492<557.36 657.318> 769.271 65.1191<340.696 448.997>
AnchorPoint: "u_sait" 950 404 basechar 0
AnchorPoint: "pangnau" 1048.1 421 basechar 0
AnchorPoint: "saau_maam" 486.101 105 basechar 0
AnchorPoint: "saau" 507.101 429 basechar 0
LayerCount: 3
Fore
SplineSet
626.415039062 752.859375 m 2xfd
 626.416992188 752.859375 l 2
 694 752.859375 792.344726562 697.096679688 792.344726562 613.158203125 c 0xfe
 792.344726562 568.502929688 772.591796875 539.340820312 759.834960938 523.98046875 c 1
 766.575195312 519.31640625 l 2
 831.064453125 474.697265625 834.389648438 423.366210938 834.389648438 394.89453125 c 0
 834.389648438 309.381835938 760.416992188 232.224609375 637.999023438 232.224609375 c 0
 487.279296875 232.224609375 470 359.182527351 470 378.220703125 c 2
 470 378.220703125 470 387.8046875 470 430 c 1
 449.400390625 412.384765625 414 382 362 323 c 0
 326.886243302 283.159391439 298 236 264 174 c 1
 179.872070312 221.19921875 72 276.778320312 44 290 c 1
 86.4140625 358.982421875 l 1
 113 339.403320312 173.736328125 297.3515625 241 262 c 1
 258.127929688 290.845703125 273 322 338.5 393 c 0
 369.426315528 426.523181717 422.598632812 472.58984375 456 499 c 1
 449.313476562 502.244140625 442.750976562 505.536132812 435.283203125 509.560546875 c 0
 411.060546875 522.61328125 371.528320312 533.642578125 345.018554688 533.642578125 c 0
 300.859375 533.642578125 257.53515625 498.447265625 233.778320312 454.859375 c 1
 229.151367188 406.794921875 221 351 221 351 c 1
 154 364 l 1
 171.805856 426.779174851 189.688208069 540.552137434 185.174804688 612.064453125 c 1
 246.809570312 607.521484375 l 1
 246.380859375 594.438476562 245.370117188 579.443359375 244.088867188 563.634765625 c 1
 273.99609375 585.295898438 309.00390625 598.654296875 346.237304688 598.412109375 c 0
 389.0546875 598.133789062 424.3515625 582.142578125 470 557.654296875 c 1
 469.184570312 597.3125 l 2
 466.868532418 709.95237893 551 752.859375 626.415039062 752.859375 c 2xfd
631.817382812 688.216796875 m 0
 603.525390625 688.008789062 536.860351562 691.540039062 536.860351562 606.3125 c 2
 536.797851562 534.703125 l 1
 550 528 583.34765625 526 603 526 c 0
 711 526 727.395507812 579.33203125 727.395507812 615.099609375 c 0
 727.395507812 649 683.048828125 687.9453125 631.817382812 688.216796875 c 0
699.409179688 483.505859375 m 0
 658.051757812 467.279296875 612.485351562 462.54296875 583.581054688 462.568359375 c 0
 564.693359375 462.584960938 546.98046875 466.612304688 535.723632812 468.412109375 c 1
 535.723632812 391.3125 l 2
 535.723632812 311.759765625 595.067382812 297.25390625 638.350585938 297.25390625 c 0
 718.251953125 297.25390625 769.270507812 341.055664062 769.270507812 394.728515625 c 2
 769.270507812 394.73046875 l 2xfd
 769.270507812 455.202148438 700.466796875 483.108398438 699.409179688 483.505859375 c 0
EndSplineSet
Validated: 33
LCarets2: 1 0
Ligature2: "'liga' Standard Ligatures in Latin lookup 1-1" taat u_saau
EndChar

StartChar: to
Encoding: 67 57363 47
Width: 883
VWidth: 1024
Flags: HMW
VStem: 475.725 65<286.903 384.902 550 627.181> 738.725 65<527.749 609.718>
AnchorPoint: "u_sait" 728 352 basechar 0
AnchorPoint: "pangnau" 955.724 382 basechar 0
AnchorPoint: "saau_maam" 433.724 46 basechar 0
AnchorPoint: "saau" 511.724 370 basechar 0
LayerCount: 3
Fore
SplineSet
624.8046875 718.7265625 m 0
 712.963867188 722.125976562 807 666.874023438 807 565.875 c 0
 807 500.875 758.424804688 461.401367188 739.458984375 447.619140625 c 0
 681.348632812 405.390625 589.826171875 405.338867188 540.8046875 411.875 c 1
 540.8046875 384.875 l 2
 540.8046875 317.827148438 530.563476562 267.439453125 494.58984375 229.875 c 0
 460.0625 193.821289062 408.599609375 171.875 358.08984375 171.875 c 0
 286.58984375 171.875 212.58984375 203.875 190.58984375 302.875 c 0
 182.693359375 338.409179688 183.58984375 400.874023438 204.029296875 428.3828125 c 1
 176.915039062 409.516601562 167.709960938 403.134765625 158.1953125 395.943359375 c 1
 156.8203125 382.087890625 155.4140625 367.911132812 154.201171875 354.888671875 c 0
 149.807617188 307.739257812 145 264 145 264 c 1
 66 277 l 1
 81 320 90.166015625 355.267578125 94 386 c 0
 100.059570312 434.567382812 104.833007812 573.95703125 103 603 c 1
 176 602 l 1
 175.7734375 595.06640625 166.196289062 489.201171875 165.697265625 481.384765625 c 1
 328.936523438 582.939453125 427.852539062 528.103515625 473.8046875 502.875 c 1
 473.8046875 563.875 l 2
 473.8046875 667.06640625 547.016601562 715.727539062 624.8046875 718.7265625 c 0
633.51171875 650.212890625 m 0
 566.760742188 649.712890625 541.8046875 622.875 541.8046875 549.875 c 2
 541.8046875 485.875 l 1
 629.8046875 461.875 743.8046875 501.874023438 743.8046875 564.734375 c 0
 743.8046875 614.874023438 689.356445312 649.94140625 633.51171875 650.212890625 c 0
343.810546875 474.3515625 m 0
 318.5546875 475.051757812 294.711914062 468.817382812 273.58984375 452.875 c 1
 250.58984375 418.875 246.7578125 356.4296875 255.58984375 323.875 c 0
 268.620117188 275.84375 301.58984375 239.875 359.08984375 238.109375 c 0
 394.754882812 237.014648438 431.732421875 252.333984375 452.591796875 279.73046875 c 0
 470.248046875 302.920898438 475.8046875 325.875 475.8046875 368.875 c 2
 475.8046875 425.875 l 1
 431.919921875 452.75 385.903320312 473.18359375 343.810546875 474.3515625 c 0
EndSplineSet
LCarets2: 1 0
Ligature2: "'liga' Standard Ligatures in Latin lookup 1-1" taat o_saau
EndChar

StartChar: pa
Encoding: 68 57364 48
Width: 922
VWidth: 1024
Flags: HW
HStem: 378.188 68.7891<191.98 351.27>
VStem: 352.76 63.8545<281.154 380.646 452.729 582.839>
AnchorPoint: "u_sait" 1000 408 basechar 0
AnchorPoint: "pangnau" 1048.61 378 basechar 0
AnchorPoint: "saau_maam" 422.614 46 basechar 0
AnchorPoint: "saau" 388.614 370 basechar 0
LayerCount: 3
Fore
SplineSet
564.857421875 744.999023438 m 1
 669.720703125 629.479492188 658.705078125 565.172851562 653.515625 534.875 c 0
 634.9609375 426.55078125 496.212890625 396.1796875 416.614257812 387.48828125 c 1
 416.614257812 378.205078125 l 2
 416.614257812 319.249023438 422.614257812 303.908203125 438.45703125 279.60546875 c 0
 480.908203125 214.486328125 700.806640625 226.814453125 770.549804688 368.44140625 c 0
 801.709960938 431.723632812 798.202148438 537.48828125 771.387695312 599.569335938 c 1
 837.51953125 618.48046875 l 1
 871.569335938 541.228515625 874.823242188 420.33984375 826.98828125 334.146484375 c 0
 734.783203125 168 482.733398438 136.140625 390.94140625 229.198242188 c 0
 352.759765625 267.903320312 352.759765625 301.026367188 352.759765625 380.646484375 c 1
 320.631835938 377.616210938 310.163085938 377.446289062 288.859375 378.1875 c 0
 116.5546875 384.180664062 93.552734375 460.672851562 101.28125 518.515625 c 0
 106.791015625 559.751953125 132.58203125 599.083007812 163.880859375 626.490234375 c 0
 228.424804688 683.0078125 300.811523438 689.416015625 348.2734375 658.802734375 c 0
 420.356445312 612.30859375 415.119140625 545.278320312 415.119140625 459.236328125 c 2
 415.11328125 452.728515625 l 1
 481.184570312 460.78125 533.000976562 474.637695312 559.10546875 495.71875 c 0
 645.95703125 565.856445312 549.188476562 658.78125 508.611328125 697.2890625 c 1
 508.611328125 697.2890625 552.0625 734.994140625 564.857421875 744.999023438 c 1
307.947265625 598.64453125 m 0
 289.926757812 607.692382812 259.09375 607.78125 237.74609375 598.326171875 c 0
 203.133789062 582.99609375 176.727539062 544.71875 171.404296875 518.123046875 c 0
 160.754882812 464.913085938 221.734375 450.002929688 275.80078125 446.9765625 c 0
 301.38671875 445.544921875 327.127929688 448.5546875 352.505859375 452.109375 c 1
 352.947265625 552.260742188 353.051757812 576.000976562 307.947265625 598.64453125 c 0
EndSplineSet
LCarets2: 1 0
Ligature2: "'liga' Standard Ligatures in Latin lookup 1-1" paap a_saau
EndChar

StartChar: pi
Encoding: 69 57365 49
Width: 929
VWidth: 1024
Flags: HW
HStem: 166.27 66.832<306.166 517.781> 396.529 71.4629<400.77 566.048 630.714 711.309>
VStem: 130.237 63.457<346.19 581.745> 566.288 64.4258<277.368 394.088 468.611 597.841>
AnchorPoint: "u_sait" 782 342 basechar 0
AnchorPoint: "pangnau" 1024.71 394 basechar 0
AnchorPoint: "saau_maam" 447.714 46 basechar 0
AnchorPoint: "saau" 603.714 370 basechar 0
LayerCount: 3
Fore
SplineSet
778.399414062 760.880859375 m 1
 778.403320312 760.880859375 l 1
 883.267578125 645.368164062 872.25 581.048828125 867.061523438 550.7578125 c 0
 848.514648438 442.479492188 710.469726562 412.080078125 630.713867188 403.37109375 c 1
 630.713867188 394.087890625 l 2
 630.713867188 287 618.713867188 171 416.713867188 166.26953125 c 0
 347.345703125 164.645507812 278.888671875 187.1171875 226.272460938 230 c 0
 171.250976562 274.844726562 133.55078125 342.126953125 130.237304688 428 c 0
 128.799637069 465.259022831 133.50390625 565.838867188 171.356445312 652 c 0
 221 765 329 855 364 887 c 1
 416 830 l 1
 358 790 278 742 229 622 c 0
 198.896484375 548.27734375 194.70703125 478.993164062 193.694335938 450 c 0
 191.620117188 390.627929688 215.009765625 328.888671875 251.370117188 292 c 0
 287.706054688 255.135742188 343.985351562 233.1015625 421.709960938 233.1015625 c 0
 568.713867188 233.1015625 565.725585938 321.0078125 566.288085938 364 c 2
 566.713867188 396.529296875 l 1
 451.309570312 385.64453125 297.721679688 406.375976562 314.827148438 534.3984375 c 0
 320.337890625 575.634765625 346.127929688 614.965820312 377.426757812 642.373046875 c 0
 441.970703125 698.890625 514.358398438 705.298828125 561.819335938 674.685546875 c 0
 633.90234375 628.19140625 629.33984375 538 629.245117188 475.119140625 c 2
 629.235351562 468.611328125 l 1
 695.306640625 476.6640625 746.54296875 490.520507812 772.647460938 511.6015625 c 0
 851.298828125 575.1171875 789.45703125 641.436523438 722.153320312 713.171875 c 1
 722.153320312 713.171875 765.60546875 750.875976562 778.399414062 760.880859375 c 1
554.139648438 585.201171875 m 0
 535.431640625 619.45703125 487.049804688 630.047851562 451.288085938 614.208984375 c 0
 416.67578125 598.87890625 390.26953125 560.6015625 384.946289062 534.005859375 c 0
 366.619140625 442.430664062 546.78515625 465.293945312 566.047851562 467.9921875 c 1
 566.047851562 538 566.408203125 562.737304688 554.139648438 585.201171875 c 0
EndSplineSet
LCarets2: 1 0
Ligature2: "'liga' Standard Ligatures in Latin lookup 1-1" paap i_saau
EndChar

StartChar: pu
Encoding: 70 57366 50
Width: 845
Flags: W
HStem: 158.326 65.0508<539.715 601.367 601.369 674.395> 710.002 20G<628.883 648.033> 710.002 20G<628.883 648.033>
VStem: 185.402 65.2637<471.779 563.028> 437.447 65.0039<259.165 339.504 458.023 593.683> 675.891 65.0742<524.608 628.132> 723.008 65.0254<266.988 322.518 322.52 376.797>
AnchorPoint: "u_sait" 921 364 basechar 0
AnchorPoint: "saau_maam" 440.543 46 basechar 0
AnchorPoint: "pangnau" 1018.54 305 basechar 0
AnchorPoint: "saau" 470.543 370 basechar 0
LayerCount: 3
Fore
SplineSet
645.033203125 730.001953125 m 1xdc
 651.033203125 726.001953125 737.487304688 672.641601562 740.96484375 580.740234375 c 0xdc
 743.294921875 519.177734375 702.794921875 480.815429688 683.5703125 461.515625 c 1
 768.603515625 425.602539062 788.033203125 367.670898438 788.033203125 322.21484375 c 0xda
 788.033203125 233.4296875 705.33203125 158.32421875 601.369140625 158.32421875 c 1
 601.3671875 158.326171875 l 1
 511.4375 158.326171875 470.897460938 214.495117188 456.078125 243.119140625 c 0
 438.69140625 276.702148438 437.447265625 294.001953125 437.447265625 329.001953125 c 2
 437.447265625 339.50390625 l 1
 416.477539062 326.495117188 374.545898438 299.936523438 349.021484375 275.287109375 c 0
 322.788085938 249.953125 255.596679688 186.484375 227.30078125 153.08984375 c 1
 204.9140625 171.86328125 152.787109375 218.7421875 119.212890625 254.06640625 c 0
 89.5283203125 285.297851562 47.8671875 335.276367188 27 354.51953125 c 1
 81.8125 404.74609375 l 1
 95.5439453125 381.438476562 123.158203125 346.211914062 151.0078125 317.740234375 c 0
 171.1640625 297.133789062 208.614257812 257.962890625 224.888671875 248.056640625 c 1
 250.419921875 277.666992188 298.6484375 318.953125 324.458984375 340.419921875 c 0
 336.42578125 350.373046875 359.438476562 365.936523438 382.69140625 380.46875 c 1
 368.123046875 381.407226562 353.5625 382.102539062 343.142578125 385.115234375 c 0
 302.899414062 389.7421875 185.40234375 403.25390625 185.40234375 512.607421875 c 0
 185.40234375 619.21875 330.78515625 725.811523438 433.166015625 664.564453125 c 0
 502.28125 623.217773438 502.23828125 549.650390625 502.189453125 466.40625 c 2
 502.18359375 458.0234375 l 1
 668.927734375 476.461914062 675.890625 564.0078125 675.890625 578.505859375 c 0
 675.890625 620.407226562 629.034179688 654.000976562 598.306640625 672.13671875 c 1
 645.033203125 730.001953125 l 1xdc
364.900390625 617.521484375 m 0
 311.560546875 616.247070312 250.666015625 559.776367188 250.666015625 512.77734375 c 0
 250.666015625 451.112304688 333.856445312 446.271484375 437.205078125 450.80859375 c 1
 437.583007812 541.223632812 437.770507812 586.063476562 399.779296875 608.791015625 c 0
 389.116210938 615.170898438 377.209960938 617.815429688 364.900390625 617.521484375 c 0
628.0546875 405.73828125 m 0
 597.25 406.630859375 556.4609375 399.758789062 502.451171875 380.140625 c 1
 502.451171875 329 l 2
 502.451171875 277 531.734375 223.376953125 602.255859375 223.376953125 c 0
 666.333007812 223.376953125 723.0078125 267.5390625 723.0078125 322.517578125 c 1x9a
 723.009765625 322.51953125 l 1
 723.009765625 330.495117188 720.467773438 403.059570312 628.0546875 405.73828125 c 0
EndSplineSet
Validated: 33
LCarets2: 1 0
Ligature2: "'liga' Standard Ligatures in Latin lookup 1-1" paap u_saau
EndChar

StartChar: po
Encoding: 71 57367 51
Width: 741
VWidth: 1024
GlyphClass: 3
Flags: HW
VStem: 352.93 68.6094<267.741 409.076 479.292 607.669> 628 80<181.55 218.029>
AnchorPoint: "sangau" 544 97 basechar 0
AnchorPoint: "u_sait_lig" 767 348 baselig 0
AnchorPoint: "pangnau" 953 328 basechar 0
AnchorPoint: "saau_maam" 304 46 basechar 0
AnchorPoint: "saau" 393 370 basechar 0
LayerCount: 3
Fore
SplineSet
565.28125 771.563476562 m 1
 565.28515625 771.563476562 l 1
 596.346679688 738.482421875 680.311523438 638.822265625 662 561 c 0
 650 510 602.076171875 459.387695312 518.51171875 433.174804688 c 1
 550 411 590 371 611 347 c 0
 661.085325426 289.759628085 700 214 708 184 c 1
 628 156 l 1
 624 179 606 234 562 294 c 0
 529.342171299 338.533402774 460 394 423.017578125 409.083007812 c 1
 423.017578125 305 417 248 361.696289062 210.663085938 c 0
 269.423828125 148.3671875 96.4638671875 167.18359375 64.48046875 282.139648438 c 0
 46.5087890625 346.737304688 83.7275390625 412.438476562 139.107421875 446.717773438 c 1
 97.0732421875 481.111328125 97.677734375 514.890625 101.7109375 545.079101562 c 0
 115.598632812 649.014648438 256.768554688 744.665039062 348.703125 685.366210938 c 0
 421.548828125 638.383789062 421.548828125 570.759765625 421.548828125 485.799804688 c 2
 421.5390625 479.291992188 l 1
 606.189453125 501.795898438 602.76953125 579.471679688 588.750976562 618 c 0
 576.333007812 652.12890625 544.095703125 686.486328125 509.03515625 723.852539062 c 1
 509.03515625 723.852539062 553 761 565.28125 771.563476562 c 1
341.0234375 595.881835938 m 0
 303.014648438 665.483398438 188.079101562 625.883789062 171.828125 544.686523438 c 0
 153.499023438 453.110351562 333.671875 475.975585938 352.9296875 478.672851562 c 1
 352.9296875 522 353.280273438 573.4375 341.0234375 595.881835938 c 0
353.189453125 407.209960938 m 1
 192.8046875 422.720703125 164.376953125 389.387695312 146.7265625 368.690429688 c 0
 87.9423828125 299.76953125 156.74609375 230.20703125 251 236.861328125 c 0
 353.189453125 244.075195312 353.189453125 292 353.189453125 407.209960938 c 1
EndSplineSet
Ligature2: "'liga' Standard Ligatures in Latin lookup 1-1" paap o_saau
LCarets2: 1 0
EndChar

StartChar: ha
Encoding: 72 57368 52
Width: 737
VWidth: 1024
Flags: HW
VStem: 90 66.8613<294.169 405.986 528.868 602.986> 598.104 65.8965<320.108 490.17>
AnchorPoint: "u_sait" 786 390 basechar 0
AnchorPoint: "pangnau" 846 285.986 basechar 0
AnchorPoint: "saau_maam" 320 43.9863 basechar 0
AnchorPoint: "saau" 128 347.986 basechar 0
LayerCount: 3
Fore
SplineSet
282 675.986328125 m 0
 301 724.986328125 334.365234375 753.650390625 379 764.59765625 c 0
 420.51953125 774.780273438 466.443359375 766.598632812 502.438476562 735.60546875 c 0
 535.450195312 707.181640625 556.583007812 663.203125 559.625976562 616.986328125 c 0
 562.559570312 572.426757812 548.767578125 525.698242188 512.41015625 489 c 0
 448 423.986328125 283.154296875 388.013671875 156.861328125 464.814453125 c 1
 156.861328125 405.986328125 l 2
 156.861328125 349.986328125 156.861328125 268.012695312 253.75 231.399414062 c 0
 306.811523438 211.34765625 407.981445312 213.202148438 480.716796875 246.037109375 c 0
 654.143554688 324.326171875 602 472.986328125 598.103515625 490.169921875 c 1
 664 505.986328125 l 1
 690 426.986328125 691.009765625 270.315429688 505.94140625 186.142578125 c 0
 423.478515625 148.63671875 310.341796875 145.834960938 243.52734375 165.793945312 c 0
 91.9990234375 211.05859375 89.775390625 336.775390625 90 405.986328125 c 2
 90.638671875 602.986328125 l 1
 157.5 602.986328125 l 1
 157.5 484.358398438 256 486.986328125 293 484.986328125 c 1
 287.369140625 504.852539062 273.817382812 547.426757812 270.206054688 592.986328125 c 0
 268.049804688 620.1953125 272.37890625 651.173828125 282 675.986328125 c 0
485.15625 553.767578125 m 0
 499.303710938 577.48046875 502.642578125 601.935546875 498.502929688 623.986328125 c 0
 491.8203125 659.581054688 465.650390625 688.908203125 434 698.725585938 c 0
 413.778320312 704.998046875 391.3203125 703.307617188 370.27734375 690.19921875 c 0
 326.646484375 663.020507812 331.168945312 607.16015625 333.380859375 579.83203125 c 0
 335.629882812 552.041015625 344.762695312 509.21484375 352 486.986328125 c 1
 400 491.986328125 456.037109375 504.9609375 485.15625 553.767578125 c 0
EndSplineSet
LCarets2: 1 0
Ligature2: "'liga' Standard Ligatures in Latin lookup 1-1" haah a_saau
EndChar

StartChar: hi
Encoding: 73 57369 53
Width: 917
VWidth: 1024
Flags: HW
VStem: 417.662 65.3379<257.128 357.064 491.996 539.064>
AnchorPoint: "u_sait" 646 322 basechar 0
AnchorPoint: "pangnau" 986 360.065 basechar 0
AnchorPoint: "saau_maam" 480 8.06455 basechar 0
AnchorPoint: "saau" 455 332.065 basechar 0
LayerCount: 3
Fore
SplineSet
675.087890625 716.009765625 m 0
 724.274414062 742.348632812 794.493164062 737.81640625 838 700.064453125 c 0
 917.333984375 631.224609375 910.696289062 505.91015625 830 442 c 0
 772 396.064453125 637 344.064453125 483 430.064453125 c 1
 483 340.064453125 l 2
 483 314.791992188 482.5234375 184.387695312 345.013671875 154.69140625 c 0
 288.686523438 142.52734375 170.935546875 157.7421875 107.279296875 240.439453125 c 0
 38.640625 329.609375 59 442.064453125 106 544.064453125 c 1
 165.375 514.736328125 l 1
 123.848632812 440.0625 110.801757812 342.413085938 158.779296875 280.080078125 c 0
 198.997070312 227.83203125 280.9140625 209.045898438 333.330078125 218.623046875 c 0
 409.856445312 232.609375 417.662109375 297.587890625 417.662109375 357.064453125 c 2
 417.662109375 570.064453125 l 1
 483 570.064453125 l 1
 483 567.684570312 483 553.064453125 483 539.064453125 c 1
 483 485.064453125 547 456.064453125 618 446.064453125 c 1
 601 509.064453125 593.344726562 564.706054688 606.844726562 618.064453125 c 0
 620 670.064453125 649.892578125 702.517578125 675.087890625 716.009765625 c 0
809.31640625 642.064453125 m 0
 770 682.064453125 682.0234375 684.641601562 663.608398438 600.064453125 c 0
 653.250976562 552.498046875 667.017578125 489.943359375 680 450.064453125 c 1
 721 452.064453125 791.040039062 472.826171875 820.158203125 521.630859375 c 0
 840.930664062 556.447265625 841.52734375 609.293945312 809.31640625 642.064453125 c 0
EndSplineSet
LCarets2: 1 0
Ligature2: "'liga' Standard Ligatures in Latin lookup 1-1" haah i_saau
EndChar

StartChar: hu
Encoding: 74 57370 54
Width: 958
VWidth: 1024
Flags: W
HStem: 455 61<491.453 608.289> 640 20G<401.289 464.289> 718.365 63.998<682.896 791.195>
VStem: 401.727 62.5625<402.797 486 543.784 660>
AnchorPoint: "u_sait" 870 408 basechar 0
AnchorPoint: "pangnau" 994.289 403 basechar 0
AnchorPoint: "saau_maam" 514.289 70 basechar 0
AnchorPoint: "saau" 438.289 394 basechar 0
LayerCount: 3
Fore
SplineSet
742.025390625 782.36328125 m 0
 779.32421875 780.794921875 813.716796875 767.0234375 833.30078125 750.744140625 c 0
 868.541992188 721.448242188 888.528320312 668.208984375 882.837890625 615 c 0
 875.938476562 550.5 841.2890625 476 706.2890625 460 c 1
 733.2890625 412 749.010742188 322.583007812 709.2890625 263 c 0
 683.2890625 224 647.2890625 200 593.2890625 193 c 0
 483.729492188 178.797851562 411.096679688 234.950195312 402.208984375 342.177734375 c 1
 386.28125 332.27734375 362.619140625 316.997070312 333.486328125 288.86328125 c 0
 307.252929688 263.529296875 259.596679688 215.677734375 231.30078125 182.283203125 c 1
 208.9140625 201.056640625 156.78515625 247.935546875 123.2109375 283.259765625 c 0
 93.5263671875 314.491210938 51.8671875 364.469726562 31 383.712890625 c 1
 85.8125 433.939453125 l 1
 99.5439453125 410.631835938 127.158203125 375.405273438 155.0078125 346.93359375 c 0
 175.1640625 326.327148438 212.614257812 287.15625 228.888671875 277.25 c 1
 254.419921875 306.860351562 283.11328125 332.52734375 308.923828125 353.994140625 c 0
 333.540039062 374.467773438 378.450195312 403.572265625 401.7265625 413.2734375 c 1
 401.99609375 429.708984375 402.2890625 445.151367188 402.2890625 467.076171875 c 2
 401.2890625 660 l 1
 464.2890625 660 l 1
 464.2890625 622.951348077 460.60546875 585.434570312 470.65234375 565 c 0
 503.451171875 498.287109375 586.002413044 517.046602349 608.2890625 516 c 1
 584.905273438 598.506835938 585.896484375 665.020507812 609.041015625 707.291015625 c 0
 641.30859375 766.223632812 694.069335938 784.379882812 742.025390625 782.36328125 c 0
733.220703125 718.365234375 m 0
 719.529296875 718.126953125 706.01171875 714.459960938 694.0859375 707.03125 c 0
 635.903320312 670.787109375 656.096679688 573.947265625 675.2890625 515 c 1
 738.890625 506.744140625 832.942382812 544.91015625 822.708984375 636.873046875 c 0
 816.916992188 688.9296875 774.293945312 719.079101562 733.220703125 718.365234375 c 0
464.2890625 486 m 1
 464.2890625 442.373046875 459.700195312 369.341796875 466.2890625 334 c 0
 477.2890625 275 516.477539062 250.786132812 576.2890625 257 c 0
 653.2890625 265 677.947265625 308.404296875 671.2890625 363 c 0
 666.2890625 404 646.2890625 439 633.2890625 455 c 1
 544.2890625 458 505.2890625 468 464.2890625 486 c 1
EndSplineSet
Validated: 33
LCarets2: 1 0
Ligature2: "'liga' Standard Ligatures in Latin lookup 1-1" haah u_saau
EndChar

StartChar: ho
Encoding: 75 57371 55
Width: 834
VWidth: 1024
Flags: HW
HStem: 369.152 67.9043<150.787 335.229>
VStem: 59.127 64.9316<237.579 339.784> 335.229 64.8613<240.79 333 369.152 375.602 514.675 585> 546 58<466 664.466>
AnchorPoint: "u_sait" 564 312 basechar 0
AnchorPoint: "pangnau" 918 333 basechar 0
AnchorPoint: "saau_maam" 380 13 basechar 0
AnchorPoint: "saau" 372 337 basechar 0
LayerCount: 3
Fore
SplineSet
542.232421875 666.47265625 m 0
 599.595703125 771.240234375 721.723632812 747.138671875 766.490234375 709.92578125 c 0
 836.717773438 651.546875 841.71484375 526.120117188 769.41015625 465.013671875 c 0
 670 381 506 391 400.08984375 434 c 1
 399.91796875 333 l 2
 399.857421875 297.62890625 395.865234375 211.33203125 330.6171875 162.98828125 c 0
 298.645507812 139.299804688 258.538085938 129.676757812 219 132.619140625 c 0
 132.194335938 139.077148438 62.552734375 203.1171875 59.126953125 284.87109375 c 0
 53.7529296875 413.022460938 203.456054688 472.041992188 335.228515625 437.056640625 c 1
 335.228515625 585 l 1
 400.08984375 585 l 1
 400.08984375 470 516 465 546 465 c 1
 522.610351562 547.510742188 519.095703125 624.215820312 542.232421875 666.47265625 c 0
731.31640625 650.216796875 m 0
 701.400390625 682.1875 655.642578125 683.883789062 627.27734375 666.21484375 c 0
 569.09375 629.971679688 584.80859375 524.9453125 604 466 c 1
 647 465 713.036132812 480.9765625 742.15625 529.78125 c 0
 762.9375 564.611328125 762.704101562 616.670898438 731.31640625 650.216796875 c 0
335.228515625 369.15234375 m 1
 240.706054688 402.188476562 169.376953125 361.649414062 166.576171875 360.0234375 c 0
 127.861328125 337.544921875 123.329101562 304.978515625 124.05859375 287.591796875 c 0
 125.927734375 242.954101562 163.751953125 205.7578125 216 198.471679688 c 0
 283.85546875 189.009765625 313.063476562 232.994140625 323.45703125 255.697265625 c 0
 330.309570312 270.665039062 335.228515625 289 335.228515625 327 c 2
 335.228515625 369.15234375 l 1
EndSplineSet
LCarets2: 1 0
Ligature2: "'liga' Standard Ligatures in Latin lookup 1-1" haah o_saau
EndChar

StartChar: ra
Encoding: 76 57372 56
Width: 1015
VWidth: 1024
Flags: HW
HStem: 161.75 67.0605<642.739 784.245> 732 65<573.277 643.767>
VStem: 565.441 67.6055<237.838 290.963 379.061 510.645>
AnchorPoint: "u_sait" 1062 380 basechar 0
AnchorPoint: "pangnau" 1138.05 356 basechar 0
AnchorPoint: "saau_maam" 512.047 -16 basechar 0
AnchorPoint: "saau" 605.047 308 basechar 0
LayerCount: 3
Fore
SplineSet
575 797 m 1
 626 788 735 754 794 707.5078125 c 0
 865.462890625 651.194335938 915 566 926.811523438 497 c 0
 943.209960938 401.19921875 929 334 902 281 c 0
 852.522460938 183.876953125 756.189453125 161.75 688.69921875 161.75 c 0
 579.131835938 161.75 565.862304688 250.844726562 565.44140625 290.962890625 c 2
 566.5 379.060546875 l 2
 567.62890625 436.1171875 569.081054688 509.5 509.35546875 542.8515625 c 0
 470.293945312 564.663085938 411.202148438 557.682617188 384.595703125 530.607421875 c 0
 327.330078125 472.334960938 389.532226562 377.337890625 415.23828125 338.080078125 c 5
 428.387695312 341.456054688 474.848632812 359.012695312 497.984375 366.462890625 c 1
 499.958007812 358.891601562 513.317382812 316.380859375 517.681640625 304.732421875 c 1
 428.536132812 270.526367188 310.294921875 255.708007812 308.36328125 255.646484375 c 0
 196.680664062 252.072265625 147.004882812 294.541015625 124.982421875 335.357421875 c 0
 91.26171875 397.8515625 123.571289062 579.959960938 133.7109375 611.32421875 c 1
 142.701171875 607.126953125 185.747070312 590.71484375 200.80078125 584.09765625 c 1
 168.852539062 515.884765625 168.8359375 390.086914062 186.4375 361.41796875 c 0
 221.376953125 304.500976562 319.4765625 318.666015625 348.595703125 322.87109375 c 5
 272.526367188 451.598632812 303.604492188 525.698242188 319.34375 550.462890625 c 0
 344.877929688 590.642578125 409.244140625 635.590820312 482.046875 622.405273438 c 0
 541.66015625 611.607421875 581.415039062 567.862304688 583.83984375 565.140625 c 0
 620.248046875 524.274414062 633.046875 491 633.046875 403 c 1
 633.046875 366 633.046875 334.990234375 633.046875 288.8046875 c 1
 633.046875 272.530273438 633.399414062 228.810546875 687.857421875 228.810546875 c 0
 732.465820312 228.810546875 806.576171875 238.01171875 843.966796875 314.484375 c 0
 876 380 865.711914062 456.68359375 864.23828125 467 c 0
 850.021484375 566.58203125 805 615 758 650.368164062 c 0
 684.524414062 705.66015625 627 718 559 732 c 1
 575 797 l 1
EndSplineSet
LCarets2: 1 0
Ligature2: "'liga' Standard Ligatures in Latin lookup 1-1" raar a_saau
EndChar

StartChar: ri
Encoding: 77 57373 57
Width: 852
VWidth: 1024
Flags: HW
HStem: 152.353 66.9385<331.388 594.585>
VStem: 111.217 69.7773<385.909 605.021> 710.025 65.1582<319.121 408.182 425.09 614.408>
AnchorPoint: "u_sait" 904 392 basechar 0
AnchorPoint: "pangnau" 1024.29 373.508 basechar 0
AnchorPoint: "saau_maam" 418.292 29.5078 basechar 0
AnchorPoint: "saau" 748.292 353.508 basechar 0
LayerCount: 3
Fore
SplineSet
461.40625 650.18359375 m 0
 530.974609375 759.649414062 696.43359375 736.629882812 750.583984375 636 c 0
 775.234375 590.190429688 775.234375 546 775.234375 441.1640625 c 0
 775.18359375 386 l 17
 775.18359375 204.2421875 580.983398438 154.5234375 465.18359375 152.352539062 c 0
 258.416015625 148.4765625 170.520507812 263.151367188 136.9296875 330 c 0
 84.470703125 434.39453125 99.9072265625 568.84375 111.216796875 618.548828125 c 1
 180.994140625 605.021484375 l 1
 164.810546875 532.009765625 167.239257812 429.676757812 201.153320312 360 c 0
 260.908203125 237.23046875 385.91796875 217.821289062 466.18359375 219.291015625 c 0
 666.126953125 222.952148438 710.025390625 321.950195312 710.025390625 408.181640625 c 2
 710.025390625 425.08984375 l 2
 710.025390625 513.254882812 710.025390625 557.154296875 701.916992188 586 c 0
 673.693359375 686.41015625 516.958984375 681.831054688 505.58984375 578.66796875 c 0
 499.6796875 525.0390625 534.026367188 461.276367188 557.30078125 437.80078125 c 1
 570.450195312 441.176757812 616.909179688 458.733398438 640.044921875 466.18359375 c 1
 642.018554688 458.612304688 655.380859375 416.1015625 659.744140625 404.453125 c 1
 570.59765625 370.247070312 452.358398438 355.428710938 450.42578125 355.3671875 c 0
 338.74609375 351.793945312 289.068359375 394.260742188 267.04296875 435.078125 c 0
 233.318359375 497.583007812 265.65234375 679.7421875 275.771484375 711.044921875 c 1
 284.76171875 706.84765625 327.809570312 690.435546875 342.86328125 683.818359375 c 1
 310.854492188 615.4765625 310.942382812 489.739257812 328.5 461.138671875 c 0
 363.444335938 404.221679688 461.544921875 418.387695312 490.658203125 422.591796875 c 1
 460.729492188 477.274414062 410.712890625 570.411132812 461.40625 650.18359375 c 0
EndSplineSet
LCarets2: 1 0
Ligature2: "'liga' Standard Ligatures in Latin lookup 1-1" raar i_saau
EndChar

StartChar: ru
Encoding: 78 57374 58
Width: 926
VWidth: 1024
Flags: HW
HStem: 181.947 65.0605<607.452 747.619> 428.967 65.0137<608.151 764.516>
VStem: 509.451 65.6523<283.464 354.232 464.467 637.933> 795.902 65.0254<290.493 397.972>
AnchorPoint: "u_sait" 1028 410 basechar 0
AnchorPoint: "pangnau" 1066.74 400.549 basechar 0
AnchorPoint: "saau_maam" 392.741 48.5488 basechar 0
AnchorPoint: "saau" 545 372.549 basechar 0
LayerCount: 3
Fore
SplineSet
407.208984375 744.3046875 m 0
 450.955078125 743.018554688 493.998046875 725.672851562 524 692 c 0
 573.58984375 636.337890625 575.2421875 582.317382812 575.07421875 464.466796875 c 1
 645.826171875 493.98046875 676.428710938 493.98046875 697.041015625 493.98046875 c 0
 797.7421875 493.98046875 860.927734375 421.993164062 860.927734375 346.166015625 c 2
 860.927734375 346.1640625 l 2
 860.927734375 256.850585938 778.189453125 181.947265625 673.494140625 181.947265625 c 0
 546.579101562 181.947265625 516.2265625 283.75390625 509.451171875 345.029296875 c 0
 509.451171875 348.260742188 509.455078125 351.322265625 509.4609375 354.232421875 c 1
 328 164 283.999023438 111.149414062 283.490234375 110.548828125 c 0
 261.103515625 129.322265625 233.73828125 152.35546875 200.1640625 187.6796875 c 0
 170.479492188 218.911132812 136.615234375 257.424804688 115.748046875 276.66796875 c 1
 170.55859375 326.896484375 l 1
 184.290039062 303.588867188 204.109375 279.827148438 231.958984375 251.35546875 c 0
 252.115234375 230.749023438 264.801757812 215.421875 281.076171875 205.515625 c 1
 305 233 395.271484375 336.211914062 510.052734375 426.716796875 c 0
 510.305664062 426.916015625 510.052734375 427.36328125 510.052734375 427.689453125 c 2
 510.052734375 457.904296875 l 2
 510.052734375 551.62109375 520 614 472.607421875 654 c 0
 426.490234375 692.923828125 340.703125 689.565429688 313.611328125 630 c 0
 297.162109375 593.83203125 300.399414062 544.421875 357.1171875 457.80078125 c 1
 370.266601562 461.176757812 398 475 439.86328125 496.18359375 c 1
 441.836914062 488.612304688 455.197265625 446.1015625 459.560546875 434.453125 c 1
 315.333007812 375 252.173828125 375.428710938 250.2421875 375.3671875 c 0
 138.5625 371.79296875 88.8857421875 414.259765625 66.861328125 455.076171875 c 0
 33.13671875 517.583984375 65.470703125 699.741210938 75.58984375 731.044921875 c 1
 84.580078125 726.84765625 127.625976562 710.435546875 142.6796875 703.818359375 c 1
 110.706054688 635.54296875 110.737304688 509.778320312 128.318359375 481.138671875 c 0
 163.262695312 424.221679688 261.346679688 438.385742188 290.474609375 442.591796875 c 1
 259.338867188 496.680664062 212.834960938 594.03515625 261.224609375 670.18359375 c 0
 293.559570312 721.0625 350.96484375 745.958007812 407.208984375 744.3046875 c 0
694.171875 428.966796875 m 0
 662.466796875 428.329101562 622.958984375 417.701171875 575.103515625 391.609375 c 1
 575.103515625 334.010742188 575.103515625 247.0078125 674.51953125 247.0078125 c 0
 738.790039062 247.0078125 795.90234375 290.709960938 795.90234375 346.4609375 c 0
 795.90234375 383.4296875 763.921875 430.37109375 694.171875 428.966796875 c 0
EndSplineSet
LCarets2: 1 0
Ligature2: "'liga' Standard Ligatures in Latin lookup 1-1" raar u_saau
EndChar

StartChar: ro
Encoding: 79 57375 59
Width: 860
VWidth: 1024
Flags: HW
HStem: 406.939 65.2207<374.782 455.097 589.174 680.322>
VStem: 524.051 65<258.871 322.612 472.16 618.546>
AnchorPoint: "u_sait" 936 474 basechar 0
AnchorPoint: "pangnau" 1022.74 382.844 basechar 0
AnchorPoint: "saau_maam" 406.741 26.8438 basechar 0
AnchorPoint: "saau" 559.741 350.844 basechar 0
LayerCount: 3
Fore
SplineSet
275.224609375 664.18359375 m 0
 329.964422518 750.312209649 461.51723981 766.636510131 539.71875 678.861328125 c 0
 590.146621738 622.259919671 589.767859248 563.741274477 589.173828125 472.16015625 c 1
 705 472 794 426 855 358 c 5
 791 290 l 1
 741 358 666 410 589.05078125 406.939453125 c 1
 589.05078125 318.334960938 l 2
 589.05078125 237.168887703 535.230016553 195.100379873 511.546875 180.517578125 c 0
 450.012599083 142.62808849 349.937304239 140.741982856 294.904296875 193.98046875 c 0
 225.883735127 260.750401542 261.628963273 357.13205837 266.61328125 369.484375 c 1
 153.209334763 365.14422389 103.011202163 408.025333581 80.861328125 449.078125 c 0
 47.1377126858 511.581801009 79.4697265625 693.73828125 89.58984375 725.044921875 c 1
 98.580078125 720.848632812 141.625976562 704.436523438 156.6796875 697.818359375 c 1
 124.700195312 629.538085938 124.741911408 503.767316585 142.318359375 475.138671875 c 0
 177.260217932 418.22512165 275.34971921 432.388057047 304.474609375 436.59375 c 1
 278.37733059 480.756643662 220.689901797 578.377694671 275.224609375 664.18359375 c 0
473.541015625 653.357421875 m 0
 437.42560704 677.40178601 370.588762167 674.970893752 340.474609375 644.329101562 c 0
 285.878677785 588.776577745 356.72825062 473.776869956 371.1171875 451.801757812 c 1
 384.266601562 455.176757812 430.727539062 462.734375 453.86328125 470.184570312 c 1
 455.836914062 462.61328125 469.196289062 420.1015625 473.560546875 408.454101562 c 1
 446.6328125 398.12109375 394.775110181 389.047635283 347.83203125 379.905273438 c 1
 308.910369825 333.614123668 309.34959893 270.430563913 340.091796875 240.692382812 c 0
 373.123055298 208.73990021 441.603963466 213.775324748 477.47265625 235.860351562 c 0
 523.554411507 264.233752472 523.933666787 312.776781715 523.509765625 322.612304688 c 1
 524.05078125 322.634765625 l 1
 524.05078125 451.904296875 l 2
 524.05078125 531.084541956 524.05078125 619.729802954 473.541015625 653.357421875 c 0
EndSplineSet
LCarets2: 1 0
Ligature2: "'liga' Standard Ligatures in Latin lookup 1-1" raar o_saau
EndChar

StartChar: sa
Encoding: 80 57376 60
Width: 824
VWidth: 1024
Flags: HW
HStem: 177 63.2747<389.619 579.961>
VStem: 264 66<295.63 378 431.374 495> 674.349 64.6338<353.983 571.097>
AnchorPoint: "u_sait" 876 325 basechar 0
AnchorPoint: "pangnau" 958 435 basechar 0
AnchorPoint: "saau_maam" 320 46 basechar 0
AnchorPoint: "saau" 302 370 basechar 0
LayerCount: 3
Fore
SplineSet
264.8359375 773 m 1
 330 773 l 1
 330 620 l 1
 441 630 510.586202848 607.209102748 546 562 c 0
 593 502 582 400 477 355 c 0
 425.49748219 332.927492367 364 344 329 385 c 1
 329 371 l 2
 329 258.067804959 428.169354218 242.170797074 467.000002523 240.274714403 c 0
 553.344239399 236.058565086 645.763620887 278.115281795 677.142548073 352.00000782 c 0
 702.377859433 411.418994806 689.255029675 485.402070264 674.348632812 569.440429688 c 1
 738.982421875 584.736328125 l 1
 756.927752979 479.123958529 760.7256298 401.758117535 737 339 c 0
 706 257 618 170.625976562 468 177 c 0
 307.622070312 183.814453125 264 275.272748223 264 378 c 2
 264 378 264 540.854492188 264 553 c 1
 225.623046875 550.943359375 138.796875 538.224609375 64 528 c 1
 63.375 533.833984375 55 585.56640625 54 590 c 1
 199 608 212.270507812 609.612304688 265 615 c 1
 264.8359375 773 l 1
489 532 m 0
 457.579101562 567.51953125 379 563 330 557 c 1
 330 495 l 2
 330 467.784461763 336.892663613 446.900717558 348 435 c 0
 362 420 393.626412664 397.936626996 451 408 c 0
 499.116107617 416.439603673 535 480 489 532 c 0
EndSplineSet
LCarets2: 1 0
Ligature2: "'liga' Standard Ligatures in Latin lookup 1-1" saas a_saau
EndChar

StartChar: si
Encoding: 81 57377 61
Width: 833
VWidth: 1024
Flags: HW
HStem: 172.01 64.7129<224.65 407.409> 561 63<520.142 673.091> 771 20G<454.999 455>
VStem: 455 65.1416<284.145 377 435.392 492>
AnchorPoint: "u_sait" 778 366 basechar 0
AnchorPoint: "pangnau" 904 350 basechar 0
AnchorPoint: "saau_maam" 380 46 basechar 0
AnchorPoint: "saau" 486 380 basechar 0
LayerCount: 3
Fore
SplineSet
455 791 m 1
 454.999023438 791 l 1
 520.140625 791 l 1
 520.140625 624 l 1
 612.140625 628 677.443359375 624.877929688 728.140625 575 c 0
 773.422851562 530.44921875 789.190429688 414.369140625 674.140625 362 c 0
 598.708984375 327.6640625 546.140625 360 519.140625 389 c 1
 519.09765625 368 l 2
 518.453125 308.986328125 516.958007812 172.009765625 300.140625 172.009765625 c 0
 189.260742188 172.009765625 119.314453125 239.3203125 89.931640625 310.419921875 c 0
 58.3330078125 386.880859375 51.7490234375 462.934570312 65.4462890625 537.98828125 c 0
 76.4697265625 598.384765625 110.6015625 654.100585938 148.56640625 702.348632812 c 0
 184.303710938 747.764648438 226.370117188 781.125976562 280.538085938 814.783203125 c 1
 280.538085938 814.783203125 300.134765625 774.8515625 314.1640625 749.745117188 c 1
 264.0234375 736.46875 225.510742188 697.443359375 193.796875 658.282226562 c 0
 163.375976562 620.716796875 141.0078125 574.590820312 131.977539062 527.103515625 c 0
 120.861328125 468.650390625 123.518554688 404.76171875 143.4921875 348.97265625 c 0
 170.88671875 272.453125 239.58984375 238.072265625 308.140625 236.72265625 c 0
 449.669921875 233.9375 453.350585938 314.295898438 455 377 c 0
 456.022460938 415.85546875 455 469.358398438 455 557 c 1
 416.623046875 554.944335938 328.938476562 542.224609375 254.141601562 532 c 1
 254.141601562 533 245.141601562 591 244.141601562 594 c 1
 383.141601562 611 402.270507812 613.611328125 455 619 c 1
 455 791 l 1
674.141601562 540 m 0
 636.504882812 572.447265625 550.709960938 564.197265625 520.141601562 561 c 1
 520.141601562 492 l 2
 520.141601562 460.506835938 533.141601562 444 547.141601562 430 c 0
 556.229492188 420.913085938 610.244140625 392.610351562 662.141601562 420 c 0
 698.141601562 439 725.090820312 496.077148438 674.141601562 540 c 0
EndSplineSet
LCarets2: 1 0
Ligature2: "'liga' Standard Ligatures in Latin lookup 1-1" saas i_saau
EndChar

StartChar: su
Encoding: 82 57378 62
Width: 813
VWidth: 1024
Flags: HW
VStem: 400.582 64.998<300.025 385 497.177 527.74> 697.232 64<305.292 412.337>
AnchorPoint: "u_sait" 860 306 basechar 0
AnchorPoint: "pangnau" 973.232 417 basechar 0
AnchorPoint: "saau_maam" 435.232 83 basechar 0
AnchorPoint: "saau" 437.232 407 basechar 0
LayerCount: 3
Fore
SplineSet
400.58203125 822 m 1
 465.580078125 822 l 1
 465.580078125 659 l 1
 564.232421875 667 645.018554688 652.155273438 683.232421875 599 c 0
 726.54296875 538.756835938 705.298828125 497.76953125 699.232421875 474 c 1
 725.232421875 450 753.232421875 430 761.232421875 371 c 1
 763.232421875 297 726.431640625 244.649414062 671.232421875 218 c 0
 585.750976562 176.73046875 496.232421875 201 458.232421875 233 c 0
 419.150390625 265.911132812 400.232421875 298 400.232421875 385 c 2
 400.232421875 427.671875 l 1
 364.833007812 429.40625 333.541015625 413.962890625 311.322265625 391.767578125 c 0
 283.120117188 363.594726562 270.569335938 321.302734375 268.900390625 289.8359375 c 0
 267.231445312 258.369140625 278.208007812 218.748046875 291.080078125 194.5625 c 1
 230.271484375 174.607421875 l 1
 212 208 172 257 146 285 c 0
 116.409179688 316.8671875 75.259765625 368.3203125 36 402.65625 c 1
 85.58984375 459.5859375 l 5
 129.119140625 401.983398438 199.6484375 327.845703125 212.833984375 314.337890625 c 1
 218 355 231.86328125 396.696289062 264 431 c 0
 297.541992188 466.803710938 348 487 400.32421875 497.173828125 c 0
 400.594752321 497.226430192 401 498.724609375 401 499 c 2
 400.0859375 590 l 1
 363.668945312 587.904296875 273.896484375 575.392578125 199.232421875 565 c 1
 190.232421875 629 l 1
 298.232421875 642 351.232421875 650 400.58203125 654 c 1
 400.58203125 822 l 1
523.201171875 597.517578125 m 0
 505.924804688 597.465820312 486.743164062 596.25 465.580078125 594 c 1
 465.580078125 527.740234375 l 2
 465.580078125 502.329101562 476.775390625 483.623046875 489.232421875 469 c 0
 512.232421875 442 575.431640625 439.3125 608.232421875 455 c 0
 631.232421875 466 668.705078125 513.788085938 629.232421875 563 c 0
 609.702148438 587.348632812 575.029296875 597.673828125 523.201171875 597.517578125 c 0
465.58203125 435.09765625 m 1
 465.58203125 406.999023438 465.232421875 402 465.232421875 379 c 0
 464.727539062 336.049804688 480.479492188 300.322265625 502.982421875 283 c 0
 539.326171875 255.024414062 596.484375 257.333984375 638.232421875 278 c 0
 670.08984375 293.76953125 697.232421875 315 697.232421875 360 c 0
 697.232421875 397 681.231445312 412 655.322265625 424.90625 c 1
 650.587890625 421.505859375 l 2
 611.333007812 393.310546875 571.029296875 389.740234375 553.150390625 389.740234375 c 0
 497.986328125 389.740234375 470.24609375 428.01171875 465.58203125 435.09765625 c 1
EndSplineSet
LCarets2: 1 0
Ligature2: "'liga' Standard Ligatures in Latin lookup 1-1" saas u_saau
EndChar

StartChar: so
Encoding: 83 57379 63
Width: 715
VWidth: 1024
Flags: HW
HStem: 420 59.3477<165.582 322.706>
VStem: 356.885 65<268.178 391.151 456.825 506.987>
AnchorPoint: "u_sait" 578 311 basechar 0
AnchorPoint: "pangnau" 786.538 315 basechar 0
AnchorPoint: "saau_maam" 289.538 75 basechar 0
AnchorPoint: "saau" 393.538 399 basechar 0
LayerCount: 3
Fore
SplineSet
421.884765625 797 m 1
 421.884765625 645.043945312 l 1
 525.538085938 655 599.118164062 634.479492188 633.487304688 592.278320312 c 0
 691.538085938 521 663.538085938 433 594.538085938 392 c 0
 520.780273438 348.172851562 457.538085938 371 421.538085938 409 c 1
 421.538085938 382 420.838867188 318.751953125 418.73828125 302 c 0
 410.796875 238.665039062 372.881835938 191.766601562 313 172 c 0
 210 138 86 182 67.4658203125 276.748046875 c 0
 59.0791015625 319.623046875 63.6767578125 377.934570312 99.197265625 418 c 0
 132 455 179.287109375 479.470703125 236.092773438 479.34765625 c 0
 289.421875 479.231445312 338.280273438 459.033203125 356.598632812 445.787109375 c 1
 356.388671875 579 l 1
 317.538085938 575.581054688 230.458984375 564.428710938 155.538085938 554 c 1
 146.87109375 615.196289062 l 1
 298.538085938 635 308.538085938 636 356.884765625 640.649414062 c 1
 356.884765625 797 l 1
 421.884765625 797 l 1
583.538085938 549 m 0
 543.951171875 593.247070312 460.19140625 586.240234375 421.538085938 583 c 1
 421.884765625 506.987304688 l 2
 422.001953125 481.1953125 431.841796875 467.424804688 446.055664062 454.365234375 c 0
 472.831054688 429.76171875 529.453125 419.74609375 564.603515625 441.229492188 c 0
 607.892578125 467.6875 613.248046875 515.791992188 583.538085938 549 c 0
126 297 m 0
 140 226 221 209 283 229.149414062 c 0
 319.307617188 240.94921875 340.341796875 265.029296875 350.458007812 298 c 0
 355.602539062 314.767578125 356.760742188 363.177734375 356.760742188 377.958984375 c 1
 336.4921875 394.064453125 285.262695312 418.780273438 239 420 c 0
 203.25 420.942382812 166.801757812 407.418945312 146 380 c 0
 126.375976562 354.133789062 121.171875 321.484375 126 297 c 0
EndSplineSet
LCarets2: 1 0
Ligature2: "'liga' Standard Ligatures in Latin lookup 1-1" saas o_saau
EndChar

StartChar: ya
Encoding: 84 57380 64
Width: 1000
VWidth: 1024
Flags: HW
HStem: 155.501 65.1309<637.463 773.644>
VStem: 551.363 67.7607<318.655 376.993 450.438 463.019 495 589.759> 869.652 65.0039<313.257 519.462>
AnchorPoint: "u_sait" 1112 458 basechar 0
AnchorPoint: "sangau" 553 770 basechar 0
AnchorPoint: "pangnau" 1139 323.933 basechar 0
AnchorPoint: "saau_maam" 437 55.9326 basechar 0
AnchorPoint: "saau" 587 379.933 basechar 0
LayerCount: 3
Fore
SplineSet
441.505859375 680.665039062 m 1
 454.166015625 617.227539062 l 1
 427.8203125 607.489257812 394.10546875 592.560546875 381.30078125 564.315429688 c 0
 374.748046875 549.86328125 373.05859375 533.162109375 373.771484375 517.309570312 c 0
 376.411132812 458.619140625 427.930664062 440.528320312 448.9921875 437.043945312 c 0
 498.55078125 428.845703125 540.00390625 454.967773438 551.36328125 463.018554688 c 1
 551.591796875 481.94140625 551.201171875 473.716796875 551.201171875 496.756835938 c 0
 551.201171875 570.631835938 523.375 602.583984375 502.349609375 628.379882812 c 1
 556.5234375 673.063476562 l 1
 588.431640625 623.771484375 619.124023438 600.55859375 619.124023438 495 c 0
 619.126953125 318.920898438 l 1
 619.146484375 318.655273438 l 2
 620.068359375 305.55859375 621.368164062 254.064453125 640.951171875 238.120117188 c 0
 659.063476562 223.372070312 681.393554688 220.631835938 695.478515625 220.631835938 c 0
 741.052734375 220.631835938 806.494140625 248.33984375 839.681640625 296.682617188 c 0
 860.411132812 326.877929688 869.65234375 366.278320312 869.65234375 406.379882812 c 0
 869.65234375 475.267578125 843.725585938 547.834960938 799.76953125 608.243164062 c 1
 851.580078125 647.512695312 l 1
 924.40625 548.020507812 934.65625 452.1953125 934.65625 406.139648438 c 0
 934.65625 208.456054688 766.127929688 155.500976562 696.07421875 155.500976562 c 0
 623.44140625 155.500976562 576.022460938 197.901367188 560.94140625 243.418945312 c 0
 555.68359375 259.287109375 552.9140625 305.44140625 552.9140625 376.993164062 c 1
 552.9140625 387.135742188 552.96875 391.5078125 553.10546875 397.204101562 c 1
 490.833007812 369.177734375 446.83984375 369.793945312 419.73046875 376.120117188 c 0
 369.400390625 387.865234375 339.994140625 418.592773438 323.005859375 453.356445312 c 0
 311.397460938 477.111328125 296.4140625 538.331054688 320.953125 593.659179688 c 1
 248.750976562 567.961914062 119.827148438 562.688476562 40.166015625 557.604492188 c 5
 40 645.249023438 l 5
 156.845703125 616.170898438 329.372070312 649.83203125 441.505859375 680.665039062 c 1
EndSplineSet
LCarets2: 1 0
Ligature2: "'liga' Standard Ligatures in Latin lookup 1-1" yaai a_saau
EndChar

StartChar: yi
Encoding: 85 57381 65
Width: 767
VWidth: 1024
Flags: HW
HStem: 425.312 65.8955<588.514 637> 601.849 20G<365.665 389.494>
VStem: 66 72.4785<399.62 480.058> 637 64<297.129 425.312 479.299 612.801>
AnchorPoint: "u_sait" 804 379 basechar 0
AnchorPoint: "pangnau" 922.479 306 basechar 0
AnchorPoint: "saau_maam" 397.52 46 basechar 0
AnchorPoint: "saau" 671.479 399 basechar 0
LayerCount: 3
Fore
SplineSet
637.333984375 701.251953125 m 1
 673 662 701 596 701 523 c 1
 701 375 l 1
 698 281 669 224 597.478515625 184.787109375 c 0
 500.311180446 131.513437554 343.421875 122.587890625 247.478515625 171 c 0
 138.478515625 226 102.478515625 313 66 478.033203125 c 1
 138.478515625 499 l 1
 158.478515625 390 173.4609375 303.591796875 262.478515625 246 c 0
 368.184570312 177.611328125 513.478515625 221 541.935546875 232.938476562 c 0
 625.01953125 267.793945312 637 334 637 425.311523438 c 1
 599.421875 408.217773438 568.995117188 407.983398438 555.274414062 406.671875 c 0
 463.709909688 397.91948145 421.889648438 444.565429688 403.818359375 481.545898438 c 0
 392.208007812 505.303710938 377.22265625 566.52734375 401.765625 621.848632812 c 1
 329.563476562 596.151367188 200.637695312 590.877929688 120.9765625 585.793945312 c 5
 120.810546875 673.438476562 l 5
 237.65625 644.360351562 410.184570312 678.021484375 522.318359375 708.854492188 c 1
 534.977539062 645.416015625 l 1
 508.670898438 635.694335938 474.921875 620.760742188 462.112304688 592.50390625 c 0
 455.559570312 578.051757812 453.869140625 561.350585938 454.58203125 545.498046875 c 0
 457.216796875 486.915039062 508.575195312 468.744140625 529.803710938 465.233398438 c 0
 579.363627368 457.037248858 625.647460938 483.161132812 637 491.20703125 c 1
 638.14715309 586.200131342 628.31665405 601.170851925 583.16015625 656.568359375 c 1
 637.333984375 701.251953125 l 1
EndSplineSet
LCarets2: 1 0
Ligature2: "'liga' Standard Ligatures in Latin lookup 1-1" yaai i_saau
EndChar

StartChar: yu
Encoding: 86 57382 66
Width: 935
VWidth: 1024
Flags: W
HStem: 160.951 65.0488<632.505 770.564> 417.955 65.0039<621.427 776.857> 696.184 20G<365.439 425.497 512.277 552.479>
VStem: 531 68.127<260.275 345.465 489.486 625.278> 811.676 65.0742<265.878 386.187>
AnchorPoint: "u_sait" 986 350 basechar 0
AnchorPoint: "pangnau" 1081 348.275 basechar 0
AnchorPoint: "saau_maam" 419 70.2754 basechar 0
AnchorPoint: "saau" 569 394.275 basechar 0
LayerCount: 3
Fore
SplineSet
421.505859375 716.18359375 m 1
 434.166015625 652.74609375 l 1
 423.865234375 648.938476562 398.833984375 639.1328125 384.259765625 627.509765625 c 0
 369.1953125 615.497070312 351.774414062 597.227539062 353.771484375 552.828125 c 0
 355.309570312 518.618164062 373.750976562 500.000976562 384.4140625 492.033203125 c 0
 449.837890625 443.146484375 523.705078125 496.829101562 531 502 c 1
 531 532.275390625 l 2
 531 606.150390625 503.375 638.102539062 482.349609375 663.8984375 c 1
 536.525390625 708.58203125 l 1
 568.43359375 659.290039062 599.126953125 636.076171875 599.126953125 530.517578125 c 2
 599.126953125 458.03515625 l 1
 622 467.275390625 657 482.275390625 708.287109375 482.958984375 c 0
 817.822265625 484.418945312 876.75 407.91796875 876.75 328.3515625 c 0
 876.75 250.264648438 812.998046875 160.951171875 698.3984375 160.951171875 c 0
 639.674804688 160.951171875 602.826171875 184.086914062 577 212.109375 c 0
 543 249 533.255859375 292 533.255859375 343.8046875 c 0
 533.255859375 344.358398438 533.254882812 344.911132812 533.25390625 345.46484375 c 1
 509.163085938 327.162109375 467.551757812 292.489257812 440.490234375 267.673828125 c 0
 395.787109375 226.680664062 341.567382812 170.974609375 313.271484375 137.580078125 c 1
 290.884765625 156.353515625 238.7578125 203.232421875 205.18359375 238.556640625 c 0
 175.499023438 269.788085938 133.837890625 319.764648438 112.970703125 339.0078125 c 1
 167.783203125 389.236328125 l 1
 181.514648438 365.928710938 209.12890625 330.702148438 236.978515625 302.23046875 c 0
 257.134765625 281.624023438 294.584960938 242.453125 310.859375 232.546875 c 1
 336.390625 262.157226562 378.626953125 301.94921875 415.927734375 332.806640625 c 0
 450.201171875 361.16015625 501.869140625 400.403320312 532 418.693359375 c 1
 532 439.275390625 l 1
 510 419.275390625 461.522460938 410.14453125 454 409.224609375 c 0
 416.081054688 404.58984375 384.967773438 412.172851562 360 426.927734375 c 0
 325.770507812 447.155273438 308.4609375 477.7109375 303.005859375 488.875 c 0
 291.397460938 512.629882812 276.4140625 573.849609375 300.953125 629.177734375 c 1
 228.750976562 603.48046875 99.8271484375 598.20703125 20.166015625 593.123046875 c 5
 20 680.767578125 l 5
 136.845703125 651.689453125 309.372070312 685.350585938 421.505859375 716.18359375 c 1
708.150390625 417.955078125 m 2
 655.284179688 417.955078125 618.927734375 396.126953125 599.958984375 383.275390625 c 1
 599.958984375 340.6875 l 2
 599.958984375 305.830078125 606.497070312 274.920898438 625.619140625 254 c 0
 641.60546875 236.509765625 666.390625 226 703.501953125 226 c 0
 769 226 811.67578125 273.590820312 811.67578125 329.4609375 c 0
 811.67578125 366.8828125 786.305664062 417.955078125 708.15234375 417.955078125 c 2
 708.150390625 417.955078125 l 2
EndSplineSet
Validated: 33
LCarets2: 1 0
Ligature2: "'liga' Standard Ligatures in Latin lookup 1-1" yaai u_saau
EndChar

StartChar: yo
Encoding: 87 57383 67
Width: 860
VWidth: 1024
Flags: HW
VStem: 523 66.9199<258.816 354 510.773 601.966>
AnchorPoint: "u_sait" 930 446 basechar 0
AnchorPoint: "pangnau" 998 333 basechar 0
AnchorPoint: "saau_maam" 390 27 basechar 0
AnchorPoint: "saau" 560.8 351 basechar 0
LayerCount: 3
Fore
SplineSet
411.505859375 696.4375 m 1
 424.169921875 633 l 1
 413.869140625 629.192382812 388.836914062 619.38671875 374.263671875 607.763671875 c 0
 359.19921875 595.750976562 341.778320312 577.481445312 343.775390625 533.08203125 c 0
 347.375 453.03125 446.77734375 425.922851562 521.3671875 478.791015625 c 1
 521.595703125 497.713867188 521.205078125 489.489257812 521.205078125 512.529296875 c 0
 521.205078125 586.404296875 493.37890625 618.356445312 472.353515625 644.15234375 c 1
 526.52734375 688.8359375 l 1
 558.435546875 639.543945312 589.12890625 616.33203125 589.12890625 510.7734375 c 2
 589.12890625 480.91015625 l 1
 589.391601562 480.958984375 589.653789282 481.090085917 589.919921875 481.068359375 c 0
 701 472 770 440 846 371 c 1
 798 305 l 1
 725 390 641 418 589.919921875 415.697265625 c 1
 589.919921875 335 l 2
 589.919921875 277 578 237 549.090820312 209 c 0
 501.530273438 162.935546875 415.352539062 142.341796875 340 168 c 0
 298.885742188 182 242 227 246.296875 309.2734375 c 0
 250.64453125 392.51953125 312 436 313.85546875 437.408203125 c 1
 266.469726562 493.288085938 273.254882812 569.526367188 290.953125 609.431640625 c 1
 218.750976562 583.734375 89.8271484375 578.4609375 10.166015625 573.376953125 c 5
 10 661.021484375 l 5
 126.845703125 631.943359375 299.372070312 665.604492188 411.505859375 696.4375 c 1
523.10546875 412.9765625 m 1
 455.891601562 382.7265625 408.890625 384.163085938 371.966796875 397.068359375 c 1
 325.73828125 379.481445312 311.322265625 336.08984375 311.322265625 309.330078125 c 0
 311.322265625 279.921875 321.81640625 259.736328125 337 246.237304688 c 0
 369.743164062 217.125 426.536132812 216.666992188 470 237.059570312 c 0
 521.248046875 261.103515625 523 289.661132812 523 354 c 0
 523 364.142578125 522.96875 407.280273438 523.10546875 412.9765625 c 1
  Spiro
    462.309 392.551 o
    412.58 388.738 o
    371.967 397.068 v
    335.725 372.482 o
    316.76 340.029 o
    311.322 309.33 o
    314.599 282.926 o
    323.606 262.041 o
    337 246.237 o
    376.331 226.398 o
    423.526 223.912 o
    470 237.06 o
    506.494 263.736 o
    520.654 300.474 o
    523 354 o
    522.997 372.508 o
    523.017 397.431 o
    523.105 412.977 v
    0 0 z
  EndSpiro
EndSplineSet
LCarets2: 1 0
Ligature2: "'liga' Standard Ligatures in Latin lookup 1-1" yaai o_saau
EndChar

StartChar: wa
Encoding: 88 57384 68
Width: 949
VWidth: 1024
Flags: HW
VStem: 313.551 65.1191<436.676 591.952> 515 67.5352<279.509 377 470 574.014> 822 68<319.377 551.946>
AnchorPoint: "u_sait" 1006 380 basechar 0
AnchorPoint: "pangnau" 1078.98 324 basechar 0
AnchorPoint: "saau_maam" 461.978 56 basechar 0
AnchorPoint: "saau" 553.978 380 basechar 0
LayerCount: 3
Fore
SplineSet
675 772 m 5
 748.307617188 738.959960938 801.091796875 688.37109375 832 642 c 4
 887.748692962 558.361107849 889.33984375 467.924804688 890 430 c 4
 891.133663494 364.873044689 875.631410191 301.861013896 842 256 c 4
 779.836454747 171.231529201 638 158 569.752047213 214.000001258 c 4
 518.328642483 256.194830729 515 320.305664062 515 377 c 5
 515.416992188 401.587890625 515.453125 433 515.453125 470 c 4
 515.453125 548.765625 493.467407539 588.696972205 461.999998691 604.2994946 c 4
 436.337675239 617.023674666 405.620235881 613.567157165 378.669921875 601.796875 c 5
 378.7421875 485.174804688 382 407 302 360 c 4
 246.091588303 327.153808128 120 337 82 422 c 4
 54.8017578125 482.837890625 63.5859375 561.774414062 116.903320312 614.146484375 c 4
 163.033451059 659.458731967 253.921875 667.154296875 333.837890625 651.84765625 c 5
 375.974061044 675.020487851 423.914284614 679.212170599 465.000002197 669.714438695 c 4
 496.877900035 662.345266507 524.629374774 646.735045737 542.341796875 625.35546875 c 4
 563.789071375 599.467780791 582.977539062 560 582.977539062 492 c 5
 582.977539062 444 582.53515625 413 582.53515625 376 c 4
 582.53515625 342.447698538 581 291 616.999998928 265.798960677 c 4
 654.812263105 239.329283321 732.580078125 244.43359375 778 288 c 4
 813.110950638 321.678127926 825.051757812 382.036132812 822 444 c 4
 817.143554688 542.60546875 784.483398438 596.440429688 745 634 c 4
 707.329313006 669.835183213 666.20172281 689.392701636 640 699 c 5
 675 772 l 5
313.55078125 589.311523438 m 5
 266.357421875 596.913085938 215.91015625 594.944335938 191 584 c 4
 133.585723138 558.774901961 122.979492188 502.435546875 135.919921875 460.004882812 c 4
 153 404 224.986404714 391.330383869 271.431640625 417.350585938 c 4
 319 444 313.55078125 540 313.55078125 589.311523438 c 5
EndSplineSet
LCarets2: 1 0
Ligature2: "'liga' Standard Ligatures in Latin lookup 1-1" waau a_saau
EndChar

StartChar: wi
Encoding: 89 57385 69
Width: 816
VWidth: 1024
Flags: HW
VStem: 122.145 70<354.979 580> 498 64.5137<489.251 646.502> 682.145 65<333.019 509 530 624.473>
AnchorPoint: "u_sait" 864 410 basechar 0
AnchorPoint: "pangnau" 937.145 334 basechar 0
AnchorPoint: "saau_maam" 423.145 68 basechar 0
AnchorPoint: "saau" 720.145 390 basechar 0
LayerCount: 3
Fore
SplineSet
511.1796875 702.994140625 m 5
 594 725 649 714.9609375 691 682 c 4
 730.466796875 651.026367188 747.14453125 597.533867741 747.14453125 530 c 5
 747.14453125 509 l 5
 747.14453125 411 760.14453125 286 640.14453125 209 c 4
 560.212890625 157.7109375 401.14453125 150 312.14453125 179 c 4
 229.9296875 205.7890625 179.278320312 265.786132812 152.083007812 326.498046875 c 4
 125.317382812 386.25 115.14453125 449 122.14453125 581 c 5
 192.14453125 580 l 5
 186.14453125 491 188.040039062 400.787109375 218.14453125 345 c 4
 236.055664062 311.809570312 270.02734375 258.134765625 356.14453125 237.588867188 c 4
 392.14453125 229 517.139648438 217.594726562 585.614257812 254.380859375 c 4
 689.14453125 310 682.14453125 414 682.14453125 484 c 5
 682.14453125 534 l 6
 682.14453125 577.642895614 675.199970615 608.086923334 659.99999911 625.824536976 c 4
 629 662 598.548828125 663.795898438 562.513671875 657.306640625 c 5
 566.817382812 559.817382812 560.8359375 529.967773438 550.8359375 496.967773438 c 4
 540.522813288 462.934463538 518.946289062 435.084960938 490 418 c 4
 411.948242188 371.931640625 299.006835938 400.166015625 268 484 c 4
 241.000194693 557.000072009 261.717773438 650.346679688 349 690 c 4
 404.767578125 715.3359375 468 709 511.1796875 702.994140625 c 5
498 642 m 5
 440.3671875 658.365234375 388.72265625 637.630859375 378 633 c 4
 322.863184131 609.187724877 309 558 327 511 c 4
 345.327565203 463.14469086 411.125 446.908203125 456.96484375 473.967773438 c 4
 501.632969877 500.335670899 502.018554688 543.545898438 498 642 c 5
EndSplineSet
LCarets2: 1 0
Ligature2: "'liga' Standard Ligatures in Latin lookup 1-1" waau i_saau
EndChar

StartChar: wu
Encoding: 90 57386 70
Width: 867
VWidth: 1024
Flags: W
VStem: 297.062 59.0098<504.188 645.649> 481.971 63.5918<275.719 395.154 502.822 618.171>
AnchorPoint: "u_sait" 936 404 basechar 0
AnchorPoint: "pangnau" 998.972 326 basechar 0
AnchorPoint: "saau_maam" 380.97 46 basechar 0
AnchorPoint: "saau" 518.97 370 basechar 0
LayerCount: 3
Fore
SplineSet
399.8828125 716.388671875 m 4
 442.892578125 714.671875 476.5625 697.875 496.5625 676 c 4
 534.626953125 634.366210938 545.970703125 573.467773438 545.970703125 502.822265625 c 5
 599.559570312 525.998046875 668.530273438 526.817382812 720.619140625 508.072265625 c 4
 831.970703125 468 817.427734375 347.893554688 816.599609375 337 c 4
 809.671875 245.865234375 734.5625 181 635.5625 184 c 4
 608.291015625 184.826171875 577.517578125 191.317382812 549.5625 208 c 4
 487.5625 245 481.970703125 313 481.970703125 364 c 6
 481.970703125 393.287109375 l 5
 481.970703125 395.154296875 l 5
 448.821289062 370.634765625 396.505859375 326.0234375 342.412109375 264.931640625 c 4
 308.286132812 226.391601562 266.530273438 171.8984375 246.298828125 144.052734375 c 5
 223.912109375 162.826171875 171.78515625 209.70703125 138.2109375 245.03125 c 4
 108.526367188 276.262695312 66.8671875 326.239257812 46 345.482421875 c 5
 100.810546875 395.708984375 l 5
 114.541992188 372.401367188 142.15625 337.176757812 170.005859375 308.705078125 c 4
 190.162109375 288.098632812 222.110351562 256.72265625 238.384765625 246.81640625 c 5
 265.125 277.209960938 300.051757812 316.026367188 332.8515625 348.736328125 c 4
 381.938476562 397.690429688 429.262695312 440.0546875 481.970703125 476.373046875 c 5
 481.970703125 498 l 6
 481.970703125 573.245117188 468.845703125 612.833984375 449.669921875 633 c 4
 425.521484375 658.395507812 384.5625 657 356.072265625 649.1953125 c 5
 359.0625 566 355.017578125 526.271484375 342.6328125 498.4296875 c 4
 328.178710938 465.938476562 302.505859375 440.126953125 271.5625 427 c 4
 189.0625 392 85.0625 425 62.01171875 511.3671875 c 4
 43.013671875 582.549804688 67.462890625 665.606445312 159.0625 697 c 4
 221.611328125 718.4375 262.0625 710 313.31640625 701.03125 c 5
 344.908203125 713.01953125 374.077148438 717.418945312 399.8828125 716.388671875 c 4
233.529296875 649.734375 m 4
 215.3515625 649.395507812 200.017578125 646.145507812 187.0625 642 c 4
 137.0625 626 109.631835938 582.857421875 118.0625 540 c 4
 130.0625 479 195.0625 460 244.0625 481 c 4
 291.731445312 501.4296875 301.0625 544 297.0625 640 c 5
 272.728515625 647.5 251.70703125 650.073242188 233.529296875 649.734375 c 4
657.970703125 451 m 4
 627.0078125 452.17578125 577.065429688 448.544921875 545.5625 428 c 5
 545.552734375 397.951171875 545.5625 384.408203125 545.5625 371 c 4
 545.5625 315.97265625 549.501953125 286.470703125 578.759765625 265 c 4
 600.5625 249 626.907226562 247.967773438 633.970703125 247.357421875 c 4
 693.791992188 242.186523438 746.177734375 282.8515625 751.453125 341 c 4
 756.11328125 392.374023438 736.970703125 448 657.970703125 451 c 4
EndSplineSet
Validated: 33
LCarets2: 1 0
Ligature2: "'liga' Standard Ligatures in Latin lookup 1-1" waau u_saau
EndChar

StartChar: wo
Encoding: 91 57387 71
Width: 866
VWidth: 1024
Flags: HW
HStem: 382.688 64<437.133 592.225>
VStem: 333.225 65.1289<472.999 611.703> 592.225 64<245.559 370 503.021 588.169>
AnchorPoint: "u_sait" 932 372 basechar 0
AnchorPoint: "pangnau" 1023.22 368.688 basechar 0
AnchorPoint: "saau_maam" 409.225 26.6882 basechar 0
AnchorPoint: "saau" 629.225 350.688 basechar 0
LayerCount: 3
Fore
SplineSet
353.291992188 671.069335938 m 5
 421.096679688 706.538085938 509.278320312 707.479492188 573 671.461914062 c 4
 621.779296875 643.891601562 656.224609375 594.521484375 656.224609375 503.021484375 c 5
 656.224609375 454.354492188 656.16796875 470.716796875 656.224609375 438 c 5
 744.684570312 406 793.224609375 351 821.30859375 314.688476562 c 5
 768.271484375 277.126953125 l 5
 732.728515625 327.311523438 687.0546875 358.716796875 656.942382812 370 c 5
 656.942382812 292.202148438 653.130859375 219.979492188 596.081054688 178.688476562 c 4
 527 128.688476562 444 136.688476562 393 163.423828125 c 4
 342.844726562 189.716796875 314.4765625 233.875 319 287.021484375 c 4
 323 334.021484375 347.637695312 380.497070312 387 405.688476562 c 4
 462 453.6875 547 447.688476562 592.224609375 446.688476562 c 5
 592.162109375 464.114257812 592.224609375 475.793945312 592.224609375 506.688476562 c 5
 592.224609375 568.369140625 567.043945312 604.915039062 533 623.364257812 c 4
 491.4296875 645.891601562 436.643554688 641.435546875 398.353515625 622.809570312 c 5
 398.055664062 585.23046875 401.56640625 547.296875 396.20703125 510.01953125 c 4
 386 439.021484375 334 392.021484375 265.909179688 381.763671875 c 4
 203.42578125 372.350585938 145 386.021484375 103 454.021484375 c 4
 69.171875 508.791015625 77.3046875 608.133789062 141 649.021484375 c 4
 219.499023438 699.412109375 294 686.021484375 353.291992188 671.069335938 c 5
333.224609375 604.885742188 m 5
 304 618.021484375 219.8984375 628.120117188 180.3046875 597.133789062 c 4
 145.8046875 570.133789062 135 509.521484375 172 469.021484375 c 4
 215.612304688 421.283203125 298.779296875 436.184570312 323.930664062 491.954101562 c 4
 339.709960938 526.94140625 335 576.021484375 333.224609375 604.885742188 c 5
592.224609375 382.688476562 m 5
 577.8828125 385.7890625 504.282226562 394.309570312 446 366.721679688 c 4
 391 340.688476562 382.735351562 304.689453125 382.407226562 283.688476562 c 4
 382 257.688476562 395.340820312 231.9140625 426 218.018554688 c 4
 451 206.688476562 517.36328125 193.2734375 560.916015625 232.688476562 c 4
 586.483398438 255.827148438 592.224609375 294.791015625 592.224609375 326.688476562 c 4
 592.224609375 346.688476562 592.224609375 377.688476562 592.224609375 382.688476562 c 5
EndSplineSet
LCarets2: 1 0
Ligature2: "'liga' Standard Ligatures in Latin lookup 1-1" waau o_saau
EndChar

StartChar: ma
Encoding: 92 57388 72
Width: 820
VWidth: 1024
Flags: HW
HStem: 157 65.001<389.885 584.21>
VStem: 278 65.7451<269.098 358.914 420.757 422.324> 683 61<318.187 531.914>
AnchorPoint: "u_sait" 886 380 basechar 0
AnchorPoint: "pangnau" 973 319.914 basechar 0
AnchorPoint: "saau_maam" 351 18.9141 basechar 0
AnchorPoint: "saau" 314 342.914 basechar 0
LayerCount: 3
Fore
SplineSet
87.6689453125 552.997070312 m 1
 216.409179688 465.08984375 361.962890625 473.903320312 432.379882812 515.615234375 c 0
 524.756835938 570.3359375 496.47265625 678.565429688 468.978515625 725.220703125 c 1
 523.607421875 760.521484375 l 1
 573.225585938 678.446289062 589.359375 533.055664062 465.524414062 459.700195312 c 0
 417.728515625 431.387695312 368.133789062 425.26953125 343.737304688 422.259765625 c 1
 343.745117188 358.9140625 l 1
 343.745117188 264.9140625 383 222.000976562 476.244140625 222.000976562 c 1
 617 220.9140625 656.530273438 308.90234375 661.30078125 317.34375 c 0
 700.366210938 386.466796875 685.401367188 497.5 683 531.9140625 c 1
 744 537.9140625 l 1
 756 419.9140625 748.150390625 356.82421875 729.352539062 311.721679688 c 0
 664 154.9140625 505 157.9140625 475.879882812 157 c 1
 404 157 278 185 278 333 c 9
 278 420.756835938 l 1
 151.463867188 429.912109375 75.1005859375 482.774414062 50 500.012695312 c 1
 87.6689453125 552.997070312 l 1
EndSplineSet
LCarets2: 1 0
Ligature2: "'liga' Standard Ligatures in Latin lookup 1-1" maam a_saau
EndChar

StartChar: mi
Encoding: 93 57389 73
Width: 858
VWidth: 1024
Flags: HW
HStem: 170.245 65.7549<260.116 482.473> 442.121 64.4189<526.448 531.605 598.4 669.221>
VStem: 97.7939 63.4746<325.587 543.786> 533 65.4004<283.884 370> 749.965 65.002<574.481 745.794>
AnchorPoint: "u_sait" 750 400 basechar 0
AnchorPoint: "pangnau" 928.794 385 basechar 0
AnchorPoint: "saau_maam" 374.794 46 basechar 0
AnchorPoint: "saau" 569.794 370 basechar 0
LayerCount: 3
Fore
SplineSet
366.793945312 236 m 0
 494.793945312 236 533 276 533 370 c 9
 531.60546875 442.12109375 l 1
 526.448242188 442.624023438 l 2
 413.978043469 453.592050782 333.396484375 501.729492188 304.662109375 521.462890625 c 1
 342.331054688 574.447265625 l 1
 441.240234375 506.909179688 535.779296875 506.540039062 556.5078125 506.540039062 c 0
 626.416992188 506.540039062 669.389648438 526.608398438 687.04296875 537.065429688 c 0
 745.211914062 571.522460938 749.96484375 622.176757812 749.96484375 650.186523438 c 0
 749.96484375 683.801757812 740.708007812 717.7109375 723.641601562 746.670898438 c 1
 778.270507812 781.971679688 l 1
 802.204101562 742.3828125 814.966796875 696.6015625 814.966796875 650.359375 c 0
 814.966796875 560.823242188 768.758789062 509.922851562 720.1875 481.150390625 c 0
 672.397460938 452.840820312 622.81640625 446.72265625 598.400390625 443.709960938 c 1
 598.400390625 348 l 17
 598.400390625 288 568.793945312 170.245117188 368.793945312 170.245117188 c 0
 296.369140625 170.245117188 185.17578125 186.532226562 126.629882812 292 c 0
 79.1689453125 377.499023438 87.8984375 490.576171875 97.7939453125 554 c 1
 161.268554688 543.786132812 l 1
 143.444335938 428.423828125 165.314453125 361.073242188 178.514648438 333 c 0
 216.642578125 251.911132812 315.76171875 236 366.793945312 236 c 0
EndSplineSet
LCarets2: 1 0
Ligature2: "'liga' Standard Ligatures in Latin lookup 1-1" maam i_saau
EndChar

StartChar: mu
Encoding: 94 57390 74
Width: 791
VWidth: 1024
Flags: W
HStem: 179.873 326.555<379.171 612.275> 761.859 20G<580.348 623.266>
VStem: 364.689 66.7383<352.171 441.535> 582.992 65.002<574.623 745.682>
AnchorPoint: "u_sait" 826 336 basechar 0
AnchorPoint: "pangnau" 971.689 383 basechar 0
AnchorPoint: "saau_maam" 389.689 46 basechar 0
AnchorPoint: "saau" 401.689 370 basechar 0
LayerCount: 3
Fore
SplineSet
611.298828125 781.859375 m 1
 635.232421875 742.270507812 647.994140625 696.490234375 647.994140625 650.248046875 c 0
 647.994140625 581.991210938 622.862304688 547.911132812 606.646484375 525.921875 c 1
 722.723632812 483.870117188 735.1875 391.297851562 735.1875 353.474609375 c 0
 735.1875 262.049804688 664.471679688 179.873046875 560.078125 179.873046875 c 0
 438.4375 179.873046875 395.919921875 246.969726562 377.119140625 298.8359375 c 1
 361.5 288.892578125 340.106445312 274.08984375 314.484375 249.345703125 c 0
 288.250976562 224.01171875 240.594726562 176.162109375 212.298828125 142.767578125 c 1
 189.912109375 161.541015625 137.78515625 208.419921875 104.2109375 243.744140625 c 0
 74.5263671875 274.975585938 32.8671875 324.954101562 12 344.197265625 c 1
 66.810546875 394.423828125 l 1
 80.5419921875 371.116210938 108.15625 335.889648438 136.005859375 307.41796875 c 0
 156.162109375 286.811523438 193.612304688 247.640625 209.88671875 237.734375 c 1
 235.41796875 267.344726562 264.111328125 293.01171875 289.921875 314.478515625 c 0
 309.154296875 330.474609375 340.774414062 351.739257812 364.787109375 364.90234375 c 0
 364.70703125 368.841796875 364.689453125 372.848632812 364.689453125 377 c 2
 364.689453125 441.53515625 l 1
 357.73828125 442.037109375 l 2
 245.009765625 450.197265625 166.423828125 501.6171875 137.689453125 521.349609375 c 1
 175.359375 574.333984375 l 1
 274.26953125 506.795898438 368.806640625 506.427734375 389.53515625 506.427734375 c 0
 459.444335938 506.427734375 502.416992188 526.49609375 520.0703125 536.953125 c 0
 578.23828125 571.41015625 582.9921875 622.064453125 582.9921875 650.07421875 c 0
 582.9921875 683.689453125 573.735351562 717.598632812 556.669921875 746.55859375 c 1
 611.298828125 781.859375 l 1
541.69140625 474.75390625 m 1
 511.515625 462.684570312 477.4765625 449.278320312 431.427734375 443.59765625 c 1
 431.427734375 394 l 2
 431.427734375 353 431.427734375 305.484375 485.087890625 266.623046875 c 0
 525.455078125 237.393554688 589.536132812 241.166992188 624.66796875 265.93359375 c 0
 665.260742188 294.551757812 672.802734375 333.053710938 670.3984375 364 c 0
 665.317382812 429.427734375 617.689453125 461.000976562 541.69140625 474.75390625 c 1
EndSplineSet
Validated: 33
LCarets2: 1 0
Ligature2: "'liga' Standard Ligatures in Latin lookup 1-1" maam u_saau
EndChar

StartChar: mo
Encoding: 95 57391 75
Width: 809
VWidth: 1024
Flags: HW
HStem: 647.211 20G<689.91 689.91> 667.209 21G<689.91 689.91>
VStem: 408.343 66.2266<278.594 403> 624.907 65.0029<593.227 755.249> 675.569 81<314.58 353.128>
AnchorPoint: "u_sait" 860 424 basechar 0
AnchorPoint: "pangnau" 958.569 365 basechar 0
AnchorPoint: "saau_maam" 362.569 46 basechar 0
AnchorPoint: "saau" 446.569 369 basechar 0
LayerCount: 3
Fore
SplineSet
689.91015625 667.208984375 m 1x70
 689.91015625 667.2109375 l 1xb0
 689.91015625 568.146484375 635.29296875 526.748046875 606.2421875 504.728515625 c 1
 616.638671875 499.221679688 l 2
 705.756835938 452.017578125 750.62109375 350.881835938 756.569335938 317 c 1x68
 675.569335938 289 l 5
 662.069335938 343.751953125 635.977539062 416.66015625 575.569335938 447.93359375 c 0
 536.202148438 468.314453125 520.744140625 466.255859375 474.569335938 460.559570312 c 1
 474.569335938 403 l 17
 474.569335938 325 473.34375 238.215820312 383.776367188 191.630859375 c 0
 336.361328125 166.969726562 257.391601562 161.189453125 200.54296875 192.751953125 c 0
 163.29296875 213.43359375 140.947265625 243.1015625 129.55078125 275 c 0
 113.525390625 319.854492188 119.150390625 369.1171875 135.432617188 404 c 0
 154.569335938 445 194.569335938 482 253.290039062 505.951171875 c 1
 207.569335938 526 192.569335938 534 149.6171875 559.16796875 c 1
 187.0859375 611.872070312 l 1
 272.366210938 553.424804688 341.6796875 523.389648438 431.451171875 523.389648438 c 0
 478.033203125 523.389648438 624.907226562 533.942382812 624.907226562 667.036132812 c 0x70
 624.907226562 700.651367188 615.650390625 734.560546875 598.584960938 763.520507812 c 1
 653.213867188 798.821289062 l 1
 677.147460938 759.232421875 689.91015625 713.451171875 689.91015625 667.208984375 c 1x70
408.342773438 458.970703125 m 2
 408.342773438 458.970703125 365.708984375 463.00390625 327.903320312 471.971679688 c 1
 283 466 234 440 212.569335938 407.994140625 c 0
 182.134674806 362.541163457 178.64453125 292.333984375 220.017578125 258.094726562 c 0
 250.958007812 232.490234375 314.998046875 228.0078125 353.911132812 248.146484375 c 0
 407.060546875 275.65234375 408.342773438 331.458007812 408.342773438 395 c 2
 408.342773438 458.970703125 l 2
EndSplineSet
LCarets2: 1 0
Ligature2: "'liga' Standard Ligatures in Latin lookup 1-1" maam o_saau
EndChar

StartChar: na
Encoding: 96 57392 76
Width: 854
VWidth: 1024
Flags: HW
HStem: 174.749 65.1289<490.499 627.586> 367.419 65.002<161.401 265.028> 473.916 77.2041<346.821 400.272>
VStem: 61 65<468.97 597> 408 64.2666<258.429 329.319 392.556 464.915> 723.597 65<332.503 538.708>
AnchorPoint: "u_sait" 896 357 basechar 0
AnchorPoint: "pangnau" 994 407 basechar 0
AnchorPoint: "saau_maam" 400 46 basechar 0
AnchorPoint: "saau" 444 360 basechar 0
LayerCount: 3
Fore
SplineSet
61 597 m 9
 61 699 l 1
 126 699.053710938 l 1
 126 575 l 17
 126 511.053549029 128.289697012 487.605838329 153.000000837 461.49072615 c 0
 170.414983257 443.08568254 193.843177097 432.420898438 215.76953125 432.420898438 c 0
 242.551928772 432.420898438 258.047418677 443.242446156 294.000001085 482.906347754 c 0
 338.5 532 357.794164984 551.120117188 390.35546875 551.120117188 c 0
 417 551.120117188 437.308964708 528.754304725 450.738223188 505.999998427 c 0
 472.22227256 469.597791957 472.272114964 426.097427173 472.310546875 392.555664062 c 9
 472.266601562 329.319335938 l 0
 472.571289062 296.025390625 472.987304688 275.204101562 494.896484375 257.365234375 c 0
 513.008789062 242.618164062 535.337890625 239.877929688 549.423828125 239.877929688 c 0
 594.997070312 239.877929688 660.438476562 267.5859375 693.625976562 315.928710938 c 0
 714.356445312 346.124023438 723.596679688 385.524414062 723.596679688 425.625976562 c 0
 723.596679688 494.513671875 697.668945312 567.080078125 653.712890625 627.48828125 c 1
 705.520507812 666.758789062 l 1
 778.346679688 567.267578125 788.596679688 471.44140625 788.596679688 425.385742188 c 0
 788.596679688 227.701171875 620.068359375 174.749023438 550.015625 174.749023438 c 0
 462.543814587 174.749023438 427.562102432 231.01653369 414.727539062 263.090820312 c 0
 409.311523438 276.625976562 408 304.517578125 408 310.291015625 c 1
 408 398.811523438 l 2
 408 427.367344937 407.829652773 453.893351736 397.217773438 465.46875 c 0
 392.913085938 470.1640625 386.52734375 473.916015625 379.153320312 473.916015625 c 0
 364.205126055 473.916015625 352.909656442 460.821652468 327.853515625 428.814453125 c 0
 311.602539062 408.094726562 279.701171875 367.418945312 215.969726562 367.418945312 c 0
 170.481424476 367.418945312 126.407274766 390.202441855 96.9999985041 426.877354469 c 0
 68.1966277395 462.79911398 61 492.623641548 61 597 c 9
EndSplineSet
LCarets2: 1 0
Ligature2: "'liga' Standard Ligatures in Latin lookup 1-1" naan a_saau
EndChar

